<svg xmlns="http://www.w3.org/2000/svg" width="85.085" height="96.039" viewBox="0 0 85.085 96.039">
  <defs>
    <style>
      .cls-1 {
        fill: none;
        stroke: #fff;
        stroke-linecap: round;
        stroke-linejoin: round;
        stroke-width: 5px;
      }
    </style>
  </defs>
  <g id="גלילה" transform="translate(3.535 2.5)">
    <g id="Group_28" data-name="Group 28">
      <path id="Path_73" data-name="Path 73" class="cls-1" d="M497.555,1741.558l11.091-10.883,11.091,10.883" transform="translate(-497.555 -1730.675)"/>
      <line id="Line_71" data-name="Line 71" class="cls-1" x1="11.091" y1="10.883" transform="translate(0 34.576)"/>
      <line id="Line_72" data-name="Line 72" class="cls-1" x1="11.091" y2="10.883" transform="translate(11.091 34.576)"/>
      <line id="Line_73" data-name="Line 73" class="cls-1" y2="43.7" transform="translate(11.091)"/>
    </g>
    <g id="Group_31" data-name="Group 31" transform="translate(15.317 30.03)">
      <g id="Group_30" data-name="Group 30">
        <g id="Group_29" data-name="Group 29">
          <line id="Line_74" data-name="Line 74" class="cls-1" y2="7.137" transform="translate(29.719 26.241)"/>
          <path id="Path_74" data-name="Path 74" class="cls-1" d="M517.7,1789.419v-34.894a5.621,5.621,0,0,1,5.679-5.556,5.766,5.766,0,0,1,4.007,1.625,5.484,5.484,0,0,1,1.658,3.931v14.084" transform="translate(-499.32 -1748.969)"/>
          <line id="Line_75" data-name="Line 75" class="cls-1" y2="7.216" transform="translate(52.39 30.156)"/>
          <path id="Path_75" data-name="Path 75" class="cls-1" d="M525.087,1780.182l-8.705-8.667a5.726,5.726,0,0,0-8.013,0,5.49,5.49,0,0,0,0,7.863l14.287,14.02,8.11,7.343h39.678v-31.8a5.625,5.625,0,0,0-5.679-5.573,5.7,5.7,0,0,0-4.006,1.625,5.561,5.561,0,0,0-1.658,3.948" transform="translate(-506.711 -1739.732)"/>
          <path id="Path_76" data-name="Path 76" class="cls-1" d="M535.82,1768.142v-5.036a5.624,5.624,0,0,0-5.681-5.558,5.768,5.768,0,0,0-4.006,1.627,5.49,5.49,0,0,0-1.656,3.932v6.6" transform="translate(-494.758 -1743.465)"/>
          <path id="Path_77" data-name="Path 77" class="cls-1" d="M531.258,1777.479v-11.305a5.608,5.608,0,0,1,5.663-5.556,5.7,5.7,0,0,1,4.006,1.625,5.553,5.553,0,0,1,1.658,3.931v5.479" transform="translate(-490.195 -1741.497)"/>
        </g>
      </g>
    </g>
  </g>
</svg>
