<svg xmlns="http://www.w3.org/2000/svg" width="49.642" height="46.151" viewBox="0 0 49.642 46.151">
  <defs>
    <style>
      .cls-1 {
        fill: none;
        stroke: #2be8f7;
        stroke-linecap: round;
        stroke-linejoin: round;
        stroke-width: 4.5px;
      }
    </style>
  </defs>
  <g id="blow_icon_desktop_" data-name="blow_icon(desktop)" transform="translate(2.25 2.25)">
    <path id="Path_512" data-name="Path 512" class="cls-1" d="M-3401.343-1244.481a8.109,8.109,0,0,0-8.109-8.109,8.109,8.109,0,0,0-8.109,8.109,8.109,8.109,0,0,0,8.109,8.109h22.458" transform="translate(3432.135 1252.59)"/>
    <path id="Path_513" data-name="Path 513" class="cls-1" d="M-3492.468-1172.977a5.772,5.772,0,0,0-5.772-5.772,5.772,5.772,0,0,0-5.772,5.772,5.772,5.772,0,0,0,5.772,5.772h39.37" transform="translate(3504.011 1191.197)"/>
    <path id="Path_514" data-name="Path 514" class="cls-1" d="M-3369.571-1068.241a5.046,5.046,0,0,1-5.046,5.046,5.045,5.045,0,0,1-5.045-5.046,5.045,5.045,0,0,1,5.045-5.045h19.133" transform="translate(3400.625 1104.846)"/>
  </g>
</svg>
