<svg xmlns="http://www.w3.org/2000/svg" width="63.716" height="68.166" viewBox="0 0 63.716 68.166">
  <defs>
    <style>
      .cls-1, .cls-3 {
        fill: none;
        stroke: #2be8f7;
        stroke-width: 4.5px;
      }

      .cls-1 {
        stroke-linecap: round;
        stroke-linejoin: round;
      }

      .cls-2 {
        fill: #fff;
      }

      .cls-3 {
        stroke-miterlimit: 10;
      }
    </style>
  </defs>
  <g id="slide_icon_desktop_" data-name="slide_icon(desktop)" transform="translate(2.25 3.009)">
    <g id="Group_31" data-name="Group 31" transform="translate(24.277 29.462)">
      <g id="Group_30" data-name="Group 30">
        <g id="Group_29" data-name="Group 29">
          <line id="Line_74" data-name="Line 74" class="cls-1" y2="3.912" transform="translate(16.292 14.385)"/>
          <path id="Path_74" data-name="Path 74" class="cls-1" d="M517.7,1771.144v-19.129a3.082,3.082,0,0,1,3.113-3.046,3.161,3.161,0,0,1,2.2.891,3.006,3.006,0,0,1,.909,2.155v7.721" transform="translate(-507.622 -1748.969)"/>
          <line id="Line_75" data-name="Line 75" class="cls-1" y2="3.956" transform="translate(28.721 16.532)"/>
          <path id="Path_75" data-name="Path 75" class="cls-1" d="M516.785,1772.586l-4.772-4.751a3.139,3.139,0,0,0-4.393,0,3.01,3.01,0,0,0,0,4.31l7.833,7.686,4.446,4.025H541.65v-17.433a3.084,3.084,0,0,0-3.113-3.055,3.124,3.124,0,0,0-2.2.891,3.048,3.048,0,0,0-.909,2.164" transform="translate(-506.711 -1750.411)"/>
          <path id="Path_76" data-name="Path 76" class="cls-1" d="M530.7,1763.356v-2.761a3.083,3.083,0,0,0-3.114-3.047,3.162,3.162,0,0,0-2.2.892,3.009,3.009,0,0,0-.908,2.155v3.618" transform="translate(-508.184 -1749.828)"/>
          <path id="Path_77" data-name="Path 77" class="cls-1" d="M531.258,1769.861v-6.2a3.074,3.074,0,0,1,3.1-3.046,3.124,3.124,0,0,1,2.2.891,3.045,3.045,0,0,1,.909,2.156v3" transform="translate(-508.747 -1750.135)"/>
        </g>
      </g>
    </g>
    <g id="Group_401" data-name="Group 401" transform="translate(0 10.605)">
      <g id="Group_402" data-name="Group 402" transform="translate(0 0)">
        <path id="Path_479" data-name="Path 479" class="cls-2" d="M17.515,43.232H4.581A2.581,2.581,0,0,1,2,40.651V18.173a2.581,2.581,0,0,1,2.581-2.581H17.515A2.581,2.581,0,0,1,20.1,18.173V40.651a2.581,2.581,0,0,1-2.581,2.581" transform="translate(-2 -15.592)"/>
        <rect id="Rectangle_51" data-name="Rectangle 51" class="cls-3" width="18.096" height="27.64" rx="4.041" transform="translate(0)"/>
      </g>
    </g>
    <g id="Group_493" data-name="Group 493" transform="matrix(0.899, 0.438, -0.438, 0.899, 19.029, 0)">
      <g id="Group_402-2" data-name="Group 402" transform="translate(0 0)">
        <path id="Path_479-2" data-name="Path 479" class="cls-2" d="M15.515,27.64H2.581A2.581,2.581,0,0,1,0,25.059V2.581A2.581,2.581,0,0,1,2.581,0H15.515A2.581,2.581,0,0,1,18.1,2.581V25.059a2.581,2.581,0,0,1-2.581,2.581" transform="translate(0 0)"/>
        <rect id="Rectangle_51-2" data-name="Rectangle 51" class="cls-3" width="18.096" height="27.64" rx="4.041" transform="translate(0)"/>
      </g>
    </g>
  </g>
</svg>
