<?xml version="1.0" encoding="utf-8"?>
<!-- Generator: Adobe Illustrator 25.0.1, SVG Export Plug-In . SVG Version: 6.00 Build 0)  -->
<svg version="1.1" id="Layer_1" xmlns="http://www.w3.org/2000/svg" xmlns:xlink="http://www.w3.org/1999/xlink" x="0px" y="0px"
	 viewBox="0 0 477.9 634.3" style="enable-background:new 0 0 477.9 634.3;" xml:space="preserve">
<style type="text/css">
	.st0{fill:none;stroke:#708FA0;stroke-width:6;stroke-linecap:round;stroke-miterlimit:10;}
	.st1{fill:#FFFFFF;}
	.st2{fill:#1DE8F7;}
	.st3{opacity:0.1;fill:none;stroke:#EF4230;stroke-width:7;stroke-miterlimit:10;enable-background:new    ;}
	.st4{opacity:0.1;fill:none;stroke:#26A6E0;stroke-width:7;stroke-miterlimit:10;enable-background:new    ;}
	.st5{fill:none;stroke:#B3B3B3;stroke-width:8;stroke-miterlimit:10;}
</style>
<g id="Group_303" transform="translate(0 2.982)">
	<line id="Line_103" class="st0" x1="89.4" y1="23.9" x2="94.2" y2="43.2"/>
	<path id="Path_459" class="st0" d="M93.6,40.7l1.1,4.6c0.8,3.2-1.1,6.4-4.3,7.2l0,0l0,0c-3.2,0.8-6.4-1.1-7.2-4.3c0,0,0,0,0,0
		l-1.1-4.6l-5.6-22.5"/>
	<path id="Rectangle_27" class="st1" d="M26.1,30.5h425.7c14.4,0,26.1,11.7,26.1,26.1v548.7c0,14.4-11.7,26.1-26.1,26.1H26.1
		C11.7,631.3,0,619.7,0,605.3V56.5C0,42.1,11.7,30.5,26.1,30.5z"/>
	<path id="Rectangle_28" class="st2" d="M26.1,30.5L26.1,30.5L26.1,30.5v600.9l0,0l0,0C11.7,631.3,0,619.6,0,605.2V56.6
		C0,42.2,11.7,30.5,26.1,30.5z"/>
	<g id="Group_301" transform="translate(26.128 81.794)">
		<line id="Line_104" class="st3" x1="0" y1="0" x2="451.7" y2="0"/>
		<line id="Line_105" class="st4" x1="0" y1="46.3" x2="451.7" y2="46.3"/>
		<line id="Line_106" class="st4" x1="0" y1="92.7" x2="451.7" y2="92.7"/>
		<line id="Line_107" class="st4" x1="0" y1="139" x2="451.7" y2="139"/>
		<line id="Line_108" class="st4" x1="0" y1="185.3" x2="451.7" y2="185.3"/>
		<line id="Line_109" class="st4" x1="0" y1="231.7" x2="451.7" y2="231.7"/>
		<line id="Line_110" class="st4" x1="0" y1="278" x2="451.7" y2="278"/>
		<line id="Line_111" class="st4" x1="0" y1="324.3" x2="451.7" y2="324.3"/>
		<line id="Line_112" class="st4" x1="0" y1="370.7" x2="451.7" y2="370.7"/>
		<line id="Line_113" class="st4" x1="0" y1="417" x2="451.7" y2="417"/>
		<line id="Line_114" class="st4" x1="0" y1="463.3" x2="451.7" y2="463.3"/>
		<line id="Line_115" class="st4" x1="0" y1="509.7" x2="451.7" y2="509.7"/>
	</g>
	<path id="Path_460" class="st5" d="M99,0"/>
	<g id="Group_302" transform="translate(64.511 0.048)">
		<path id="Path_461" class="st0" d="M9.3,49.1l-9-35.9c-1.4-5.7,2-11.5,7.7-12.9l0,0c5.7-1.4,11.5,2,12.9,7.7l4,15.8"/>
		<path id="Path_462" class="st0" d="M3.9,27.3L12.3,61c2,8,10.1,12.9,18.1,10.9l0,0c8-2,12.9-10.1,10.9-18.1c0,0,0,0,0,0l-3.9-15.1
			"/>
	</g>
</g>
</svg>
