<svg xmlns="http://www.w3.org/2000/svg" xmlns:xlink="http://www.w3.org/1999/xlink" width="1920" height="1080" viewBox="0 0 1920 1080">
  <defs>
    <style>
      .cls-1 {
        clip-path: url(#clip-BeforeExam_popup);
      }

      .cls-13, .cls-14, .cls-16, .cls-18, .cls-2, .cls-20, .cls-4, .cls-5 {
        fill: none;
      }

      .cls-2 {
        stroke: #708fa0;
      }

      .cls-13, .cls-14, .cls-15, .cls-16, .cls-2, .cls-20, .cls-5 {
        stroke-linecap: round;
      }

      .cls-18, .cls-2, .cls-4 {
        stroke-miterlimit: 10;
      }

      .cls-2, .cls-5 {
        stroke-width: 7px;
      }

      .cls-3, .cls-8 {
        fill: #fff;
      }

      .cls-4 {
        stroke: #b3b3b3;
        stroke-width: 8px;
      }

      .cls-5 {
        stroke: #1c3f55;
      }

      .cls-17, .cls-6, .cls-9 {
        fill: #1c3f55;
      }

      .cls-6 {
        font-size: 53px;
      }

      .cls-6, .cls-8 {
        font-family: Rubik-Bold, Rubik;
        font-weight: 700;
      }

      .cls-7 {
        fill: #1de8f7;
      }

      .cls-8 {
        font-size: 32px;
      }

      .cls-17, .cls-9 {
        font-size: 28px;
      }

      .cls-11, .cls-9 {
        font-family: Rubik-Regular, Rubik;
      }

      .cls-10, .cls-17 {
        font-family: Rubik-Medium, Rubik;
      }

      .cls-10, .cls-12, .cls-17 {
        font-weight: 500;
      }

      .cls-11 {
        font-weight: 400;
      }

      .cls-12 {
        font-family: Rubik-MediumItalic, Rubik;
        font-style: italic;
      }

      .cls-13 {
        stroke: #dbdbdb;
        stroke-width: 2px;
        opacity: 0.5;
      }

      .cls-14, .cls-15, .cls-16, .cls-18, .cls-20 {
        stroke: #2be8f7;
        stroke-width: 4.5px;
      }

      .cls-14, .cls-15, .cls-16 {
        stroke-linejoin: round;
      }

      .cls-15, .cls-19 {
        fill: #2be8f7;
      }

      .cls-16 {
        stroke-dasharray: 12;
      }
    </style>
    <clipPath id="clip-BeforeExam_popup">
      <rect width="1920" height="1080"/>
    </clipPath>
  </defs>
  <g id="BeforeExam_popup" class="cls-1">
    <rect id="Rectangle_59" data-name="Rectangle 59" width="1920" height="1080"/>
    <g id="Group_566" data-name="Group 566" transform="translate(763 -88)">
      <g id="Group_303" data-name="Group 303" transform="translate(156.707 209.766)">
        <line id="Line_103" data-name="Line 103" class="cls-2" x2="5.71" y2="22.811" transform="translate(-381.937 28.385)"/>
        <path id="Path_459" data-name="Path 459" class="cls-2" d="M-2327.444-1106.641l1.352,5.4a7.037,7.037,0,0,1-5.117,8.534h0a7.036,7.036,0,0,1-8.534-5.117l-1.352-5.4-6.672-26.653" transform="translate(1950.485 1154.908)"/>
        <rect id="Rectangle_27" data-name="Rectangle 27" class="cls-3" width="1053.859" height="801.091" rx="37.326" transform="translate(-487 36.143)"/>
        <path id="Path_460" data-name="Path 460" class="cls-4" d="M-2328.244-1161.541" transform="translate(2445.628 1161.541)"/>
        <g id="Group_302" data-name="Group 302" transform="translate(-411.477 0.056)">
          <path id="Path_461" data-name="Path 461" class="cls-2" d="M-2359.749-1112.142-2370.4-1154.7a12.607,12.607,0,0,1,9.169-15.291h0a12.607,12.607,0,0,1,15.291,9.168l4.7,18.78" transform="translate(2370.783 1170.371)"/>
          <path id="Path_462" data-name="Path 462" class="cls-2" d="M-2363.374-1117.828l10.009,39.984a17.736,17.736,0,0,0,21.511,12.9h0a17.735,17.735,0,0,0,12.9-21.511l-4.639-17.965" transform="translate(2367.943 1150.233)"/>
        </g>
      </g>
      <g id="Group_470" data-name="Group 470" transform="translate(661.068 291.475)">
        <g id="Group_440" data-name="Group 440" transform="translate(0 0)">
          <g id="Group_372" data-name="Group 372" transform="translate(0 0) rotate(45)">
            <path id="Path_490" data-name="Path 490" class="cls-5" d="M31.153,0H0" transform="translate(0 0)"/>
          </g>
          <g id="Group_468" data-name="Group 468" transform="translate(0 0) rotate(45)">
            <path id="Path_490-2" data-name="Path 490" class="cls-5" d="M31.153,0H0" transform="translate(0 0)"/>
          </g>
        </g>
        <g id="Group_469" data-name="Group 469" transform="translate(22.029 0) rotate(90)">
          <g id="Group_372-2" data-name="Group 372" transform="translate(0 0) rotate(45)">
            <path id="Path_490-3" data-name="Path 490" class="cls-5" d="M31.153,0H0"/>
          </g>
          <g id="Group_468-2" data-name="Group 468" transform="translate(0 0) rotate(45)">
            <path id="Path_490-4" data-name="Path 490" class="cls-5" d="M31.153,0H0"/>
          </g>
        </g>
      </g>
      <text id="לפני_שמתחילים" data-name="לפני שמתחילים" class="cls-6" transform="translate(197 377)"><tspan x="-174.847" y="0">לפני שמתחילים</tspan></text>
      <g id="Group_451" data-name="Group 451" transform="translate(96.583 897.901)">
        <rect id="Rectangle_19" data-name="Rectangle 19" class="cls-7" width="200.337" height="72.329" rx="23" transform="translate(0 0)"/>
        <text id="הבנתי" class="cls-8" transform="translate(99.449 47.231)"><tspan x="-42.496" y="0">הבנתי</tspan></text>
      </g>
      <g id="Group_487" data-name="Group 487" transform="translate(382.995 454.466)">
        <text id="אנא_וודאו_כי_ברשותכם_קליטה_סבירה" data-name="אנא וודאו כי ברשותכם
קליטה סבירה" class="cls-9" transform="translate(247 26)"><tspan x="-247.24" y="0"></tspan><tspan y="0">אנא וודאו כי ברשותכם</tspan><tspan class="cls-10"><tspan x="-155.568" y="34">קליטה סבירה</tspan></tspan></text>
      </g>
      <g id="Group_488" data-name="Group 488" transform="translate(401.465 588.927)">
        <text id="שימו_לב_שזמן_המבחן_מוגבל_לכ-10_דקות" data-name="שימו לב שזמן המבחן
מוגבל לכ-10 דקות" class="cls-9" transform="translate(229 26)"><tspan x="-228.76" y="0"></tspan><tspan y="0">שימו לב שזמן המבחן</tspan><tspan class="cls-10"><tspan x="-213.052" y="34" xml:space="preserve"> דקות</tspan><tspan y="34">10</tspan><tspan class="cls-11" y="34">מוגבל לכ-</tspan></tspan></text>
      </g>
      <g id="Group_489" data-name="Group 489" transform="translate(389.031 713.784)">
        <text id="אם_אתם_מרגישים_לא_מוכנים_תרגלו_עוד" data-name="אם אתם מרגישים
לא מוכנים, תרגלו עוד" class="cls-9" transform="translate(242 26)"><tspan x="-192.892" y="0"></tspan><tspan y="0">אם אתם מרגישים</tspan><tspan class="cls-10"><tspan x="-241.556" y="34">תרגלו עוד</tspan><tspan class="cls-11" y="34">לא מוכנים, </tspan></tspan></text>
      </g>
      <g id="Group_490" data-name="Group 490" transform="translate(-100.654 454.728)">
        <text id="החליקו_את_הכרטיסיות_למעבר_בין_שאלות" data-name="החליקו את הכרטיסיות
למעבר בין שאלות" class="cls-9" transform="translate(253 26)"><tspan x="-253.344" y="0"></tspan><tspan y="0" xml:space="preserve"> את הכרטיסיות</tspan><tspan class="cls-12" y="0">החליקו</tspan><tspan x="-195.272" y="34">למעבר בין שאלות</tspan></text>
      </g>
      <path id="Path_517" data-name="Path 517" class="cls-13" d="M836.239,761.856v439.311" transform="translate(944.547 -284.047) rotate(90)"/>
      <path id="Path_517-2" data-name="Path 517" class="cls-13" d="M836.239,761.856v439.311" transform="translate(1429.547 -284.047) rotate(90)"/>
      <path id="Path_517-3" data-name="Path 517" class="cls-13" d="M836.239,761.856v439.311" transform="translate(944.547 -152.047) rotate(90)"/>
      <path id="Path_517-4" data-name="Path 517" class="cls-13" d="M836.239,761.856v439.311" transform="translate(1429.547 -152.047) rotate(90)"/>
      <path id="Path_517-5" data-name="Path 517" class="cls-13" d="M836.239,761.856v439.311" transform="translate(1429.547 -20.047) rotate(90)"/>
      <g id="Group_529" data-name="Group 529" transform="translate(-236.592 592.254)">
        <g id="Group_528" data-name="Group 528" transform="translate(0 24.308)">
          <g id="Group_525" data-name="Group 525" transform="translate(73.573)">
            <line id="Line_125" data-name="Line 125" class="cls-14" y1="26.594" transform="translate(0 1.848)"/>
            <path id="Path_528" data-name="Path 528" class="cls-15" d="M-4487.523-2511.135q-4.6-3.7-9.193,0v10.8a10.074,10.074,0,0,1,9.193,0,9.073,9.073,0,0,0,9.194,0v-10.8A11.836,11.836,0,0,1-4487.523-2511.135Z" transform="translate(4496.717 2512.983)"/>
          </g>
          <g id="Group_526" data-name="Group 526">
            <line id="Line_126" data-name="Line 126" class="cls-14" y1="26.594" transform="translate(0 1.848)"/>
            <path id="Path_529" data-name="Path 529" class="cls-15" d="M-4605.13-2511.135q-4.6-3.7-9.194,0v10.8a10.076,10.076,0,0,1,9.194,0,9.071,9.071,0,0,0,9.193,0v-10.8A11.834,11.834,0,0,1-4605.13-2511.135Z" transform="translate(4614.324 2512.983)"/>
          </g>
          <g id="Group_527" data-name="Group 527" transform="translate(35.104)">
            <line id="Line_127" data-name="Line 127" class="cls-14" y1="26.594" transform="translate(0 1.848)"/>
            <path id="Path_530" data-name="Path 530" class="cls-14" d="M-4549.017-2500.338a10.074,10.074,0,0,0-9.193,0v-10.8q4.6-3.7,9.193,0" transform="translate(4558.21 2512.983)"/>
            <path id="Path_531" data-name="Path 531" class="cls-14" d="M-4543.514-2510.029a11.835,11.835,0,0,0,9.194,0v10.8a9.073,9.073,0,0,1-9.194,0" transform="translate(4552.708 2511.877)"/>
          </g>
        </g>
        <path id="Path_533" data-name="Path 533" class="cls-16" d="M-4436.134-2527.784c0-9.3-21.329-16.846-47.641-16.846s-47.639,7.542-47.639,16.846" transform="translate(4529.647 2540.318)"/>
      </g>
      <text id="תוכלו_לדלג_על_שאלה_בכל_עת_ולחזור_אליה" data-name="תוכלו לדלג על שאלה
בכל עת ולחזור אליה" class="cls-17" transform="translate(152.302 614.534)"><tspan x="-240.212" y="0"></tspan><tspan y="0">לדלג על שאלה</tspan><tspan class="cls-11" y="0">תוכלו </tspan><tspan class="cls-11"><tspan x="-225.176" y="34">בכל עת ולחזור אליה</tspan></tspan></text>
      <g id="Group_550" data-name="Group 550" transform="matrix(0.966, 0.259, -0.259, 0.966, 271.469, 438.463)">
        <g id="Group_488-2" data-name="Group 488" transform="translate(0)">
          <rect id="Rectangle_51" data-name="Rectangle 51" class="cls-18" width="27.695" height="38.947" rx="4.041" transform="translate(0 36.813)"/>
          <path id="Path_507" data-name="Path 507" class="cls-14" d="M2.311,16.8,5.9,9.936,0,6.528,3.22,0" transform="translate(15.985 19.377)"/>
          <circle id="Ellipse_18" data-name="Ellipse 18" class="cls-19" cx="4.193" cy="4.193" r="4.193" transform="translate(16.169 12.813)"/>
          <g id="Group_487-2" data-name="Group 487" transform="translate(13.558 0)">
            <path id="Path_508" data-name="Path 508" class="cls-14" d="M0,1.669a14.515,14.515,0,0,1,13.513,0"/>
            <path id="Path_509" data-name="Path 509" class="cls-14" d="M0,.82a7.131,7.131,0,0,1,6.639,0" transform="translate(3.437 7.057)"/>
          </g>
        </g>
        <path id="Path_510" data-name="Path 510" class="cls-20" d="M0,0H12.025" transform="translate(8.154 46.175)"/>
      </g>
      <g id="Group_551" data-name="Group 551" transform="translate(251.124 597.485)">
        <path id="Path_470" data-name="Path 470" class="cls-14" d="M41.021,29.132A19.76,19.76,0,1,1,21.26,9.372,19.761,19.761,0,0,1,41.021,29.132Z" transform="translate(-1.5 2.047)"/>
        <path id="Path_471" data-name="Path 471" class="cls-14" d="M19.885,18.427V28.455l5.236,4.526" transform="translate(-0.125 2.724)"/>
        <rect id="Rectangle_44" data-name="Rectangle 44" class="cls-14" width="1.242" height="9.355" transform="translate(19.139 0.978)"/>
        <rect id="Rectangle_46" data-name="Rectangle 46" class="cls-14" width="6.433" height="2.175" transform="translate(16.544)"/>
      </g>
      <g id="Group_552" data-name="Group 552" transform="translate(255.256 723.119)">
        <g id="Group_292" data-name="Group 292">
          <g id="Group_290" data-name="Group 290" transform="translate(0 25.357)">
            <path id="Path_453" data-name="Path 453" class="cls-19" d="M838.233,441.891a4.748,4.748,0,0,1,0,6.711l-6.5,2.05a1.814,1.814,0,0,1-2.274-2.274l2.05-6.487A4.747,4.747,0,0,1,838.233,441.891Z" transform="translate(-829.375 -440.496)"/>
          </g>
          <g id="Group_291" data-name="Group 291">
            <path id="Path_454" data-name="Path 454" class="cls-14" d="M831.231,444.65l.056-.056,25.142-25.154a4.754,4.754,0,0,1,6.723,6.723L838.01,451.3l-.067.067" transform="translate(-829.151 -418.053)"/>
            <path id="Path_455" data-name="Path 455" class="cls-14" d="M831.511,441.891a4.75,4.75,0,1,1,6.723,6.711l-6.5,2.05a1.814,1.814,0,0,1-2.274-2.274Z" transform="translate(-829.375 -415.351)"/>
          </g>
        </g>
        <path id="Path_456" data-name="Path 456" class="cls-14" d="M825.748,453.882l-4.281-3.6c-3.253-2.737-7.084-2.039-9.368,1.708h0c-2.345,3.848-6.314,4.468-9.6,1.5l-4.536-4.089" transform="translate(-790.582 -405.409)"/>
      </g>
      <g id="Group_553" data-name="Group 553" transform="translate(-234.489 450.321)">
        <g id="Group_31" data-name="Group 31" transform="translate(24.277 29.462)">
          <g id="Group_30" data-name="Group 30">
            <g id="Group_29" data-name="Group 29">
              <line id="Line_74" data-name="Line 74" class="cls-14" y2="3.912" transform="translate(16.292 14.385)"/>
              <path id="Path_74" data-name="Path 74" class="cls-14" d="M517.7,1771.144v-19.129a3.082,3.082,0,0,1,3.113-3.046,3.161,3.161,0,0,1,2.2.891,3.006,3.006,0,0,1,.909,2.155v7.721" transform="translate(-507.622 -1748.969)"/>
              <line id="Line_75" data-name="Line 75" class="cls-14" y2="3.956" transform="translate(28.721 16.532)"/>
              <path id="Path_75" data-name="Path 75" class="cls-14" d="M516.785,1772.586l-4.772-4.751a3.139,3.139,0,0,0-4.393,0,3.01,3.01,0,0,0,0,4.31l7.833,7.686,4.446,4.025H541.65v-17.433a3.084,3.084,0,0,0-3.113-3.055,3.124,3.124,0,0,0-2.2.891,3.048,3.048,0,0,0-.909,2.164" transform="translate(-506.711 -1750.411)"/>
              <path id="Path_76" data-name="Path 76" class="cls-14" d="M530.7,1763.356v-2.761a3.083,3.083,0,0,0-3.114-3.047,3.162,3.162,0,0,0-2.2.892,3.009,3.009,0,0,0-.908,2.155v3.618" transform="translate(-508.184 -1749.828)"/>
              <path id="Path_77" data-name="Path 77" class="cls-14" d="M531.258,1769.861v-6.2a3.074,3.074,0,0,1,3.1-3.046,3.124,3.124,0,0,1,2.2.891,3.045,3.045,0,0,1,.909,2.156v3" transform="translate(-508.747 -1750.135)"/>
            </g>
          </g>
        </g>
        <g id="Group_401" data-name="Group 401" transform="translate(0 10.605)">
          <g id="Group_402" data-name="Group 402" transform="translate(0 0)">
            <path id="Path_479" data-name="Path 479" class="cls-3" d="M17.515,43.232H4.581A2.581,2.581,0,0,1,2,40.651V18.173a2.581,2.581,0,0,1,2.581-2.581H17.515A2.581,2.581,0,0,1,20.1,18.173V40.651a2.581,2.581,0,0,1-2.581,2.581" transform="translate(-2 -15.592)"/>
            <rect id="Rectangle_51-2" data-name="Rectangle 51" class="cls-18" width="18.096" height="27.64" rx="4.041" transform="translate(0)"/>
          </g>
        </g>
        <g id="Group_493" data-name="Group 493" transform="matrix(0.899, 0.438, -0.438, 0.899, 19.029, 0)">
          <g id="Group_402-2" data-name="Group 402" transform="translate(0 0)">
            <path id="Path_479-2" data-name="Path 479" class="cls-3" d="M15.515,27.64H2.581A2.581,2.581,0,0,1,0,25.059V2.581A2.581,2.581,0,0,1,2.581,0H15.515A2.581,2.581,0,0,1,18.1,2.581V25.059a2.581,2.581,0,0,1-2.581,2.581" transform="translate(0 0)"/>
            <rect id="Rectangle_51-3" data-name="Rectangle 51" class="cls-18" width="18.096" height="27.64" rx="4.041" transform="translate(0 0)"/>
          </g>
        </g>
      </g>
    </g>
  </g>
</svg>
