<?xml version="1.0" encoding="utf-8"?>
<!-- Generator: Adobe Illustrator 23.0.0, SVG Export Plug-In . SVG Version: 6.00 Build 0)  -->
<svg version="1.1" id="Layer_1" xmlns="http://www.w3.org/2000/svg" xmlns:xlink="http://www.w3.org/1999/xlink" x="0px" y="0px"
	 viewBox="0 0 35.5 55.1" style="enable-background:new 0 0 35.5 55.1;" xml:space="preserve">
<style type="text/css">
	.st0{clip-path:url(#SVGID_2_);fill:#FFFFFF;}
	.st1{clip-path:url(#SVGID_2_);}
	.st2{fill:#20C5F2;}
	.st3{opacity:0.1;}
	.st4{clip-path:url(#SVGID_4_);}
	.st5{fill:none;stroke:#FFFFFF;stroke-width:4;stroke-miterlimit:10;}
	.st6{fill:none;stroke:#708FA0;stroke-width:7;stroke-miterlimit:10;}
	.st7{fill:none;stroke:#708FA0;stroke-width:7;stroke-linecap:round;stroke-linejoin:round;}
	.st8{fill:#FFFFFF;}
	.st9{opacity:0.2;fill:#20C5F2;enable-background:new    ;}
	.st10{fill:none;stroke:#B3B3B3;stroke-width:7;stroke-miterlimit:10;}
	.st11{fill:#1DE8F7;}
	.st12{opacity:0.1;fill:none;stroke:#EF4230;stroke-width:7;stroke-miterlimit:10;enable-background:new    ;}
	.st13{opacity:0.1;fill:none;stroke:#26A6E0;stroke-width:7;stroke-miterlimit:10;enable-background:new    ;}
	.st14{fill:none;stroke:#B3B3B3;stroke-width:8;stroke-miterlimit:10;}
	.st15{fill:#1C3F55;}
	.st16{fill:#2BE8F7;}
	.st17{fill:none;stroke:#414042;stroke-width:4;stroke-linecap:round;stroke-linejoin:round;}
	.st18{clip-path:url(#SVGID_2_);fill:url(#Path_494_1_);}
	.st19{opacity:0.2;fill:#27C5F2;enable-background:new    ;}
	.st20{fill:none;stroke:#1C3F55;stroke-width:4;stroke-linecap:round;stroke-linejoin:round;}
	.st21{opacity:0.2;}
	.st22{fill:none;stroke:#27C5F2;stroke-width:25;stroke-linecap:round;stroke-linejoin:round;}
	.st23{fill:none;stroke:#27C5F2;stroke-width:25;stroke-linecap:round;}
	.st24{fill:none;stroke:#FFFFFF;stroke-width:8;stroke-linecap:round;stroke-linejoin:round;}
	.st25{fill:none;stroke:#FFFFFF;stroke-width:8;stroke-linecap:round;}
	.st26{fill:none;}
</style>
<g>
	<defs>
		<rect id="SVGID_1_" x="169" y="-401.2" width="1920" height="1548"/>
	</defs>
	<clipPath id="SVGID_2_">
		<use xlink:href="#SVGID_1_"  style="overflow:visible;"/>
	</clipPath>
	<rect x="169" y="-401.2" class="st0" width="1920" height="1548"/>
	<g id="רקע" transform="translate(1920.275 0.165) rotate(90)" class="st1">
		<path id="Path_32" class="st2" d="M-401.2-169h1080v1920h-1080V-169z"/>
		<g id="Group_3" transform="translate(-1080 1997.371)" class="st3">
			<g>
				<defs>
					<rect id="SVGID_3_" x="258.9" y="-1745.9" width="1920" height="1080"/>
				</defs>
				<clipPath id="SVGID_4_">
					<use xlink:href="#SVGID_3_"  style="overflow:visible;"/>
				</clipPath>
				<g id="Group_2" class="st4">
					<g id="Group_1">
						<path id="Path_1" class="st5" d="M856.4-619.1c-30.5-116.7-16-240.1,2-359.4c2.6-17.4,5.6-35.5,15.4-50.2
							c9.9-14.6,28.7-24.8,45.4-19c20.6,7.1,27.1,32.6,29.9,54.3c18,140.9,9.1,284-26.2,421.6c-3.4,13.3-9.5,28.9-22.9,31.5
							c-10.8,2.1-21.5-6-26.4-15.9s-5.5-21.3-6.7-32.2C865.8-599.3,863.6-610.8,856.4-619.1"/>
						<path id="Path_2" class="st5" d="M862.6-452.7c-9-14.1-49.2-127.1-56.5-194.7s-5.4-135.9-2.2-203.8
							c4.4-92.3,11.5-185.9,42.9-272.9c8.9-24.8,25-52.7,51.3-53.6c24.1-0.9,42,21.9,52.9,43.5c46.4,92.6,41.9,201.4,36.2,304.8
							c-5.5,100.4-11,201.1-27.9,300.3c-4.3,25.1-10,51.5-27.6,69.9S871.6-438.6,862.6-452.7z"/>
						<path id="Path_3" class="st5" d="M767.4-805c3.4-109.2,10.3-218.6,28.2-326.5c7.7-46.5,17.8-93.6,41.2-134.5
							c12.3-21.6,30.6-42.5,55.2-46.1s48.8,11.8,62.9,32.3s19.9,45.3,25.3,69.6c7.7,34.6,15,69.4,20.3,104.4
							c2.6,17.5,4.6,35.1,6.1,52.8c1.1,13,5.5,25.2,5.7,38.1c1.4,73-4.3,144.6,7.1,217.3c8.4,53.7,23.9,106.7,22.9,161
							c-1,51.5-16.8,101.5-34.4,150c-10.7,29.5-22.1,58.8-33.6,88c-9,23.1-18.6,47-36.4,64.3c-17.8,17.3-46.4,26.2-68,14.1
							c-18.5-10.3-26-31.2-34-49.5c-9.9-22.7-18.4-46.1-26.1-69.6c-16.1-48.8-28.4-98.8-36.8-149.6c-5.5-33.2-11.6-67.7-8.3-101.1
							C768.5-727.8,766.2-767.1,767.4-805z"/>
						<path id="Path_4" class="st5" d="M935.4-232.3c63.4-102.5,128.2-208.6,147.3-327.6c14.5-90.5,1.6-183-11.4-273.7
							c-23.6-165.4-47.3-331.3-89.4-493c-11.2-42.9-29.6-91.8-72.1-104.7c-34.2-10.4-72,8.9-93.7,37.3s-30.8,64.3-38.5,99.2
							c-77.9,351.9-71.5,722.4,20.2,1070.9"/>
						<path id="Path_5" class="st5" d="M1039.4-229.1c125.8-179.5,146.3-414.1,119.2-631.7s-96.9-427.5-136.2-643.2
							c-15.2-83.7-25.7-170.7-5-253.2c18.5-73.7,60.7-138.8,92.6-207.8s53.9-148.5,29.3-220.4"/>
						<path id="Path_6" class="st5" d="M1157.5-229.8c65.7-142,90.3-300.7,86.1-457s-36.3-310.9-80-461
							c-28.4-97.5-61.8-193.9-81-293.6s-23.7-204.4,5.4-301.7c26.1-87,77.5-163.8,117.6-245.3s69.5-174.5,47.1-262.5"/>
						<path id="Path_7" class="st5" d="M1782.9-564.4c-32.1-91.1-64.5-183.5-73-279.8s9.4-198.5,69.1-274.5"/>
						<path id="Path_8" class="st5" d="M1765.5-308.5c-151.5-379.2-146.5-818.3,13.7-1194"/>
						<path id="Path_9" class="st5" d="M1718.9-211.6c-57.4-176.6-115.3-355.8-124.4-541.3c-8.2-166.9,23.4-332.9,50-497.9
							c50.7-315.2,81.9-646.3-25.8-946.8"/>
						<path id="Path_10" class="st5" d="M1691.9-2187.7c-1.7,111,42.8,222.1,120.7,301.2"/>
						<path id="Path_11" class="st5" d="M1333.8-2187.8c-12.3,178.9-70.9,353.5-68.1,532.8c1.8,114,28.3,225.9,47.5,338.2
							c64.6,378.3,45.2,770.7-56.4,1140.8"/>
						<path id="Path_12" class="st5" d="M1317.1-2178.3c-85,236.3-171.3,482.7-144.5,732.4c16.4,152.6,74.5,297.7,100,449.1
							c45.6,270.5-14.7,546.7-81.2,812.8"/>
						<path id="Path_13" class="st5" d="M1344.1-233.8c-7.1-288.3,198.9-559.6,153-844.3c-32.4-200.7-187.3-374.4-181.8-577.6
							c5.1-190.1,151.6-358.3,142.3-548.3"/>
						<path id="Path_14" class="st5" d="M1417.3-795c14.6,6.4,51.6-203.4,20.3-301.7c-2.5-7.9-5.4-16-11.2-22s-15.2-9.2-22.6-5.6
							c-9.4,4.6-11.3,16.9-12,27.4c-4.8,77-5.7,154.1-2.6,231.2C1390.3-837.6,1402.7-801.4,1417.3-795z"/>
						<path id="Path_15" class="st5" d="M1412.2-235.4c26.5-181.3,75.3-358.5,111.2-538.1c48-240.6,72.7-485.9,74.8-731.3
							c2-239.4-17.4-478.9-56-715.2"/>
						<path id="Path_16" class="st5" d="M1456.2-219.9c14.3-53.5,28.5-107.2,48.9-158.7c9.3-23.5,24.9-50.1,50.2-50.8
							c15.9-0.5,30.5,10.5,38.8,24.2s11.5,29.6,14.6,45.3c10.7,54.1,21.5,108.3,32.2,162.4"/>
						<path id="Path_17" class="st5" d="M1522.4-220.6c0.4-47.3,7.3-94.3,20.6-139.7c2.4-8.1,6.7-17.6,15.1-18.2
							c11.2-0.8,15.6,14.1,16.1,25.2c2.6,57.4,2.3,114.8-0.7,172.3"/>
						<path id="Path_18" class="st5" d="M1510.4-1938.4c58.4,0.7,19,305.2,28.6,457.9c1.5,23.5,2.8,47.9-6.3,69.6
							s-31.8,39.6-54.9,35c-20-4-33.4-22.7-43.3-40.5c-46.5-84-64.6-180.9-51.5-276.1C1396.2-1786.9,1451.9-1939.1,1510.4-1938.4z"
							/>
						<path id="Path_19" class="st5" d="M1450.3-1488.3c-34.2-71.7-46-152.1-33.9-230.6c2.5-16,6.2-32.3,15.3-45.7
							s24.9-23.3,41-21.3c17.7,2.1,31.3,18.1,36.3,35.2s3.1,35.4,1.3,53.2c-6.4,60.3-12.8,120.5-19.2,180.8
							c-0.9,8.7-1.9,17.6-5.7,25.5s-10.9,14.8-19.6,15.7S1450.3-1488.3,1450.3-1488.3z"/>
						<path id="Path_20" class="st5" d="M659.5-1123.9c21.6-112.1,45.1-228.6,114.5-319.2c36.2-47.2,83.3-85,120.3-131.5
							s64.1-107,49.8-164.7c-11.4-46.3-46.9-82.2-79.1-117.5c-75.1-82.5-139-174.8-191.8-273.1"/>
						<path id="Path_21" class="st5" d="M751.9-2211.3c5.4,56.8,25.5,111.4,52,162c26.5,50.5,59.4,97.4,92.2,144.1
							c10.3,14.7,21.4,30.1,37.7,37.6c23,10.7,51.1,2.8,70.8-13.2c26.2-21.2,40.1-53.9,50.3-86c24.2-76.5,33.1-156.9,26.3-236.8"/>
					</g>
					<path id="Path_22" class="st5" d="M1385.7-1464.3c-32.4-84.6-41.5-176.3-26.4-265.6c11.5-66.8,36.2-130.5,60.9-193.7
						c19.1-48.9,38.2-97.8,57.2-146.6c4.4-11.3,10.4-24,22.1-26.9c10-2.5,20.5,3.6,26.3,12.1s7.8,18.9,9.7,29.1
						c47.3,257.7,50.1,521.6,8.5,780.3c-3.4,20.8-11.7,46.2-32.6,48.6c-20.7,2.4-34.6-20.2-42.9-39.4
						C1440.9-1330.3,1385.7-1464.3,1385.7-1464.3z"/>
					<path id="Path_23" class="st5" d="M1105.3-237c85.7-207.2,138.3-435.9,96.5-656.3c-21.8-115.1-68.4-223.8-101.2-336.2
						c-37.7-129.9-56.8-264.4-56.6-399.7c0.1-74.4,6.3-149.9,32.5-219.5c21.8-57.8,56.6-109.6,82.9-165.4
						c26.4-55.8,44.3-119.2,29.2-179.1"/>
					<path id="Path_24" class="st5" d="M654.9-1453.5c19.8-31.4,52.2-52.5,85.4-69.1s68.2-30,98.8-50.8s57.4-51,63.6-87.6
						c4.8-28.4-3.3-57.9-18-82.8s-35.4-45.5-57.2-64.3c-73.5-63.4-163.6-111.5-215.5-193.6"/>
					<path id="Path_25" class="st5" d="M643.3-1635.8c56.6-1.6,113.6-3.2,168.9-15.3c8.8-1.9,17.6-4.2,25.3-8.8s14.2-11.9,15.8-20.8
						c1.8-10-3-20.3-10.2-27.3s-16.7-11.4-26.1-15.1c-57.2-22.2-120.2-23.6-181.5-20.6"/>
					<path id="Path_26" class="st5" d="M835.3-2174.9c2.1,35.1,6.4,70.2,16.6,103.9c10.1,33.6,26.3,65.9,50.2,91.7
						c9.6,10.4,21.1,20.1,35,22.8c14.6,2.8,30.4-2.9,40.5-13.8s14.6-26.6,12.8-41.3c-3-25-22.5-46.5-22-71.7
						c0.8-35.7,41.2-61.5,41-97.3"/>
					<path id="Path_27" class="st5" d="M1025.3-2119c-11.2,8.3-17.8,21.4-17.9,35.3c0,9.8,4.7,20.8,14.2,23.3c7.7,2,16-2.7,20.3-9.5
						s5.1-15.1,5-23.1c-0.2-7.5-1.3-15.3-5.7-21.3s-12.8-9.7-19.6-6.7"/>
					<path id="Path_28" class="st5" d="M882.8-2170.9c-2.8,17.9-3.7,36.1-2.9,54.2c0.4,9.1,2.1,19.5,9.6,24.6
						c7.3,4.9,17.6,2.7,24.8-2.6s12-12.9,17.5-19.8c7.8-9.9,17.1-18.6,23.8-29.2c6.7-10.6,10.6-24.1,6.3-35.9"/>
					<path id="Path_29" class="st5" d="M1375.8-1247.8c-6.7,17.4-6.1,36.9,1.6,53.9c3.2,7,8.5,14,16.1,15.3c5.8,1,11.8-1.6,15.8-5.9
						c4-4.3,6.3-9.9,7.5-15.7c3-14.1,0.2-28.9-7.6-41c-4.2-6.5-10.4-12.3-18-13.4s-16.4,4.4-16.5,12.2"/>
					<path id="Path_30" class="st5" d="M924-1543.1c-8.9,8.1-14.8,19.6-15.4,31.6s4.3,24.3,13.6,32c8.7,7.3,20.6,10.2,28.7,18.1
						c5,4.8,8.8,11.6,15.4,13.5c5.2,1.5,11-0.6,15.1-4.3c7.5-6.8,9.6-17.9,8.2-27.9s-5.8-19.3-9.6-28.6s-7-19.3-6-29.4
						c0.7-6.9,3.4-14.4,0-20.6s-11.6-8-18.4-6.7c-13.6,2.5-23.5,14-32.3,24.8"/>
					<path id="Path_31" class="st5" d="M1532.7-484.2c-14.1-20.1-17.2-46-8.4-68.9c4.2-10.6,10.9-20.1,14.5-31
						c2.4-7.4,3.6-15.7,9-21.2c6.1-6,15.6-6.9,22.8-2.3c6.3,4.3,9.2,12.2,9.4,19.8s-2,15-3.9,22.3c-2,7.3-3.8,14.9-2.9,22.4
						c1.5,12.8,10.7,23.9,11.8,36.8c0.6,7.3-1.6,15-6.7,20.2c-6,6.1-15.2,8.1-23.7,7s-16.4-4.8-23.8-9"/>
				</g>
			</g>
		</g>
	</g>
	<g id="Group_540" transform="translate(492.198 -28.887)" class="st1">
		<g id="Group_33" transform="translate(135.167 78.935)">
			<line id="Line_76" class="st6" x1="210.4" y1="-378.2" x2="215.1" y2="-359.7"/>
			<path id="Path_78" class="st7" d="M215-360l1.1,4.4c0.8,3.1-1.1,6.2-4.2,6.9c0,0,0,0,0,0l0,0c-3.1,0.8-6.2-1.1-6.9-4.2
				c0,0,0,0,0,0l-1.1-4.4l-5.4-21.6"/>
			<path id="Rectangle_7" class="st8" d="M183-363.7h638c7.7,0,14,6.3,14,14v74.5c0,7.7-6.3,14-14,14H183c-7.7,0-14-6.3-14-14v-74.5
				C169-357.5,175.3-363.7,183-363.7z"/>
			<text transform="matrix(1 0 0 1 713.6227 -294.2159)" class="st15" style="font-family:'Rubik-Bold'; font-size:53px;">הכשרות במטבחי צה״ל</text>
			<g id="Group_32" transform="translate(17.479 0)">
				<path id="Path_79" class="st7" d="M177.9-353.9l-8.6-34.5c-1.4-5.5,2-11,7.4-12.4c0,0,0,0,0,0l0,0c5.5-1.4,11,2,12.4,7.4
					c0,0,0,0,0,0l3.8,15.2"/>
				<path id="Path_80" class="st7" d="M172.7-374.9l8.1,32.4c1.9,7.7,9.7,12.4,17.5,10.5c0,0,0,0,0,0l0,0
					c7.7-1.9,12.4-9.7,10.5-17.5l-3.4-13.5"/>
			</g>
		</g>
	</g>
	<text transform="matrix(1 0 0 1 1343.6323 -144.1679)" class="st8" style="font-family:'Rubik-Regular'; font-size:43px;">בחרו נושא אותו תרצו ללמוד</text>
	<g id="Group_541" transform="translate(26.907 -155.528)" class="st1">
		<g id="Component_15_1" transform="translate(982.917 441.028)">
			<g id="Group_37" transform="translate(0 10.558)">
				<path id="Rectangle_8" class="st9" d="M778.2-364.3l48.1,307.7c3.2,20.4-10.7,39.5-31.1,42.6L265.5,68.8
					C245.1,72,226,58.1,222.9,37.7l-48.1-307.7c-3.2-20.4,10.7-39.5,31.1-42.6l529.7-82.8C755.9-398.6,775-384.7,778.2-364.3z"/>
				<line id="Line_77" class="st10" x1="260" y1="-325.8" x2="270.6" y2="-300.9"/>
				<path id="Path_81" class="st7" d="M270.4-301.4l2.5,5.9c1.7,4.1-0.2,8.9-4.3,10.6l0,0c-4.1,1.7-8.9-0.2-10.6-4.3c0,0,0,0,0,0
					l-2.5-5.9l-12.3-29.1"/>
				<path id="Rectangle_9" class="st8" d="M768.2-355.5l45.9,293.6c3.2,20.4-10.7,39.5-31.1,42.6L275.5,60.1
					c-20.4,3.2-39.5-10.7-42.6-31.1L187-264.6c-3.2-20.4,10.7-39.5,31.1-42.6l507.4-79.3C745.9-389.8,765-375.9,768.2-355.5z"/>
				<path id="Rectangle_10" class="st11" d="M768-356.7L768-356.7L768-356.7l-581.2,90.9l0,0l0,0c-3.1-19.7,10.4-38.2,30.1-41.3
					l509.8-79.7C746.4-389.9,764.9-376.4,768-356.7z"/>
				<g id="Group_35" transform="translate(23.813 82.617)">
					<line id="Line_78" class="st12" x1="169" y1="-310.3" x2="750.1" y2="-401.2"/>
					<line id="Line_79" class="st13" x1="176.7" y1="-260.9" x2="757.9" y2="-351.7"/>
					<line id="Line_80" class="st13" x1="184.4" y1="-211.5" x2="765.6" y2="-302.3"/>
					<line id="Line_81" class="st13" x1="192.2" y1="-162" x2="773.3" y2="-252.9"/>
					<line id="Line_82" class="st13" x1="199.9" y1="-112.6" x2="781" y2="-203.5"/>
					<line id="Line_83" class="st13" x1="207.6" y1="-63.2" x2="788.8" y2="-154.1"/>
				</g>
				<path id="Path_82" class="st14" d="M797.7-320"/>
				<g id="Group_36" transform="translate(54.513 45.961)">
					<path id="Path_83" class="st7" d="M189.8-334.5L170.1-381c-3.1-7.4,0.3-15.9,7.7-19c0,0,0,0,0,0l0,0c7.4-3.1,15.9,0.3,19,7.7
						c0,0,0,0,0,0l8.7,20.5"/>
					<path id="Path_84" class="st7" d="M177.9-362.7l18.5,43.7c4.4,10.4,16.4,15.2,26.7,10.8c0,0,0,0,0,0l0,0
						c10.4-4.4,15.2-16.4,10.8-26.7c0,0,0,0,0,0l-7.7-18.1"/>
				</g>
			</g>
			<g id="Group_40" transform="translate(111.988)">
				<path id="Rectangle_11" class="st9" d="M806.2-282.8L780.8,27.5c-1.7,20.5-19.7,35.8-40.3,34.2L206.2,17.9
					c-20.5-1.7-35.8-19.7-34.2-40.3l25.4-310.4c1.7-20.5,19.7-35.8,40.3-34.2L772-323.1C792.6-321.4,807.9-303.4,806.2-282.8z"/>
				<line id="Line_84" class="st6" x1="293.5" y1="-367" x2="297.9" y2="-340.4"/>
				<path id="Path_85" class="st7" d="M297.8-340.9l1,6.3c0.7,4.4-2.3,8.6-6.7,9.3l0,0c-4.4,0.7-8.6-2.3-9.3-6.7l-1-6.3l-5.1-31.2"
					/>
				<path id="Rectangle_12" class="st8" d="M794.4-276.7L770.1,19.5c-1.7,20.5-19.7,35.8-40.3,34.2L218,11.7
					c-20.5-1.7-35.8-19.7-34.2-40.3l24.3-296.2c1.7-20.5,19.7-35.8,40.3-34.2l511.9,41.9C780.8-315.2,796.1-297.2,794.4-276.7z"/>
				<path id="Rectangle_13" class="st11" d="M794.5-277.8L794.5-277.8L794.5-277.8l-586.3-48l0,0l0,0c1.6-19.9,19.1-34.7,39-33.1
					l514.2,42.1C781.3-315.2,796.1-297.7,794.5-277.8z"/>
				<g id="Group_38" transform="translate(15.681 113.765)">
					<line id="Line_85" class="st12" x1="189.4" y1="-401.2" x2="775.6" y2="-353.1"/>
					<line id="Line_86" class="st13" x1="185.3" y1="-351.3" x2="771.6" y2="-303.3"/>
					<line id="Line_87" class="st13" x1="181.2" y1="-301.5" x2="767.5" y2="-253.4"/>
					<line id="Line_88" class="st13" x1="177.2" y1="-251.6" x2="763.4" y2="-203.6"/>
					<line id="Line_89" class="st13" x1="173.1" y1="-201.7" x2="759.3" y2="-153.7"/>
					<line id="Line_90" class="st13" x1="169" y1="-151.9" x2="755.2" y2="-103.9"/>
				</g>
				<path id="Path_86" class="st14" d="M814.8-235.2"/>
				<g id="Group_39" transform="translate(92.063)">
					<path id="Path_87" class="st7" d="M177.4-334.5l-8.2-49.8c-1.3-7.9,4-15.4,11.9-16.7c0,0,0,0,0,0l0,0c7.9-1.3,15.4,4,16.7,11.9
						c0,0,0,0,0,0l3.6,22"/>
					<path id="Path_88" class="st7" d="M172.4-364.7l7.7,46.8c1.8,11.1,12.3,18.6,23.4,16.8c0,0,0,0,0,0l0,0
						c11.1-1.8,18.6-12.3,16.8-23.4c0,0,0,0,0,0l-3.2-19.4"/>
				</g>
			</g>
			<g id="Group_43" transform="translate(81.496 2.851)">
				<path id="Rectangle_14" class="st9" d="M779.7-326.5v311.4c0,20.6-16.7,37.3-37.3,37.3H206.3c-20.6,0-37.3-16.7-37.3-37.3
					v-311.4c0-20.6,16.7-37.3,37.3-37.3h536.1C763-363.8,779.7-347.1,779.7-326.5z"/>
				<line id="Line_91" class="st6" x1="261.9" y1="-368.6" x2="268.5" y2="-342.3"/>
				<path id="Path_89" class="st7" d="M268.3-342.8l1.6,6.2c1.1,4.3-1.5,8.7-5.9,9.8c0,0,0,0,0,0l0,0c-4.3,1.1-8.7-1.6-9.8-5.9
					l-1.6-6.2l-7.7-30.7"/>
				<path id="Rectangle_15" class="st8" d="M768.5-319.4v297.2c0,20.6-16.7,37.3-37.3,37.3H217.6c-20.6,0-37.3-16.7-37.3-37.3
					v-297.2c0-20.6,16.7-37.3,37.3-37.3h513.6C751.8-356.7,768.5-340,768.5-319.4z"/>
				<g id="Group_41" transform="translate(11.301 119.188)">
					<line id="Line_92" class="st12" x1="169" y1="-401.2" x2="757.2" y2="-401.2"/>
					<line id="Line_93" class="st13" x1="169" y1="-351.1" x2="757.2" y2="-351.1"/>
					<line id="Line_94" class="st13" x1="169" y1="-301.1" x2="757.2" y2="-301.1"/>
					<line id="Line_95" class="st13" x1="169" y1="-251.1" x2="757.2" y2="-251.1"/>
					<line id="Line_96" class="st13" x1="169" y1="-201.1" x2="757.2" y2="-201.1"/>
					<line id="Line_97" class="st13" x1="169" y1="-151.1" x2="757.2" y2="-151.1"/>
				</g>
				<g id="Group_299" transform="translate(11.257 44.443)">
					<path id="Rectangle_16" class="st11" d="M757.2-366.7v2H169v-2c-0.1-19,15.2-34.4,34.2-34.5H723
						C742-401.1,757.3-385.6,757.2-366.7z"/>
				</g>
				<path id="Path_90" class="st14" d="M792.2-279.7"/>
				<g id="Group_42" transform="translate(58.92)">
					<path id="Path_91" class="st7" d="M181.7-334.2l-12.3-49c-1.9-7.8,2.8-15.6,10.5-17.6c0,0,0,0,0,0l0,0
						c7.8-1.9,15.6,2.8,17.6,10.5c0,0,0,0,0,0l5.4,21.6"/>
					<path id="Path_92" class="st7" d="M174.2-363.9l11.5,46c2.7,10.9,13.8,17.6,24.7,14.8c0,0,0,0,0,0l0,0
						c10.9-2.7,17.6-13.8,14.8-24.7c0,0,0,0,0,0l-4.8-19.1"/>
				</g>
			</g>
			<text transform="matrix(1 0 0 1 646.5335 -134.6689)" class="st15" style="font-family:'Rubik-Medium'; font-size:48px;">נוהל אפייה</text>
			<text transform="matrix(1 0 0 1 668.084 -86.6689)" class="st15" style="font-family:'Rubik-Medium'; font-size:48px;">ביחידות צה״ל</text>
			<g id="Group_518" transform="translate(335.897 109.908)">
				<ellipse id="Ellipse_10" class="st15" cx="212.3" cy="-358.1" rx="43" ry="43.5"/>
			</g>
		</g>
		<g id="Component_15_2" transform="translate(982.917 991.615)">
			<g id="Group_37-2" transform="translate(0 10.558)">
				<path id="Rectangle_8-2" class="st9" d="M778.2-364.3l48.1,307.7c3.2,20.4-10.7,39.5-31.1,42.6L265.5,68.8
					C245.1,72,226,58.1,222.9,37.7l-48.1-307.7c-3.2-20.4,10.7-39.5,31.1-42.6l529.7-82.8C755.9-398.6,775-384.7,778.2-364.3z"/>
				<line id="Line_77-2" class="st10" x1="260" y1="-325.8" x2="270.6" y2="-300.9"/>
				<path id="Path_81-2" class="st7" d="M270.4-301.4l2.5,5.9c1.7,4.1-0.2,8.9-4.3,10.6l0,0c-4.1,1.7-8.9-0.2-10.6-4.3c0,0,0,0,0,0
					l-2.5-5.9l-12.3-29.1"/>
				<path id="Rectangle_9-2" class="st8" d="M768.2-355.5l45.9,293.6c3.2,20.4-10.7,39.5-31.1,42.6L275.5,60.1
					c-20.4,3.2-39.5-10.7-42.6-31.1L187-264.6c-3.2-20.4,10.7-39.5,31.1-42.6l507.4-79.3C745.9-389.8,765-375.9,768.2-355.5z"/>
				<path id="Rectangle_10-2" class="st11" d="M768-356.7L768-356.7L768-356.7l-581.2,90.9l0,0l0,0c-3.1-19.7,10.4-38.2,30.1-41.3
					l509.8-79.7C746.4-389.9,764.9-376.4,768-356.7z"/>
				<g id="Group_35-2" transform="translate(23.813 82.617)">
					<line id="Line_78-2" class="st12" x1="169" y1="-310.3" x2="750.1" y2="-401.2"/>
					<line id="Line_79-2" class="st13" x1="176.7" y1="-260.9" x2="757.9" y2="-351.7"/>
					<line id="Line_80-2" class="st13" x1="184.4" y1="-211.5" x2="765.6" y2="-302.3"/>
					<line id="Line_81-2" class="st13" x1="192.2" y1="-162" x2="773.3" y2="-252.9"/>
					<line id="Line_82-2" class="st13" x1="199.9" y1="-112.6" x2="781" y2="-203.5"/>
					<line id="Line_83-2" class="st13" x1="207.6" y1="-63.2" x2="788.8" y2="-154.1"/>
				</g>
				<path id="Path_82-2" class="st14" d="M797.7-320"/>
				<g id="Group_36-2" transform="translate(54.513 45.961)">
					<path id="Path_83-2" class="st7" d="M189.8-334.5L170.1-381c-3.1-7.4,0.3-15.9,7.7-19c0,0,0,0,0,0l0,0c7.4-3.1,15.9,0.3,19,7.7
						c0,0,0,0,0,0l8.7,20.5"/>
					<path id="Path_84-2" class="st7" d="M177.9-362.7l18.5,43.7c4.4,10.4,16.4,15.2,26.7,10.8c0,0,0,0,0,0l0,0
						c10.4-4.4,15.2-16.4,10.8-26.7c0,0,0,0,0,0l-7.7-18.1"/>
				</g>
			</g>
			<g id="Group_40-2" transform="translate(111.988)">
				<path id="Rectangle_11-2" class="st9" d="M806.2-282.8L780.8,27.5c-1.7,20.5-19.7,35.8-40.3,34.2L206.2,17.9
					c-20.5-1.7-35.8-19.7-34.2-40.3l25.4-310.4c1.7-20.5,19.7-35.8,40.3-34.2L772-323.1C792.6-321.4,807.9-303.4,806.2-282.8z"/>
				<line id="Line_84-2" class="st6" x1="293.5" y1="-367" x2="297.9" y2="-340.4"/>
				<path id="Path_85-2" class="st7" d="M297.8-340.9l1,6.3c0.7,4.4-2.3,8.6-6.7,9.3l0,0c-4.4,0.7-8.6-2.3-9.3-6.7l-1-6.3l-5.1-31.2
					"/>
				<path id="Rectangle_12-2" class="st8" d="M794.4-276.7L770.1,19.5c-1.7,20.5-19.7,35.8-40.3,34.2L218,11.7
					c-20.5-1.7-35.8-19.7-34.2-40.3l24.3-296.2c1.7-20.5,19.7-35.8,40.3-34.2l511.9,41.9C780.8-315.2,796.1-297.2,794.4-276.7z"/>
				<path id="Rectangle_13-2" class="st11" d="M794.5-277.8L794.5-277.8L794.5-277.8l-586.3-48l0,0l0,0c1.6-19.9,19.1-34.7,39-33.1
					l514.2,42.1C781.3-315.2,796.1-297.7,794.5-277.8z"/>
				<g id="Group_38-2" transform="translate(15.681 113.765)">
					<line id="Line_85-2" class="st12" x1="189.4" y1="-401.2" x2="775.6" y2="-353.1"/>
					<line id="Line_86-2" class="st13" x1="185.3" y1="-351.3" x2="771.6" y2="-303.3"/>
					<line id="Line_87-2" class="st13" x1="181.2" y1="-301.5" x2="767.5" y2="-253.4"/>
					<line id="Line_88-2" class="st13" x1="177.2" y1="-251.6" x2="763.4" y2="-203.6"/>
					<line id="Line_89-2" class="st13" x1="173.1" y1="-201.7" x2="759.3" y2="-153.7"/>
					<line id="Line_90-2" class="st13" x1="169" y1="-151.9" x2="755.2" y2="-103.9"/>
				</g>
				<path id="Path_86-2" class="st14" d="M814.8-235.2"/>
				<g id="Group_39-2" transform="translate(92.063)">
					<path id="Path_87-2" class="st7" d="M177.4-334.5l-8.2-49.8c-1.3-7.9,4-15.4,11.9-16.7c0,0,0,0,0,0l0,0
						c7.9-1.3,15.4,4,16.7,11.9c0,0,0,0,0,0l3.6,22"/>
					<path id="Path_88-2" class="st7" d="M172.4-364.7l7.7,46.8c1.8,11.1,12.3,18.6,23.4,16.8c0,0,0,0,0,0l0,0
						c11.1-1.8,18.6-12.3,16.8-23.4c0,0,0,0,0,0l-3.2-19.4"/>
				</g>
			</g>
			<g id="Group_43-2" transform="translate(81.496 2.851)">
				<path id="Rectangle_14-2" class="st9" d="M779.7-326.5v311.4c0,20.6-16.7,37.3-37.3,37.3H206.3c-20.6,0-37.3-16.7-37.3-37.3
					v-311.4c0-20.6,16.7-37.3,37.3-37.3h536.1C763-363.8,779.7-347.1,779.7-326.5z"/>
				<line id="Line_91-2" class="st6" x1="261.9" y1="-368.6" x2="268.5" y2="-342.3"/>
				<path id="Path_89-2" class="st7" d="M268.3-342.8l1.6,6.2c1.1,4.3-1.5,8.7-5.9,9.8c0,0,0,0,0,0l0,0c-4.3,1.1-8.7-1.6-9.8-5.9
					l-1.6-6.2l-7.7-30.7"/>
				<path id="Rectangle_15-2" class="st8" d="M768.5-319.4v297.2c0,20.6-16.7,37.3-37.3,37.3H217.6c-20.6,0-37.3-16.7-37.3-37.3
					v-297.2c0-20.6,16.7-37.3,37.3-37.3h513.6C751.8-356.7,768.5-340,768.5-319.4z"/>
				<g id="Group_41-2" transform="translate(11.301 119.188)">
					<line id="Line_92-2" class="st12" x1="169" y1="-401.2" x2="757.2" y2="-401.2"/>
					<line id="Line_93-2" class="st13" x1="169" y1="-351.1" x2="757.2" y2="-351.1"/>
					<line id="Line_94-2" class="st13" x1="169" y1="-301.1" x2="757.2" y2="-301.1"/>
					<line id="Line_95-2" class="st13" x1="169" y1="-251.1" x2="757.2" y2="-251.1"/>
					<line id="Line_96-2" class="st13" x1="169" y1="-201.1" x2="757.2" y2="-201.1"/>
					<line id="Line_97-2" class="st13" x1="169" y1="-151.1" x2="757.2" y2="-151.1"/>
				</g>
				<g id="Group_299-2" transform="translate(11.257 44.443)">
					<path id="Rectangle_16-2" class="st11" d="M757.2-366.7v2H169v-2c-0.1-19,15.2-34.4,34.2-34.5H723
						C742-401.1,757.3-385.6,757.2-366.7z"/>
				</g>
				<path id="Path_90-2" class="st14" d="M792.2-279.7"/>
				<g id="Group_42-2" transform="translate(58.92)">
					<path id="Path_91-2" class="st7" d="M181.7-334.2l-12.3-49c-1.9-7.8,2.8-15.6,10.5-17.6c0,0,0,0,0,0l0,0
						c7.8-1.9,15.6,2.8,17.6,10.5c0,0,0,0,0,0l5.4,21.6"/>
					<path id="Path_92-2" class="st7" d="M174.2-363.9l11.5,46c2.7,10.9,13.8,17.6,24.7,14.8c0,0,0,0,0,0l0,0
						c10.9-2.7,17.6-13.8,14.8-24.7c0,0,0,0,0,0l-4.8-19.1"/>
				</g>
			</g>
			<text transform="matrix(1 0 0 1 366.584 -134.2549)" class="st15" style="font-family:'Rubik-Medium'; font-size:48px;">05-02-09</text>
			<text transform="matrix(1 0 0 1 710.4041 -134.2549)" class="st15" style="font-family:'Rubik-Medium'; font-size:48px;">הוראות</text>
			<g id="Group_518-2" transform="translate(335.897 109.908)">
				<circle id="Ellipse_10-2" class="st15" cx="212.3" cy="-358.2" r="43"/>
			</g>
		</g>
		<g id="Component_4_1" transform="translate(126.348 441.028)">
			<g id="Group_37-3" transform="translate(0 10.558)">
				<path id="Rectangle_8-3" class="st9" d="M778.2-364.3l48.1,307.7c3.2,20.4-10.7,39.5-31.1,42.6L265.5,68.8
					C245.1,72,226,58.1,222.9,37.7l-48.1-307.7c-3.2-20.4,10.7-39.5,31.1-42.6l529.7-82.8C755.9-398.6,775-384.7,778.2-364.3z"/>
				<line id="Line_77-3" class="st10" x1="260" y1="-325.8" x2="270.6" y2="-300.9"/>
				<path id="Path_81-3" class="st7" d="M270.4-301.4l2.5,5.9c1.7,4.1-0.2,8.9-4.3,10.6l0,0c-4.1,1.7-8.9-0.2-10.6-4.3c0,0,0,0,0,0
					l-2.5-5.9l-12.3-29.1"/>
				<path id="Rectangle_9-3" class="st8" d="M768.2-355.5l45.9,293.6c3.2,20.4-10.7,39.5-31.1,42.6L275.5,60.1
					c-20.4,3.2-39.5-10.7-42.6-31.1L187-264.6c-3.2-20.4,10.7-39.5,31.1-42.6l507.4-79.3C745.9-389.8,765-375.9,768.2-355.5z"/>
				<path id="Rectangle_10-3" class="st11" d="M768-356.7L768-356.7L768-356.7l-581.2,90.9l0,0l0,0c-3.1-19.7,10.4-38.2,30.1-41.3
					l509.8-79.7C746.4-389.9,764.9-376.4,768-356.7z"/>
				<g id="Group_35-3" transform="translate(23.813 82.617)">
					<line id="Line_78-3" class="st12" x1="169" y1="-310.3" x2="750.1" y2="-401.2"/>
					<line id="Line_79-3" class="st13" x1="176.7" y1="-260.9" x2="757.9" y2="-351.7"/>
					<line id="Line_80-3" class="st13" x1="184.4" y1="-211.5" x2="765.6" y2="-302.3"/>
					<line id="Line_81-3" class="st13" x1="192.2" y1="-162" x2="773.3" y2="-252.9"/>
					<line id="Line_82-3" class="st13" x1="199.9" y1="-112.6" x2="781" y2="-203.5"/>
					<line id="Line_83-3" class="st13" x1="207.6" y1="-63.2" x2="788.8" y2="-154.1"/>
				</g>
				<path id="Path_82-3" class="st14" d="M797.7-320"/>
				<g id="Group_36-3" transform="translate(54.513 45.961)">
					<path id="Path_83-3" class="st7" d="M189.8-334.5L170.1-381c-3.1-7.4,0.3-15.9,7.7-19c0,0,0,0,0,0l0,0c7.4-3.1,15.9,0.3,19,7.7
						c0,0,0,0,0,0l8.7,20.5"/>
					<path id="Path_84-3" class="st7" d="M177.9-362.7l18.5,43.7c4.4,10.4,16.4,15.2,26.7,10.8c0,0,0,0,0,0l0,0
						c10.4-4.4,15.2-16.4,10.8-26.7c0,0,0,0,0,0l-7.7-18.1"/>
				</g>
			</g>
			<g id="Group_40-3" transform="translate(111.988)">
				<path id="Rectangle_11-3" class="st9" d="M806.2-282.8L780.8,27.5c-1.7,20.5-19.7,35.8-40.3,34.2L206.2,17.9
					c-20.5-1.7-35.8-19.7-34.2-40.3l25.4-310.4c1.7-20.5,19.7-35.8,40.3-34.2L772-323.1C792.6-321.4,807.9-303.4,806.2-282.8z"/>
				<line id="Line_84-3" class="st6" x1="293.5" y1="-367" x2="297.9" y2="-340.4"/>
				<path id="Path_85-3" class="st7" d="M297.8-340.9l1,6.3c0.7,4.4-2.3,8.6-6.7,9.3l0,0c-4.4,0.7-8.6-2.3-9.3-6.7l-1-6.3l-5.1-31.2
					"/>
				<path id="Rectangle_12-3" class="st8" d="M794.4-276.7L770.1,19.5c-1.7,20.5-19.7,35.8-40.3,34.2L218,11.7
					c-20.5-1.7-35.8-19.7-34.2-40.3l24.3-296.2c1.7-20.5,19.7-35.8,40.3-34.2l511.9,41.9C780.8-315.2,796.1-297.2,794.4-276.7z"/>
				<path id="Rectangle_13-3" class="st11" d="M794.5-277.8L794.5-277.8L794.5-277.8l-586.3-48l0,0l0,0c1.6-19.9,19.1-34.7,39-33.1
					l514.2,42.1C781.3-315.2,796.1-297.7,794.5-277.8z"/>
				<g id="Group_38-3" transform="translate(15.681 113.765)">
					<line id="Line_85-3" class="st12" x1="189.4" y1="-401.2" x2="775.6" y2="-353.1"/>
					<line id="Line_86-3" class="st13" x1="185.3" y1="-351.3" x2="771.6" y2="-303.3"/>
					<line id="Line_87-3" class="st13" x1="181.2" y1="-301.5" x2="767.5" y2="-253.4"/>
					<line id="Line_88-3" class="st13" x1="177.2" y1="-251.6" x2="763.4" y2="-203.6"/>
					<line id="Line_89-3" class="st13" x1="173.1" y1="-201.7" x2="759.3" y2="-153.7"/>
					<line id="Line_90-3" class="st13" x1="169" y1="-151.9" x2="755.2" y2="-103.9"/>
				</g>
				<path id="Path_86-3" class="st14" d="M814.8-235.2"/>
				<g id="Group_39-3" transform="translate(92.063)">
					<path id="Path_87-3" class="st7" d="M177.4-334.5l-8.2-49.8c-1.3-7.9,4-15.4,11.9-16.7c0,0,0,0,0,0l0,0
						c7.9-1.3,15.4,4,16.7,11.9c0,0,0,0,0,0l3.6,22"/>
					<path id="Path_88-3" class="st7" d="M172.4-364.7l7.7,46.8c1.8,11.1,12.3,18.6,23.4,16.8c0,0,0,0,0,0l0,0
						c11.1-1.8,18.6-12.3,16.8-23.4c0,0,0,0,0,0l-3.2-19.4"/>
				</g>
			</g>
			<g id="Group_43-3" transform="translate(81.496 2.851)">
				<path id="Rectangle_14-3" class="st9" d="M779.7-326.5v311.4c0,20.6-16.7,37.3-37.3,37.3H206.3c-20.6,0-37.3-16.7-37.3-37.3
					v-311.4c0-20.6,16.7-37.3,37.3-37.3h536.1C763-363.8,779.7-347.1,779.7-326.5z"/>
				<line id="Line_91-3" class="st6" x1="261.9" y1="-368.6" x2="268.5" y2="-342.3"/>
				<path id="Path_89-3" class="st7" d="M268.3-342.8l1.6,6.2c1.1,4.3-1.5,8.7-5.9,9.8c0,0,0,0,0,0l0,0c-4.3,1.1-8.7-1.6-9.8-5.9
					l-1.6-6.2l-7.7-30.7"/>
				<path id="Rectangle_15-3" class="st8" d="M768.5-319.4v297.2c0,20.6-16.7,37.3-37.3,37.3H217.6c-20.6,0-37.3-16.7-37.3-37.3
					v-297.2c0-20.6,16.7-37.3,37.3-37.3h513.6C751.8-356.7,768.5-340,768.5-319.4z"/>
				<g id="Group_41-3" transform="translate(11.301 119.188)">
					<line id="Line_92-3" class="st12" x1="169" y1="-401.2" x2="757.2" y2="-401.2"/>
					<line id="Line_93-3" class="st13" x1="169" y1="-351.1" x2="757.2" y2="-351.1"/>
					<line id="Line_94-3" class="st13" x1="169" y1="-301.1" x2="757.2" y2="-301.1"/>
					<line id="Line_95-3" class="st13" x1="169" y1="-251.1" x2="757.2" y2="-251.1"/>
					<line id="Line_96-3" class="st13" x1="169" y1="-201.1" x2="757.2" y2="-201.1"/>
					<line id="Line_97-3" class="st13" x1="169" y1="-151.1" x2="757.2" y2="-151.1"/>
				</g>
				<g id="Group_299-3" transform="translate(11.257 44.443)">
					<path id="Rectangle_16-3" class="st11" d="M757.2-366.7v2H169v-2c-0.1-19,15.2-34.4,34.2-34.5H723
						C742-401.1,757.3-385.6,757.2-366.7z"/>
				</g>
				<path id="Path_90-3" class="st14" d="M792.2-279.7"/>
				<g id="Group_42-3" transform="translate(58.92)">
					<path id="Path_91-3" class="st7" d="M181.7-334.2l-12.3-49c-1.9-7.8,2.8-15.6,10.5-17.6c0,0,0,0,0,0l0,0
						c7.8-1.9,15.6,2.8,17.6,10.5c0,0,0,0,0,0l5.4,21.6"/>
					<path id="Path_92-3" class="st7" d="M174.2-363.9l11.5,46c2.7,10.9,13.8,17.6,24.7,14.8c0,0,0,0,0,0l0,0
						c10.9-2.7,17.6-13.8,14.8-24.7c0,0,0,0,0,0l-4.8-19.1"/>
				</g>
			</g>
			<text transform="matrix(1 0 0 1 656.7108 -135.6689)" class="st15" style="font-family:'Rubik-Medium'; font-size:48px;">נוהל כשרות</text>
			<text transform="matrix(1 0 0 1 649.4149 -87.6689)" class="st15" style="font-family:'Rubik-Medium'; font-size:48px;">המזון בשבת</text>
			<g id="Group_443" transform="translate(349.639 112.656)">
				<g id="Group_429" transform="translate(0)">
					<circle id="Ellipse_10-3" class="st15" cx="212.1" cy="-358.3" r="43"/>
				</g>
				<g id="Group_442" transform="translate(25.26 15.321)">
					<ellipse id="Ellipse_11" class="st8" cx="186.7" cy="-353.3" rx="17.8" ry="7.2"/>
					<rect id="Rectangle_56" x="169" y="-369.3" class="st8" width="35.5" height="17.1"/>
					<ellipse id="Ellipse_12" class="st15" cx="186.7" cy="-369.2" rx="17.8" ry="7.2"/>
					<g id="Group_442-2" transform="translate(15.335 22.943)">
						<path id="Rectangle_57" class="st8" d="M170.9-401.2L170.9-401.2c1.1,0,1.9,0.9,1.9,1.9v6.3c0,1.1-0.9,1.9-1.9,1.9l0,0
							c-1.1,0-1.9-0.9-1.9-1.9v-6.3C169-400.3,169.8-401.2,170.9-401.2z"/>
					</g>
					<ellipse id="Ellipse_13" class="st8" cx="186.3" cy="-389.2" rx="6.9" ry="6.9"/>
					<path id="Path_492" class="st8" d="M192.3-392.8c0,0-4.3-6.2-4.1-8.4c0,0-8.9,6.5-8.9,11.7"/>
					<path id="Path_493" class="st15" d="M186.3-391.5c2.1,0,3.8,2,3.3,4.2c-0.3,1.2-1.3,2.2-2.5,2.5c-2.2,0.5-4.2-1.2-4.2-3.3
						C182.9-390,184.4-391.5,186.3-391.5C186.3-391.5,186.3-391.5,186.3-391.5z"/>
				</g>
			</g>
			<g id="Group_430" transform="translate(345.107 169.284)">
				<path id="Rectangle_48" class="st16" d="M187.9-401.2L187.9-401.2c10.4,0,18.9,8.5,18.9,18.9v0c0,10.4-8.5,18.9-18.9,18.9h0
					c-10.4,0-18.9-8.5-18.9-18.9v0C169-392.7,177.4-401.2,187.9-401.2z"/>
				<g id="Group_367" transform="translate(10.603 12.555)">
					<g id="Group_365" transform="translate(0 0)">
						<path id="Path_474" class="st17" d="M185.7-401.2l-12.7,12.7l-3.9-3.9"/>
					</g>
				</g>
			</g>
		</g>
		<g id="Component_15_3" transform="translate(126.348 991.615)">
			<g id="Group_37-4" transform="translate(0 10.558)">
				<path id="Rectangle_8-4" class="st9" d="M778.2-364.3l48.1,307.7c3.2,20.4-10.7,39.5-31.1,42.6L265.5,68.8
					C245.1,72,226,58.1,222.9,37.7l-48.1-307.7c-3.2-20.4,10.7-39.5,31.1-42.6l529.7-82.8C755.9-398.6,775-384.7,778.2-364.3z"/>
				<line id="Line_77-4" class="st10" x1="260" y1="-325.8" x2="270.6" y2="-300.9"/>
				<path id="Path_81-4" class="st7" d="M270.4-301.4l2.5,5.9c1.7,4.1-0.2,8.9-4.3,10.6l0,0c-4.1,1.7-8.9-0.2-10.6-4.3c0,0,0,0,0,0
					l-2.5-5.9l-12.3-29.1"/>
				<path id="Rectangle_9-4" class="st8" d="M768.2-355.5l45.9,293.6c3.2,20.4-10.7,39.5-31.1,42.6L275.5,60.1
					c-20.4,3.2-39.5-10.7-42.6-31.1L187-264.6c-3.2-20.4,10.7-39.5,31.1-42.6l507.4-79.3C745.9-389.8,765-375.9,768.2-355.5z"/>
				<path id="Rectangle_10-4" class="st11" d="M768-356.7L768-356.7L768-356.7l-581.2,90.9l0,0l0,0c-3.1-19.7,10.4-38.2,30.1-41.3
					l509.8-79.7C746.4-389.9,764.9-376.4,768-356.7z"/>
				<g id="Group_35-4" transform="translate(23.813 82.617)">
					<line id="Line_78-4" class="st12" x1="169" y1="-310.3" x2="750.1" y2="-401.2"/>
					<line id="Line_79-4" class="st13" x1="176.7" y1="-260.9" x2="757.9" y2="-351.7"/>
					<line id="Line_80-4" class="st13" x1="184.4" y1="-211.5" x2="765.6" y2="-302.3"/>
					<line id="Line_81-4" class="st13" x1="192.2" y1="-162" x2="773.3" y2="-252.9"/>
					<line id="Line_82-4" class="st13" x1="199.9" y1="-112.6" x2="781" y2="-203.5"/>
					<line id="Line_83-4" class="st13" x1="207.6" y1="-63.2" x2="788.8" y2="-154.1"/>
				</g>
				<path id="Path_82-4" class="st14" d="M797.7-320"/>
				<g id="Group_36-4" transform="translate(54.513 45.961)">
					<path id="Path_83-4" class="st7" d="M189.8-334.5L170.1-381c-3.1-7.4,0.3-15.9,7.7-19c0,0,0,0,0,0l0,0c7.4-3.1,15.9,0.3,19,7.7
						c0,0,0,0,0,0l8.7,20.5"/>
					<path id="Path_84-4" class="st7" d="M177.9-362.7l18.5,43.7c4.4,10.4,16.4,15.2,26.7,10.8c0,0,0,0,0,0l0,0
						c10.4-4.4,15.2-16.4,10.8-26.7c0,0,0,0,0,0l-7.7-18.1"/>
				</g>
			</g>
			<g id="Group_40-4" transform="translate(111.988)">
				<path id="Rectangle_11-4" class="st9" d="M806.2-282.8L780.8,27.5c-1.7,20.5-19.7,35.8-40.3,34.2L206.2,17.9
					c-20.5-1.7-35.8-19.7-34.2-40.3l25.4-310.4c1.7-20.5,19.7-35.8,40.3-34.2L772-323.1C792.6-321.4,807.9-303.4,806.2-282.8z"/>
				<line id="Line_84-4" class="st6" x1="293.5" y1="-367" x2="297.9" y2="-340.4"/>
				<path id="Path_85-4" class="st7" d="M297.8-340.9l1,6.3c0.7,4.4-2.3,8.6-6.7,9.3l0,0c-4.4,0.7-8.6-2.3-9.3-6.7l-1-6.3l-5.1-31.2
					"/>
				<path id="Rectangle_12-4" class="st8" d="M794.4-276.7L770.1,19.5c-1.7,20.5-19.7,35.8-40.3,34.2L218,11.7
					c-20.5-1.7-35.8-19.7-34.2-40.3l24.3-296.2c1.7-20.5,19.7-35.8,40.3-34.2l511.9,41.9C780.8-315.2,796.1-297.2,794.4-276.7z"/>
				<path id="Rectangle_13-4" class="st11" d="M794.5-277.8L794.5-277.8L794.5-277.8l-586.3-48l0,0l0,0c1.6-19.9,19.1-34.7,39-33.1
					l514.2,42.1C781.3-315.2,796.1-297.7,794.5-277.8z"/>
				<g id="Group_38-4" transform="translate(15.681 113.765)">
					<line id="Line_85-4" class="st12" x1="189.4" y1="-401.2" x2="775.6" y2="-353.1"/>
					<line id="Line_86-4" class="st13" x1="185.3" y1="-351.3" x2="771.6" y2="-303.3"/>
					<line id="Line_87-4" class="st13" x1="181.2" y1="-301.5" x2="767.5" y2="-253.4"/>
					<line id="Line_88-4" class="st13" x1="177.2" y1="-251.6" x2="763.4" y2="-203.6"/>
					<line id="Line_89-4" class="st13" x1="173.1" y1="-201.7" x2="759.3" y2="-153.7"/>
					<line id="Line_90-4" class="st13" x1="169" y1="-151.9" x2="755.2" y2="-103.9"/>
				</g>
				<path id="Path_86-4" class="st14" d="M814.8-235.2"/>
				<g id="Group_39-4" transform="translate(92.063)">
					<path id="Path_87-4" class="st7" d="M177.4-334.5l-8.2-49.8c-1.3-7.9,4-15.4,11.9-16.7c0,0,0,0,0,0l0,0
						c7.9-1.3,15.4,4,16.7,11.9c0,0,0,0,0,0l3.6,22"/>
					<path id="Path_88-4" class="st7" d="M172.4-364.7l7.7,46.8c1.8,11.1,12.3,18.6,23.4,16.8c0,0,0,0,0,0l0,0
						c11.1-1.8,18.6-12.3,16.8-23.4c0,0,0,0,0,0l-3.2-19.4"/>
				</g>
			</g>
			<g id="Group_43-4" transform="translate(81.496 2.851)">
				<path id="Rectangle_14-4" class="st9" d="M779.7-326.5v311.4c0,20.6-16.7,37.3-37.3,37.3H206.3c-20.6,0-37.3-16.7-37.3-37.3
					v-311.4c0-20.6,16.7-37.3,37.3-37.3h536.1C763-363.8,779.7-347.1,779.7-326.5z"/>
				<line id="Line_91-4" class="st6" x1="261.9" y1="-368.6" x2="268.5" y2="-342.3"/>
				<path id="Path_89-4" class="st7" d="M268.3-342.8l1.6,6.2c1.1,4.3-1.5,8.7-5.9,9.8c0,0,0,0,0,0l0,0c-4.3,1.1-8.7-1.6-9.8-5.9
					l-1.6-6.2l-7.7-30.7"/>
				<path id="Rectangle_15-4" class="st8" d="M768.5-319.4v297.2c0,20.6-16.7,37.3-37.3,37.3H217.6c-20.6,0-37.3-16.7-37.3-37.3
					v-297.2c0-20.6,16.7-37.3,37.3-37.3h513.6C751.8-356.7,768.5-340,768.5-319.4z"/>
				<g id="Group_41-4" transform="translate(11.301 119.188)">
					<line id="Line_92-4" class="st12" x1="169" y1="-401.2" x2="757.2" y2="-401.2"/>
					<line id="Line_93-4" class="st13" x1="169" y1="-351.1" x2="757.2" y2="-351.1"/>
					<line id="Line_94-4" class="st13" x1="169" y1="-301.1" x2="757.2" y2="-301.1"/>
					<line id="Line_95-4" class="st13" x1="169" y1="-251.1" x2="757.2" y2="-251.1"/>
					<line id="Line_96-4" class="st13" x1="169" y1="-201.1" x2="757.2" y2="-201.1"/>
					<line id="Line_97-4" class="st13" x1="169" y1="-151.1" x2="757.2" y2="-151.1"/>
				</g>
				<g id="Group_299-4" transform="translate(11.257 44.443)">
					<path id="Rectangle_16-4" class="st11" d="M757.2-366.7v2H169v-2c-0.1-19,15.2-34.4,34.2-34.5H723
						C742-401.1,757.3-385.6,757.2-366.7z"/>
				</g>
				<path id="Path_90-4" class="st14" d="M792.2-279.7"/>
				<g id="Group_42-4" transform="translate(58.92)">
					<path id="Path_91-4" class="st7" d="M181.7-334.2l-12.3-49c-1.9-7.8,2.8-15.6,10.5-17.6c0,0,0,0,0,0l0,0
						c7.8-1.9,15.6,2.8,17.6,10.5c0,0,0,0,0,0l5.4,21.6"/>
					<path id="Path_92-4" class="st7" d="M174.2-363.9l11.5,46c2.7,10.9,13.8,17.6,24.7,14.8c0,0,0,0,0,0l0,0
						c10.9-2.7,17.6-13.8,14.8-24.7c0,0,0,0,0,0l-4.8-19.1"/>
				</g>
			</g>
			<text transform="matrix(1 0 0 1 707.8037 -134.2549)" class="st15" style="font-family:'Rubik-Medium'; font-size:48px;">נוהל ברירת וניפוי</text>
			<text transform="matrix(1 0 0 1 627.0461 -86.2549)" class="st15" style="font-family:'Rubik-Medium'; font-size:48px;">מוצרי מזון</text>
			<g id="Group_518-3" transform="translate(335.897 109.908)">
				<circle id="Ellipse_10-4" class="st15" cx="211.8" cy="-358.2" r="43"/>
			</g>
		</g>
	</g>
	
		<linearGradient id="Path_494_1_" gradientUnits="userSpaceOnUse" x1="446.3408" y1="758.223" x2="446.3438" y2="757.439" gradientTransform="matrix(1920 0 0 -206.258 -855845.3125 156964.25)">
		<stop  offset="0" style="stop-color:#27C5F2;stop-opacity:0"/>
		<stop  offset="1" style="stop-color:#27C5F2;stop-opacity:0.545"/>
	</linearGradient>
	<path id="Path_494" class="st18" d="M169,471.6h1920v206.3H169V471.6z"/>
	<g id="Group_542" transform="translate(344.758 -776.851)" class="st1">
		<g id="Group_54" transform="translate(656.482 1704.528)">
			<g id="practice_btn">
				<path id="Rectangle_23" class="st19" d="M192-388.2h345.2c12.7,0,23,10.3,23,23v51.9c0,12.7-10.3,23-23,23H192
					c-12.7,0-23-10.3-23-23v-51.9C169-377.9,179.3-388.2,192-388.2z"/>
				<path id="Rectangle_19" class="st8" d="M192-401.2h345.2c12.7,0,23,10.3,23,23v51.9c0,12.7-10.3,23-23,23H192
					c-12.7,0-23-10.3-23-23v-51.9C169-390.9,179.3-401.2,192-401.2z"/>
				<g id="Group_293" transform="translate(99.269 17)">
					<text transform="matrix(1 0 0 1 268.6206 -350.8439)" class="st15" style="font-family:'Rubik-Bold'; font-size:53px;">תרגול</text>
					<g id="Group_285" transform="translate(156.742 7.111)">
						<g id="Group_292">
							<g id="Group_290" transform="translate(0 23.438)">
								<path id="Path_453" class="st15" d="M177.7-399.8c1.8,1.8,1.8,4.8,0,6.6l-6.4,2c-0.9,0.3-1.9-0.2-2.2-1.2
									c-0.1-0.3-0.1-0.7,0-1.1l2-6.4C172.9-401.6,175.9-401.6,177.7-399.8C177.7-399.8,177.7-399.8,177.7-399.8z"/>
							</g>
							<g id="Group_291">
								<path id="Path_454" class="st20" d="M171-374.9L171-374.9l24.9-24.9c1.8-1.8,4.8-1.8,6.6,0s1.8,4.8,0,6.6l-24.8,24.8
									l-0.1,0.1"/>
								<path id="Path_455" class="st20" d="M171.1-375c1.8-1.9,4.8-1.9,6.6-0.1c1.9,1.8,1.9,4.8,0.1,6.6c0,0-0.1,0.1-0.1,0.1
									l-6.4,2c-0.9,0.3-1.9-0.2-2.2-1.2c-0.1-0.3-0.1-0.7,0-1.1L171.1-375z"/>
							</g>
						</g>
						<path id="Path_456" class="st20" d="M203.7-353.4l-4.2-3.6c-3.2-2.7-7-2-9.2,1.7l0,0c-2.3,3.8-6.2,4.4-9.5,1.5l-4.5-4"/>
					</g>
				</g>
			</g>
			<g id="exam_btn">
				<path id="Rectangle_25" class="st19" d="M-282.3-388.2H62.9c12.7,0,23,10.3,23,23v51.9c0,12.7-10.3,23-23,23h-345.2
					c-12.7,0-23-10.3-23-23v-51.9C-305.3-377.9-295-388.2-282.3-388.2z"/>
				<path id="Rectangle_24" class="st8" d="M-282.3-401.2H62.9c12.7,0,23,10.3,23,23v51.9c0,12.7-10.3,23-23,23h-345.2
					c-12.7,0-23-10.3-23-23v-51.9C-305.3-390.9-295-401.2-282.3-401.2z"/>
				<g id="Group_541-2" transform="translate(-474.314)">
					<text transform="matrix(1 0 0 1 354.2392 -333.8449)" class="st15" style="font-family:'Rubik-Bold'; font-size:53px;">מבחן</text>
					<g id="Group_296" transform="translate(244.565 23.363)">
						<path id="Path_457" class="st20" d="M193.5-350.2l-22-4c-1.4-0.3-2.5-1.5-2.5-2.9V-390c0-1.7,1.3-3,3-3c0.2,0,0.4,0,0.5,0
							l22,4c1.4,0.3,2.5,1.5,2.5,2.9v32.9c0,1.6-1.3,3-3,3C193.8-350.2,193.7-350.2,193.5-350.2z"/>
						<path id="Path_458" class="st20" d="M176.6-401.2l25.6,4.6c1.4,0.3,2.5,1.5,2.5,2.9v36.4"/>
						<g id="Group_295" transform="translate(7.03 15.235)">
							<g id="Group_294">
								<line id="Line_99" class="st20" x1="169" y1="-401.2" x2="182.9" y2="-398.6"/>
								<line id="Line_100" class="st20" x1="169" y1="-392.6" x2="182.9" y2="-390.1"/>
								<line id="Line_101" class="st20" x1="169" y1="-384.1" x2="182.9" y2="-381.5"/>
								<line id="Line_102" class="st20" x1="169" y1="-375.6" x2="182.9" y2="-373"/>
							</g>
						</g>
					</g>
				</g>
			</g>
		</g>
	</g>
	<g id="Group_444" transform="translate(834.572 -33.428)" class="st1">
		<g id="Group_540-2">
			<g id="Group_445" transform="translate(997.664 87.495)" class="st21">
				<g id="Group_372" transform="translate(0 0)">
					<path id="Path_489" class="st22" d="M194.8-401.2l17.5,17.2l-17.5,17.2"/>
					<path id="Path_490" class="st23" d="M211.4-384H169"/>
				</g>
			</g>
			<g id="Group_440" transform="translate(998.638 87.915)">
				<g id="Group_372-2">
					<path id="Path_489-2" class="st24" d="M194.4-401.2l16.8,16.8l-16.8,16.8"/>
					<path id="Path_490-2" class="st25" d="M211.2-384.4H169"/>
				</g>
			</g>
		</g>
		<rect id="Rectangle_58" x="1154.4" y="-331.7" class="st26" width="72" height="72"/>
	</g>
</g>
<g id="Group_442_1_" transform="translate(25.26 15.321)">
	<ellipse id="Ellipse_11_1_" class="st8" cx="-7.5" cy="32.6" rx="17.8" ry="7.2"/>
	<rect id="Rectangle_56_1_" x="-25.3" y="16.5" class="st8" width="35.5" height="17.1"/>
	<ellipse id="Ellipse_12_1_" class="st15" cx="-7.5" cy="16.6" rx="17.8" ry="7.2"/>
	<g id="Group_442-2_1_" transform="translate(15.335 22.943)">
		<path id="Rectangle_57_1_" class="st8" d="M-23.3-15.3L-23.3-15.3c1.1,0,1.9,0.9,1.9,1.9v6.3c0,1.1-0.9,1.9-1.9,1.9l0,0
			c-1.1,0-1.9-0.9-1.9-1.9v-6.3C-25.3-14.5-24.4-15.3-23.3-15.3z"/>
	</g>
	<ellipse id="Ellipse_13_1_" class="st8" cx="-8" cy="-3.4" rx="6.9" ry="6.9"/>
	<path id="Path_492_1_" class="st8" d="M-2-6.9c0,0-4.3-6.2-4.1-8.4c0,0-8.9,6.5-8.9,11.7"/>
	<path id="Path_493_1_" class="st15" d="M-8-5.7c2.1,0,3.8,2,3.3,4.2C-4.9-0.3-5.9,0.7-7.2,1c-2.2,0.5-4.2-1.2-4.2-3.3
		C-11.4-4.2-9.8-5.7-8-5.7C-8-5.7-8-5.7-8-5.7z"/>
</g>
</svg>
