<svg xmlns="http://www.w3.org/2000/svg" xmlns:xlink="http://www.w3.org/1999/xlink" width="1920" height="1080" viewBox="0 0 1920 1080">
  <defs>
    <style>
      .cls-1, .cls-11, .cls-12, .cls-14, .cls-15, .cls-16, .cls-18, .cls-22, .cls-23, .cls-24, .cls-25, .cls-26, .cls-32, .cls-33, .cls-7 {
        fill: none;
      }

      .cls-1, .cls-2 {
        stroke: #707070;
      }

      .cls-1, .cls-11, .cls-12, .cls-18, .cls-22, .cls-7 {
        stroke-width: 4px;
      }

      .cls-2, .cls-20, .cls-21, .cls-8 {
        fill: #fff;
      }

      .cls-3 {
        clip-path: url(#clip-opening);
      }

      .cls-17, .cls-19, .cls-4 {
        fill: #20c5f2;
      }

      .cls-14, .cls-15, .cls-25, .cls-26, .cls-5 {
        opacity: 0.1;
      }

      .cls-6 {
        clip-path: url(#clip-path);
      }

      .cls-22, .cls-23, .cls-7 {
        stroke: #fff;
      }

      .cls-11, .cls-14, .cls-15, .cls-16, .cls-18, .cls-24, .cls-25, .cls-26, .cls-32, .cls-7 {
        stroke-miterlimit: 10;
      }

      .cls-27, .cls-28, .cls-9 {
        fill: #1c3f55;
      }

      .cls-9 {
        font-size: 66px;
      }

      .cls-20, .cls-27, .cls-9 {
        font-family: Rubik-Bold, Rubik;
        font-weight: 700;
      }

      .cls-10 {
        fill: #0facd1;
      }

      .cls-11, .cls-12, .cls-18, .cls-24, .cls-32, .cls-33 {
        stroke: #708fa0;
      }

      .cls-12, .cls-18, .cls-22, .cls-23, .cls-24, .cls-33 {
        stroke-linecap: round;
      }

      .cls-12, .cls-22, .cls-23, .cls-33 {
        stroke-linejoin: round;
      }

      .cls-13 {
        fill: #1de8f7;
      }

      .cls-14, .cls-25 {
        stroke: #ef4230;
      }

      .cls-14, .cls-15, .cls-23 {
        stroke-width: 5px;
      }

      .cls-15, .cls-26 {
        stroke: #26a6e0;
      }

      .cls-16 {
        stroke: #b3b3b3;
      }

      .cls-16, .cls-24 {
        stroke-width: 8px;
      }

      .cls-17 {
        opacity: 0.15;
      }

      .cls-19 {
        opacity: 0.2;
      }

      .cls-20 {
        font-size: 74px;
      }

      .cls-21 {
        font-size: 44px;
      }

      .cls-21, .cls-28 {
        font-family: Rubik-Regular, Rubik;
      }

      .cls-25, .cls-26, .cls-32, .cls-33 {
        stroke-width: 7px;
      }

      .cls-27 {
        font-size: 49px;
      }

      .cls-28 {
        font-size: 36px;
      }

      .cls-29 {
        clip-path: url(#clip-path-2);
      }

      .cls-30 {
        opacity: 0.05;
      }

      .cls-31 {
        fill: #282828;
      }
    </style>
    <clipPath id="clip-path">
      <rect id="Rectangle_2" data-name="Rectangle 2" class="cls-1" width="1080" height="1920" transform="translate(1080.11 -1996.931)"/>
    </clipPath>
    <clipPath id="clip-path-2">
      <rect id="Rectangle_54" data-name="Rectangle 54" class="cls-2" width="655.526" height="1177.29" transform="translate(0 0)"/>
    </clipPath>
    <clipPath id="clip-opening">
      <rect width="1920" height="1080"/>
    </clipPath>
  </defs>
  <g id="opening" class="cls-3">
    <rect class="cls-8" width="1920" height="1080"/>
    <g id="רקע" transform="translate(1920.275 0.165) rotate(90)">
      <path id="Path_32" data-name="Path 32" class="cls-4" d="M0,0H1080V1920H0Z"/>
      <g id="Group_3" data-name="Group 3" class="cls-5" transform="translate(-1080 1997.371)">
        <g id="Group_2" data-name="Group 2" class="cls-6">
          <g id="Group_1" data-name="Group 1">
            <path id="Path_1" data-name="Path 1" class="cls-7" d="M1257.6-450.1c-30.532-116.746-15.984-240.09,2.014-359.412,2.632-17.449,5.574-35.522,15.425-50.162s28.693-24.8,45.368-19.032c20.631,7.143,27.145,32.647,29.93,54.3a1122.165,1122.165,0,0,1-26.2,421.645c-3.425,13.3-9.451,28.853-22.938,31.466-10.827,2.1-21.477-5.992-26.361-15.88s-5.477-21.25-6.688-32.212-3.4-22.454-10.639-30.776"/>
            <path id="Path_2" data-name="Path 2" class="cls-7" d="M1263.765-283.708c-8.964-14.094-49.17-127.112-56.48-194.733s-5.4-135.882-2.16-203.82c4.407-92.332,11.545-185.928,42.883-272.892,8.929-24.78,25.026-52.671,51.349-53.6,24.141-.852,42.027,21.9,52.858,43.491,46.429,92.563,41.859,201.409,36.226,304.81-5.471,100.426-10.971,201.113-27.874,300.257-4.277,25.088-10.016,51.524-27.6,69.926S1272.729-269.614,1263.765-283.708Z"/>
            <path id="Path_3" data-name="Path 3" class="cls-7" d="M1168.568-636.032c3.405-109.235,10.345-218.619,28.244-326.541,7.713-46.5,17.776-93.557,41.167-134.48,12.322-21.557,30.6-42.508,55.161-46.13s48.844,11.784,62.893,32.27,19.9,45.339,25.29,69.589c7.689,34.62,15,69.358,20.255,104.441,2.627,17.522,4.637,35.1,6.144,52.751,1.109,12.974,5.486,25.187,5.728,38.123,1.362,73.022-4.278,144.61,7.057,217.336,8.364,53.666,23.9,106.729,22.893,161.034-.954,51.522-16.779,101.543-34.37,149.978-10.717,29.507-22.145,58.75-33.572,87.99-9.037,23.125-18.565,47.006-36.368,64.311s-46.352,26.182-68.022,14.065c-18.47-10.328-25.954-31.173-33.97-49.463-9.935-22.671-18.353-46.086-26.118-69.583a986.915,986.915,0,0,1-36.765-149.57c-5.46-33.215-11.593-67.715-8.273-101.12C1169.695-558.794,1167.385-598.065,1168.568-636.032Z"/>
            <path id="Path_4" data-name="Path 4" class="cls-7" d="M1336.563-63.338c63.422-102.526,128.185-208.552,147.259-327.59,14.506-90.533,1.568-182.956-11.372-273.726-23.584-165.43-47.251-331.281-89.412-492.977-11.195-42.935-29.585-91.83-72.058-104.668-34.246-10.351-71.971,8.852-93.7,37.272s-30.8,64.29-38.53,99.221c-77.9,351.9-71.451,722.366,20.2,1070.94"/>
            <path id="Path_5" data-name="Path 5" class="cls-7" d="M1440.548-60.076c125.831-179.54,146.322-414.1,119.205-631.663s-96.907-427.48-136.163-643.181c-15.233-83.7-25.741-170.67-5.011-253.182,18.514-73.694,60.658-138.83,92.591-207.778s53.882-148.483,29.308-220.383"/>
            <path id="Path_6" data-name="Path 6" class="cls-7" d="M1558.62-60.766c65.654-141.963,90.308-300.69,86.146-457.044s-36.321-310.856-80.045-461.03c-28.392-97.517-61.763-193.863-80.958-293.6s-23.717-204.392,5.42-301.69c26.057-87.01,77.5-163.795,117.633-245.275s69.529-174.493,47.1-262.509"/>
            <path id="Path_7" data-name="Path 7" class="cls-7" d="M2184.033-395.464c-32.14-91.146-64.545-183.478-73.034-279.75s9.4-198.5,69.05-274.533"/>
            <path id="Path_8" data-name="Path 8" class="cls-7" d="M2166.7-139.508c-151.477-379.231-146.453-818.3,13.66-1193.964"/>
            <path id="Path_9" data-name="Path 9" class="cls-7" d="M2120.036-42.6c-57.412-176.632-115.311-355.826-124.423-541.331-8.2-166.938,23.424-332.89,49.97-497.908,50.7-315.174,81.907-646.339-25.825-946.838"/>
            <path id="Path_10" data-name="Path 10" class="cls-7" d="M2093.03-2018.665c-1.722,111.041,42.765,222.086,120.675,301.225"/>
            <path id="Path_11" data-name="Path 11" class="cls-7" d="M1734.96-2018.852c-12.287,178.86-70.886,353.548-68.1,532.809,1.768,113.981,28.34,225.88,47.534,338.248,64.62,378.317,45.223,770.75-56.39,1140.85"/>
            <path id="Path_12" data-name="Path 12" class="cls-7" d="M1718.292-2009.268c-85,236.3-171.329,482.724-144.526,732.409,16.382,152.609,74.489,297.73,99.982,449.084,45.561,270.5-14.663,546.675-81.237,812.787"/>
            <path id="Path_13" data-name="Path 13" class="cls-7" d="M1745.3-64.817c-7.12-288.268,198.928-559.629,153.036-844.31-32.355-200.705-187.314-374.387-181.832-577.609,5.129-190.133,151.611-358.342,142.313-548.318"/>
            <path id="Path_14" data-name="Path 14" class="cls-7" d="M1818.476-626.02c14.58,6.365,51.629-203.376,20.3-301.713-2.521-7.91-5.442-16.013-11.211-21.983s-15.157-9.225-22.609-5.567c-9.394,4.612-11.313,16.935-11.965,27.38a2265.961,2265.961,0,0,0-2.609,231.159C1791.5-668.609,1803.9-632.386,1818.476-626.02Z"/>
            <path id="Path_15" data-name="Path 15" class="cls-7" d="M1813.417-66.442c26.464-181.286,75.309-358.475,111.167-538.139,48.027-240.642,72.71-485.879,74.8-731.257,2.034-239.4-17.419-478.889-56.008-715.167"/>
            <path id="Path_16" data-name="Path 16" class="cls-7" d="M1857.417-50.912c14.251-53.509,28.549-107.161,48.919-158.652,9.3-23.506,24.881-50.1,50.15-50.829,15.948-.46,30.466,10.522,38.762,24.152s11.538,29.646,14.642,45.3Q2026-109.737,2042.1-28.529"/>
            <path id="Path_17" data-name="Path 17" class="cls-7" d="M1923.532-51.617a512.986,512.986,0,0,1,20.554-139.694c2.36-8.075,6.7-17.587,15.094-18.171,11.164-.777,15.592,14.058,16.092,25.238q3.844,86.108-.691,172.317"/>
            <path id="Path_18" data-name="Path 18" class="cls-7" d="M1911.563-1769.445c58.447.7,19.039,305.237,28.558,457.855,1.465,23.473,2.777,47.914-6.281,69.618s-31.834,39.624-54.894,35.007c-20.035-4.011-33.356-22.694-43.3-40.542a444.744,444.744,0,0,1-51.507-276.076C1797.388-1617.928,1853.115-1770.143,1911.563-1769.445Z"/>
            <path id="Path_19" data-name="Path 19" class="cls-7" d="M1851.473-1319.31a396.34,396.34,0,0,1-33.924-230.583c2.5-16.018,6.175-32.34,15.336-45.715s24.934-23.291,41.028-21.341c17.721,2.147,31.282,18.06,36.27,35.2s3.147,35.426,1.262,53.176q-9.594,90.379-19.19,180.758c-.923,8.694-1.9,17.581-5.653,25.477s-10.882,14.752-19.57,15.736S1851.473-1319.31,1851.473-1319.31Z"/>
            <path id="Path_20" data-name="Path 20" class="cls-7" d="M1060.712-954.877c21.558-112.081,45.07-228.647,114.526-319.217,36.179-47.176,83.276-85.013,120.287-131.539s64.082-107.016,49.842-164.737c-11.433-46.346-46.933-82.161-79.074-117.455-75.092-82.455-139.045-174.847-191.839-273.084"/>
            <path id="Path_21" data-name="Path 21" class="cls-7" d="M1153.026-2042.315c5.409,56.8,25.474,111.426,51.962,161.963s59.369,97.4,92.15,144.1c10.326,14.71,21.4,30.058,37.693,37.632,22.955,10.668,51.141,2.751,70.835-13.152,26.231-21.182,40.109-53.9,50.294-86.044a612.3,612.3,0,0,0,26.256-236.811"/>
          </g>
          <path id="Path_22" data-name="Path 22" class="cls-7" d="M1786.884-1295.337a505.5,505.5,0,0,1-26.37-265.553c11.452-66.817,36.249-130.5,60.9-193.656q28.614-73.323,57.23-146.647c4.393-11.256,10.36-23.965,22.078-26.911,9.978-2.509,20.522,3.632,26.309,12.139s7.843,18.933,9.7,29.051a2298.97,2298.97,0,0,1,8.469,780.276c-3.352,20.756-11.7,46.2-32.586,48.573-20.748,2.358-34.585-20.234-42.888-39.393C1842.037-1161.351,1786.884-1295.337,1786.884-1295.337Z"/>
          <path id="Path_23" data-name="Path 23" class="cls-7" d="M1506.451-67.98C1592.2-275.226,1644.755-503.9,1603-724.268c-21.805-115.068-68.449-223.754-101.15-336.211a1425.442,1425.442,0,0,1-56.6-399.664c.121-74.363,6.333-149.882,32.546-219.473,21.757-57.761,56.581-109.6,82.933-165.417s44.3-119.242,29.235-179.1"/>
          <path id="Path_24" data-name="Path 24" class="cls-7" d="M1056.075-1284.478c19.761-31.374,52.234-52.473,85.369-69.113s68.158-29.966,98.829-50.8,57.371-51.015,63.576-87.571c4.824-28.414-3.336-57.939-17.98-82.762s-35.405-45.465-57.232-64.285c-73.509-63.383-163.594-111.54-215.507-193.552"/>
          <path id="Path_25" data-name="Path 25" class="cls-7" d="M1044.465-1466.812c56.612-1.554,113.625-3.156,168.939-15.309,8.75-1.923,17.591-4.166,25.275-8.773s14.168-11.945,15.762-20.761c1.8-9.969-2.968-20.267-10.212-27.35s-16.678-11.447-26.119-15.121c-57.168-22.246-120.2-23.617-181.473-20.626"/>
          <path id="Path_26" data-name="Path 26" class="cls-7" d="M1236.475-2005.926c2.14,35.07,6.438,70.211,16.57,103.853s26.32,65.869,50.171,91.668c9.619,10.4,21.127,20.063,35.035,22.767,14.613,2.842,30.363-2.87,40.476-13.793s14.6-26.552,12.81-41.329c-3.037-24.995-22.527-46.549-21.963-71.721.8-35.713,41.194-61.541,40.974-97.262"/>
          <path id="Path_27" data-name="Path 27" class="cls-7" d="M1426.489-1950.04a44.52,44.52,0,0,0-17.912,35.285c-.01,9.786,4.7,20.823,14.18,23.263,7.726,1.99,16.02-2.728,20.253-9.49s5.131-15.088,4.965-23.064c-.156-7.472-1.282-15.275-5.653-21.338s-12.769-9.738-19.6-6.7"/>
          <path id="Path_28" data-name="Path 28" class="cls-7" d="M1283.962-2001.935a268.443,268.443,0,0,0-2.857,54.22c.446,9.124,2.053,19.462,9.636,24.555,7.344,4.932,17.634,2.681,24.764-2.556s12.017-12.881,17.507-19.817c7.8-9.86,17.1-18.577,23.813-29.208s10.629-24.06,6.265-35.852"/>
          <path id="Path_29" data-name="Path 29" class="cls-7" d="M1777.012-1078.768a69.518,69.518,0,0,0,1.62,53.871c3.241,7,8.5,14.013,16.1,15.346,5.776,1.012,11.789-1.648,15.815-5.911s6.28-9.932,7.51-15.666a54.887,54.887,0,0,0-7.612-41.008c-4.222-6.466-10.4-12.3-18.042-13.378s-16.387,4.434-16.457,12.155"/>
          <path id="Path_30" data-name="Path 30" class="cls-7" d="M1325.175-1374.136c-8.89,8.079-14.8,19.569-15.4,31.567s4.342,24.318,13.584,31.993c8.73,7.25,20.585,10.158,28.74,18.05,4.98,4.818,8.781,11.583,15.445,13.483,5.24,1.495,11.014-.629,15.06-4.281,7.492-6.761,9.623-17.9,8.219-27.891s-5.8-19.273-9.577-28.63-7.042-19.32-6.005-29.358c.718-6.946,3.381-14.426.028-20.551s-11.552-7.994-18.423-6.709c-13.623,2.548-23.514,14.017-32.253,24.774"/>
          <path id="Path_31" data-name="Path 31" class="cls-7" d="M1933.819-315.24a73.817,73.817,0,0,1-8.392-68.918c4.215-10.6,10.9-20.142,14.468-30.979,2.428-7.385,3.586-15.67,9-21.247a18.382,18.382,0,0,1,22.813-2.293c6.265,4.284,9.18,12.236,9.356,19.824s-1.975,15.01-3.934,22.343-3.758,14.908-2.863,22.445c1.526,12.847,10.662,23.915,11.784,36.8.634,7.283-1.58,14.963-6.722,20.161-6,6.07-15.235,8.08-23.706,7.015s-16.351-4.833-23.818-8.973"/>
        </g>
      </g>
    </g>
    <g id="Group_538" data-name="Group 538" transform="translate(-510 -45)">
      <g id="Group_33" data-name="Group 33" transform="translate(-9.095 46.473)">
        <rect id="Rectangle_7" data-name="Rectangle 7" class="cls-8" width="120.357" height="124.787" rx="25" transform="translate(473.262 78.055)"/>
        <text id="i" class="cls-9" transform="translate(547.095 163.527)"><tspan x="-9.57" y="0">i</tspan></text>
      </g>
    </g>
    <g id="Group_549" data-name="Group 549">
      <g id="Group_547" data-name="Group 547">
        <g id="גרפיקה" transform="translate(33.941 -386.598)">
          <g id="Group_10" data-name="Group 10" transform="translate(69.648 649.036)">
            <g id="Group_6" data-name="Group 6" transform="translate(703.366 133)">
              <path id="Path_33" data-name="Path 33" class="cls-10" d="M850.676,1211.428l135.472-62.508c5.858-2.7,10.608-11.088,10.608-18.728V834.575c-.621-14.21-13.189-22.269-21.222-17.885L850.676,888.143c-5.858,2.7-10.608,11.088-10.608,18.729l-9.4,287.71C830.6,1202.8,843.733,1214.477,850.676,1211.428Z" transform="translate(-830.596 -804.543)"/>
              <line id="Line_2" data-name="Line 2" class="cls-11" x1="2.443" y2="13.853" transform="translate(119.376 19.572)"/>
              <path id="Path_34" data-name="Path 34" class="cls-12" d="M959.14,836.9l-.579,3.28c-.4,2.29.577,3.969,2.189,3.751h0c1.613-.217,3.247-2.25,3.65-4.538l.579-3.28,2.854-16.186" transform="translate(-840.266 -804.878)"/>
              <path id="Path_35" data-name="Path 35" class="cls-8" d="M841.2,1201.941l135.473-62.508c5.859-2.7,10.608-11.088,10.608-18.728V825.088c0-7.641-4.749-11.643-10.608-8.939L841.2,878.656c-5.858,2.7-10.608,11.088-10.608,18.729V1193C830.59,1200.641,835.339,1204.644,841.2,1201.941Z" transform="translate(-830.59 -804.528)"/>
              <path id="Path_36" data-name="Path 36" class="cls-13" d="M988.628,1139.432h0c5.858-2.7,10.608-11.088,10.608-18.728V825.088c0-7.641-4.749-11.643-10.608-8.939h0Z" transform="translate(-842.548 -804.528)"/>
              <g id="Group_4" data-name="Group 4" transform="translate(0 33.567)">
                <line id="Line_3" data-name="Line 3" class="cls-14" x1="146.08" y2="67.402"/>
                <line id="Line_4" data-name="Line 4" class="cls-15" x1="146.08" y2="67.402" transform="translate(0 25.29)"/>
                <line id="Line_5" data-name="Line 5" class="cls-15" x1="146.08" y2="67.402" transform="translate(0 50.581)"/>
                <line id="Line_6" data-name="Line 6" class="cls-15" x1="146.08" y2="67.402" transform="translate(0 75.871)"/>
                <line id="Line_7" data-name="Line 7" class="cls-15" x1="146.08" y2="67.402" transform="translate(0 101.162)"/>
                <line id="Line_8" data-name="Line 8" class="cls-15" x1="146.08" y2="67.402" transform="translate(0 126.452)"/>
                <line id="Line_9" data-name="Line 9" class="cls-15" x1="146.08" y2="67.402" transform="translate(0 151.743)"/>
                <line id="Line_10" data-name="Line 10" class="cls-15" x1="146.08" y2="67.402" transform="translate(0 177.033)"/>
                <line id="Line_11" data-name="Line 11" class="cls-15" x1="146.08" y2="67.402" transform="translate(0 202.324)"/>
                <line id="Line_12" data-name="Line 12" class="cls-15" x1="146.08" y2="67.402" transform="translate(0 227.614)"/>
                <line id="Line_13" data-name="Line 13" class="cls-15" x1="146.08" y2="67.402" transform="translate(0 252.905)"/>
                <line id="Line_14" data-name="Line 14" class="cls-15" x1="146.08" y2="67.402" transform="translate(0 278.195)"/>
              </g>
              <path id="Path_37" data-name="Path 37" class="cls-16" d="M965,813.023" transform="translate(-840.76 -804.356)"/>
              <g id="Group_5" data-name="Group 5" transform="translate(113.272)">
                <path id="Path_38" data-name="Path 38" class="cls-11" d="M970.3,836.246l4.557-25.845c.724-4.1-1.033-7.11-3.921-6.721h0c-2.889.39-5.818,4.031-6.541,8.133l-2.01,11.4" transform="translate(-953.833 -803.646)"/>
                <path id="Path_39" data-name="Path 39" class="cls-12" d="M972.363,821.949l-4.282,24.281c-1.018,5.77-5.137,10.892-9.2,11.44h0c-4.064.549-6.534-3.684-5.517-9.454l2.574-14.6" transform="translate(-953.134 -805.031)"/>
              </g>
            </g>
            <g id="Group_9" data-name="Group 9">
              <path id="Path_40" data-name="Path 40" class="cls-10" d="M215.728,1067.543,80.256,1005.035c-5.858-2.7-10.608-11.088-10.608-18.728V690.69c0-10.035,12.225-23.014,21.222-17.885l124.858,71.453c5.858,2.7,10.608,11.088,10.608,18.729l5.381,291.081C231.717,1061.708,222.672,1070.592,215.728,1067.543Z" transform="translate(-69.648 -660.659)"/>
              <line id="Line_15" data-name="Line 15" class="cls-12" x2="2.443" y2="13.853" transform="translate(44.342 19.571)"/>
              <path id="Path_41" data-name="Path 41" class="cls-12" d="M120.093,693.013l.579,3.28c.4,2.29-.577,3.969-2.189,3.751h0c-1.613-.217-3.247-2.25-3.65-4.539l-.579-3.28L111.4,676.039" transform="translate(-72.807 -660.991)"/>
              <path id="Path_42" data-name="Path 42" class="cls-8" d="M225.976,1058.053,90.5,995.545c-5.858-2.7-10.608-11.088-10.608-18.728V681.2c0-7.641,4.749-11.643,10.608-8.939l135.473,62.507c5.858,2.7,10.608,11.088,10.608,18.729v295.616C236.584,1056.753,231.835,1060.755,225.976,1058.053Z" transform="translate(-70.423 -660.641)"/>
              <path id="Path_43" data-name="Path 43" class="cls-13" d="M90.5,995.545h0c-5.858-2.7-10.608-11.088-10.608-18.728V681.2c0-7.641,4.749-11.643,10.608-8.939h0Z" transform="translate(-70.423 -660.641)"/>
              <g id="Group_7" data-name="Group 7" transform="translate(20.08 33.567)">
                <line id="Line_16" data-name="Line 16" class="cls-14" x2="146.08" y2="67.402"/>
                <line id="Line_17" data-name="Line 17" class="cls-15" x2="146.08" y2="67.402" transform="translate(0 25.29)"/>
                <line id="Line_18" data-name="Line 18" class="cls-15" x2="146.08" y2="67.402" transform="translate(0 50.581)"/>
                <line id="Line_19" data-name="Line 19" class="cls-15" x2="146.08" y2="67.402" transform="translate(0 75.871)"/>
                <line id="Line_20" data-name="Line 20" class="cls-15" x2="146.08" y2="67.402" transform="translate(0 101.162)"/>
                <line id="Line_21" data-name="Line 21" class="cls-15" x2="146.08" y2="67.402" transform="translate(0 126.452)"/>
                <line id="Line_22" data-name="Line 22" class="cls-15" x2="146.08" y2="67.402" transform="translate(0 151.743)"/>
                <line id="Line_23" data-name="Line 23" class="cls-15" x2="146.08" y2="67.402" transform="translate(0 177.033)"/>
                <line id="Line_24" data-name="Line 24" class="cls-15" x2="146.08" y2="67.402" transform="translate(0 202.324)"/>
                <line id="Line_25" data-name="Line 25" class="cls-15" x2="146.08" y2="67.402" transform="translate(0 227.614)"/>
                <line id="Line_26" data-name="Line 26" class="cls-15" x2="146.08" y2="67.402" transform="translate(0 252.905)"/>
                <line id="Line_27" data-name="Line 27" class="cls-15" x2="146.08" y2="67.402" transform="translate(0 278.195)"/>
              </g>
              <path id="Path_44" data-name="Path 44" class="cls-16" d="M115,669.135" transform="translate(-73.079 -660.469)"/>
              <g id="Group_8" data-name="Group 8" transform="translate(31.705)">
                <path id="Path_45" data-name="Path 45" class="cls-12" d="M108.669,692.359l-4.557-25.845c-.724-4.1,1.032-7.11,3.921-6.72h0c2.889.389,5.818,4.03,6.542,8.132l2.01,11.4" transform="translate(-103.949 -659.759)"/>
                <path id="Path_46" data-name="Path 46" class="cls-12" d="M106.063,678.061l4.282,24.281c1.018,5.77,5.137,10.892,9.2,11.44h0c4.064.549,6.534-3.684,5.517-9.454l-2.574-14.6" transform="translate(-104.109 -661.144)"/>
              </g>
            </g>
          </g>
          <g id="Group_17" data-name="Group 17" transform="translate(157.465 518.039)">
            <g id="Group_13" data-name="Group 13" transform="translate(450.117)">
              <path id="Path_47" data-name="Path 47" class="cls-10" d="M674.544,966.525l189.6-34.237c8.2-1.48,14.846-10.069,14.846-19.182V560.492c0-11.969-12.661-25.09-23.9-22.253L674.544,580.909c-8.2,1.48-14.846,10.069-14.846,19.182L651.616,945.18C651.616,954.294,664.827,968.1,674.544,966.525Z" transform="translate(-651.616 -519.538)"/>
              <path id="Path_48" data-name="Path 48" class="cls-17" d="M677.313,977.129,871.6,942.045c8.4-1.517,15.214-10.318,15.214-19.657V561.053c0-12.266-12.974-25.71-24.495-22.8L677.313,581.974c-8.4,1.517-15.213,10.318-15.213,19.657l-8.283,353.625C653.817,964.6,667.356,978.739,677.313,977.129Z" transform="translate(-651.782 -519.538)"/>
              <line id="Line_28" data-name="Line 28" class="cls-11" x1="3.418" y2="15.797" transform="translate(167.072 20.79)"/>
              <path id="Path_49" data-name="Path 49" class="cls-18" d="M831.526,554.2l-.81,3.74c-.565,2.61.807,4.905,3.064,5.125h0c2.256.221,4.544-1.716,5.109-4.328L839.7,555l3.995-18.458" transform="translate(-665.158 -519.439)"/>
              <path id="Path_50" data-name="Path 50" class="cls-8" d="M666.462,957.918l189.6-34.237c8.2-1.481,14.846-10.069,14.846-19.183V551.885c0-9.114-6.646-15.3-14.846-13.821L666.462,572.3c-8.2,1.481-14.846,10.069-14.846,19.183V944.1C651.616,953.21,658.262,959.4,666.462,957.918Z" transform="translate(-651.616 -519.538)"/>
              <path id="Path_51" data-name="Path 51" class="cls-13" d="M872.8,923.68h0c8.2-1.481,14.846-10.069,14.846-19.183V551.885c0-9.114-6.646-15.3-14.846-13.821h0Z" transform="translate(-668.351 -519.538)"/>
              <g id="Group_11" data-name="Group 11" transform="translate(0 44.705)">
                <line id="Line_29" data-name="Line 29" class="cls-14" x1="204.445" y2="36.918"/>
                <line id="Line_30" data-name="Line 30" class="cls-15" x1="204.445" y2="36.918" transform="translate(0 30.167)"/>
                <line id="Line_31" data-name="Line 31" class="cls-15" x1="204.445" y2="36.918" transform="translate(0 60.333)"/>
                <line id="Line_32" data-name="Line 32" class="cls-15" x1="204.445" y2="36.918" transform="translate(0 90.5)"/>
                <line id="Line_33" data-name="Line 33" class="cls-15" x1="204.445" y2="36.918" transform="translate(0 120.667)"/>
                <line id="Line_34" data-name="Line 34" class="cls-15" x1="204.445" y2="36.918" transform="translate(0 150.833)"/>
                <line id="Line_35" data-name="Line 35" class="cls-15" x1="204.445" y2="36.918" transform="translate(0 181)"/>
                <line id="Line_36" data-name="Line 36" class="cls-15" x1="204.445" y2="36.918" transform="translate(0 211.167)"/>
                <line id="Line_37" data-name="Line 37" class="cls-15" x1="204.445" y2="36.918" transform="translate(0 241.334)"/>
                <line id="Line_38" data-name="Line 38" class="cls-15" x1="204.445" y2="36.918" transform="translate(0 271.5)"/>
                <line id="Line_39" data-name="Line 39" class="cls-15" x1="204.445" y2="36.918" transform="translate(0 301.667)"/>
                <line id="Line_40" data-name="Line 40" class="cls-15" x1="204.445" y2="36.918" transform="translate(0 331.834)"/>
              </g>
              <path id="Path_52" data-name="Path 52" class="cls-16" d="M839.73,527.239" transform="translate(-665.849 -518.735)"/>
              <g id="Group_12" data-name="Group 12" transform="translate(158.528)">
                <path id="Path_53" data-name="Path 53" class="cls-11" d="M847.141,556.725l6.378-29.472c1.012-4.677-1.445-8.789-5.489-9.184h0c-4.043-.395-8.142,3.077-9.154,7.754l-2.815,13.005" transform="translate(-824.1 -518.039)"/>
                <path id="Path_54" data-name="Path 54" class="cls-18" d="M850.032,540.545l-5.992,27.689c-1.424,6.58-7.19,11.464-12.878,10.908h0c-5.688-.556-9.145-6.34-7.722-12.919l3.6-16.649" transform="translate(-823.121 -519.742)"/>
              </g>
            </g>
            <g id="Group_16" data-name="Group 16" transform="translate(0 369.93)">
              <path id="Path_55" data-name="Path 55" class="cls-10" d="M376.54,1366.737,186.94,1332.5c-8.2-1.481-14.846-10.069-14.846-19.183V960.7c0-11.97,12.661-25.09,23.9-22.252L376.54,981.12c8.2,1.481,14.846,10.069,14.846,19.183l8.082,345.089C399.468,1354.506,386.257,1368.308,376.54,1366.737Z" transform="translate(-165.216 -919.75)"/>
              <path id="Path_56" data-name="Path 56" class="cls-17" d="M373.774,1365.932l-193.936-35.02c-8.387-1.514-15.185-10.3-15.185-19.621V950.613c0-12.244,12.95-25.664,24.45-22.762L373.774,971.5c8.386,1.515,15.185,10.3,15.185,19.621l8.268,352.982C397.227,1353.42,383.713,1367.537,373.774,1365.932Z" transform="translate(-164.653 -918.947)"/>
              <line id="Line_41" data-name="Line 41" class="cls-11" x2="3.418" y2="15.797" transform="translate(63.762 20.79)"/>
              <path id="Path_57" data-name="Path 57" class="cls-12" d="M237.1,954.416l.81,3.74c.565,2.61-.807,4.9-3.064,5.125h0c-2.256.22-4.544-1.717-5.109-4.328l-.809-3.74-3.995-18.457" transform="translate(-169.214 -919.651)"/>
              <path id="Path_58" data-name="Path 58" class="cls-8" d="M385.284,1358.129l-189.6-34.236c-8.2-1.481-14.846-10.069-14.846-19.183V952.1c0-9.113,6.646-15.3,14.846-13.821l189.6,34.237c8.2,1.481,14.846,10.069,14.846,19.183v352.613C400.129,1353.422,393.483,1359.609,385.284,1358.129Z" transform="translate(-165.878 -919.749)"/>
              <path id="Path_59" data-name="Path 59" class="cls-13" d="M195.685,1323.892h0c-8.2-1.481-14.846-10.069-14.846-19.183V952.1c0-9.113,6.646-15.3,14.846-13.821h0Z" transform="translate(-165.878 -919.749)"/>
              <g id="Group_14" data-name="Group 14" transform="translate(29.807 44.705)">
                <line id="Line_42" data-name="Line 42" class="cls-14" x2="204.445" y2="36.918"/>
                <line id="Line_43" data-name="Line 43" class="cls-15" x2="204.445" y2="36.918" transform="translate(0 30.167)"/>
                <line id="Line_44" data-name="Line 44" class="cls-15" x2="204.445" y2="36.918" transform="translate(0 60.333)"/>
                <line id="Line_45" data-name="Line 45" class="cls-15" x2="204.445" y2="36.918" transform="translate(0 90.5)"/>
                <line id="Line_46" data-name="Line 46" class="cls-15" x2="204.445" y2="36.918" transform="translate(0 120.667)"/>
                <line id="Line_47" data-name="Line 47" class="cls-15" x2="204.445" y2="36.918" transform="translate(0 150.834)"/>
                <line id="Line_48" data-name="Line 48" class="cls-15" x2="204.445" y2="36.918" transform="translate(0 181)"/>
                <line id="Line_49" data-name="Line 49" class="cls-15" x2="204.445" y2="36.918" transform="translate(0 211.167)"/>
                <line id="Line_50" data-name="Line 50" class="cls-15" x2="204.445" y2="36.918" transform="translate(0 241.334)"/>
                <line id="Line_51" data-name="Line 51" class="cls-15" x2="204.445" y2="36.918" transform="translate(0 271.5)"/>
                <line id="Line_52" data-name="Line 52" class="cls-15" x2="204.445" y2="36.918" transform="translate(0 301.667)"/>
                <line id="Line_53" data-name="Line 53" class="cls-15" x2="204.445" y2="36.918" transform="translate(0 331.834)"/>
              </g>
              <path id="Path_60" data-name="Path 60" class="cls-16" d="M229.966,927.451" transform="translate(-169.595 -918.947)"/>
              <g id="Group_15" data-name="Group 15" transform="translate(46.077)">
                <path id="Path_61" data-name="Path 61" class="cls-12" d="M221.107,956.937l-6.378-29.472c-1.012-4.677,1.445-8.789,5.489-9.183h0c4.043-.395,8.142,3.076,9.154,7.753l2.815,13.005" transform="translate(-214.502 -918.251)"/>
                <path id="Path_62" data-name="Path 62" class="cls-12" d="M217.461,940.757l5.992,27.688c1.424,6.579,7.189,11.464,12.878,10.908h0c5.688-.556,9.145-6.34,7.722-12.92l-3.6-16.648" transform="translate(-214.726 -919.954)"/>
              </g>
            </g>
          </g>
          <g id="Group_20" data-name="Group 20" transform="translate(340.829 579.092)">
            <rect id="Rectangle_3" data-name="Rectangle 3" class="cls-19" width="327.165" height="505.725" rx="15" transform="translate(0 20.556)"/>
            <rect id="Rectangle_4" data-name="Rectangle 4" class="cls-10" width="299.924" height="476.969" rx="15" transform="translate(13.62 38.994)"/>
            <line id="Line_54" data-name="Line 54" class="cls-11" x2="4.7" y2="18.775" transform="translate(79.929 23.317)"/>
            <path id="Path_63" data-name="Path 63" class="cls-12" d="M454.261,625.453l1.113,4.445a5.791,5.791,0,0,1-4.212,7.024h0a5.792,5.792,0,0,1-7.024-4.211l-1.113-4.445-5.491-21.938" transform="translate(-368.665 -585.772)"/>
            <rect id="Rectangle_5" data-name="Rectangle 5" class="cls-8" width="301.493" height="476.969" rx="15" transform="translate(12.836 28.101)"/>
            <path id="Rectangle_6" data-name="Rectangle 6" class="cls-13" d="M15,0h5.411a0,0,0,0,1,0,0V476.969a0,0,0,0,1,0,0H15a15,15,0,0,1-15-15V15A15,15,0,0,1,15,0Z" transform="translate(12.836 28.101)"/>
            <g id="Group_18" data-name="Group 18" transform="translate(33.246 60.482)">
              <line id="Line_55" data-name="Line 55" class="cls-14" x2="281.082"/>
              <line id="Line_56" data-name="Line 56" class="cls-15" x2="281.082" transform="translate(0 37.313)"/>
              <line id="Line_57" data-name="Line 57" class="cls-15" x2="281.082" transform="translate(0 74.626)"/>
              <line id="Line_58" data-name="Line 58" class="cls-15" x2="281.082" transform="translate(0 111.939)"/>
              <line id="Line_59" data-name="Line 59" class="cls-15" x2="281.082" transform="translate(0 149.253)"/>
              <line id="Line_60" data-name="Line 60" class="cls-15" x2="281.082" transform="translate(0 186.566)"/>
              <line id="Line_61" data-name="Line 61" class="cls-15" x2="281.082" transform="translate(0 223.879)"/>
              <line id="Line_62" data-name="Line 62" class="cls-15" x2="281.082" transform="translate(0 261.192)"/>
              <line id="Line_63" data-name="Line 63" class="cls-15" x2="281.082" transform="translate(0 298.505)"/>
              <line id="Line_64" data-name="Line 64" class="cls-15" x2="281.082" transform="translate(0 335.818)"/>
              <line id="Line_65" data-name="Line 65" class="cls-15" x2="281.082" transform="translate(0 373.132)"/>
              <line id="Line_66" data-name="Line 66" class="cls-15" x2="281.082" transform="translate(0 410.445)"/>
            </g>
            <path id="Path_64" data-name="Path 64" class="cls-16" d="M444.457,593.694" transform="translate(-369.189 -584.816)"/>
            <g id="Group_19" data-name="Group 19" transform="translate(55.615)">
              <path id="Path_65" data-name="Path 65" class="cls-12" d="M432.277,632.018l-8.768-35.03a10.376,10.376,0,0,1,7.546-12.586h0a10.376,10.376,0,0,1,12.585,7.546l3.87,15.458" transform="translate(-423.195 -584.089)"/>
              <path id="Path_66" data-name="Path 66" class="cls-12" d="M427.264,612.945l8.238,32.91a14.6,14.6,0,0,0,17.706,10.616h0a14.6,14.6,0,0,0,10.616-17.706l-4.954-19.788" transform="translate(-423.503 -586.273)"/>
            </g>
          </g>
        </g>
        <g id="טקסט" transform="translate(954.946 14.992)">
          <g id="כותרת" transform="translate(151 116)">
            <text id="הכשרות_במטבחי_צה_ל" data-name="הכשרות במטבחי צה״ל" class="cls-20" transform="translate(355.054 190.008)"><tspan x="-355.2" y="0">הכשרות במטבחי צה״ל</tspan></text>
            <g id="Group_595" data-name="Group 595">
              <text id="בלמ_ס" data-name="בלמ״ס" class="cls-21" transform="translate(649.054 41.008)"><tspan x="-59.158" y="0">בלמ״ס</tspan></text>
              <line id="Line_1" data-name="Line 1" class="cls-22" x2="50.296" transform="translate(657.721 66.966)"/>
            </g>
          </g>
        </g>
        <text id="למדו_את_נושאי_השיעור_השונים_וברגע_שתרגישו_מוכנים_-_בחנו_את_עצמכם" data-name="למדו את נושאי השיעור השונים
וברגע שתרגישו מוכנים - בחנו את עצמכם" class="cls-21" transform="translate(1816 447)"><tspan x="-529.936" y="0"></tspan><tspan y="0">למדו את נושאי השיעור השונים</tspan><tspan x="-719.488" y="49">וברגע שתרגישו מוכנים - בחנו את עצמכם</tspan></text>
        <g id="גלילה" transform="translate(1737.329 643.334)">
          <g id="Group_28" data-name="Group 28">
            <path id="Path_73" data-name="Path 73" class="cls-23" d="M497.555,1741.558l11.091-10.883,11.091,10.883" transform="translate(-497.555 -1730.675)"/>
            <line id="Line_71" data-name="Line 71" class="cls-23" x1="11.091" y1="10.883" transform="translate(0 34.576)"/>
            <line id="Line_72" data-name="Line 72" class="cls-23" x1="11.091" y2="10.883" transform="translate(11.091 34.576)"/>
            <line id="Line_73" data-name="Line 73" class="cls-23" y2="43.7" transform="translate(11.091)"/>
          </g>
          <g id="Group_31" data-name="Group 31" transform="translate(15.317 30.03)">
            <g id="Group_30" data-name="Group 30">
              <g id="Group_29" data-name="Group 29">
                <line id="Line_74" data-name="Line 74" class="cls-23" y2="7.137" transform="translate(29.719 26.241)"/>
                <path id="Path_74" data-name="Path 74" class="cls-23" d="M517.7,1789.419v-34.894a5.621,5.621,0,0,1,5.679-5.556,5.766,5.766,0,0,1,4.007,1.625,5.484,5.484,0,0,1,1.658,3.931v14.084" transform="translate(-499.32 -1748.969)"/>
                <line id="Line_75" data-name="Line 75" class="cls-23" y2="7.216" transform="translate(52.39 30.156)"/>
                <path id="Path_75" data-name="Path 75" class="cls-23" d="M525.087,1780.182l-8.705-8.667a5.726,5.726,0,0,0-8.013,0,5.49,5.49,0,0,0,0,7.863l14.287,14.02,8.11,7.343h39.678v-31.8a5.625,5.625,0,0,0-5.679-5.573,5.7,5.7,0,0,0-4.006,1.625,5.561,5.561,0,0,0-1.658,3.948" transform="translate(-506.711 -1739.732)"/>
                <path id="Path_76" data-name="Path 76" class="cls-23" d="M535.82,1768.142v-5.036a5.624,5.624,0,0,0-5.681-5.558,5.768,5.768,0,0,0-4.006,1.627,5.49,5.49,0,0,0-1.656,3.932v6.6" transform="translate(-494.758 -1743.465)"/>
                <path id="Path_77" data-name="Path 77" class="cls-23" d="M531.258,1777.479v-11.305a5.608,5.608,0,0,1,5.663-5.556,5.7,5.7,0,0,1,4.006,1.625,5.553,5.553,0,0,1,1.658,3.931v5.479" transform="translate(-490.195 -1741.497)"/>
              </g>
            </g>
          </g>
        </g>
      </g>
      <g id="Group_548" data-name="Group 548" transform="translate(-1653)">
        <g id="Group_508" data-name="Group 508" transform="translate(101.855 70.628)">
          <g id="Group_543" data-name="Group 543" transform="translate(269.019 144.531)">
            <g id="Group_542" data-name="Group 542" transform="translate(0.487)">
              <g id="Group_303" data-name="Group 303" transform="translate(1176.697) rotate(90)">
                <line id="Line_103" data-name="Line 103" class="cls-24" x2="7.277" y2="29.069" transform="translate(36.101 1061.193) rotate(-90)"/>
                <path id="Path_459" data-name="Path 459" class="cls-24" d="M25.9,29.611l1.723,6.882A8.967,8.967,0,0,1,21.1,47.368h0a8.967,8.967,0,0,1-10.875-6.521L8.5,33.966,0,0" transform="translate(31.826 1080.749) rotate(-90)"/>
                <rect id="Rectangle_27" data-name="Rectangle 27" class="cls-8" width="722.373" height="1176.697" rx="37.326" transform="translate(47.86 0)"/>
                <path id="Rectangle_28" data-name="Rectangle 28" class="cls-13" d="M37.326,0H39.5a0,0,0,0,1,0,0V1176.7a0,0,0,0,1,0,0h-2.17A37.326,37.326,0,0,1,0,1139.371V37.326A37.326,37.326,0,0,1,37.326,0Z" transform="translate(47.86 0)"/>
                <g id="Group_301" data-name="Group 301" transform="translate(145.449 1176.697) rotate(-90)">
                  <line id="Line_104" data-name="Line 104" class="cls-25" x2="1176.697"/>
                  <line id="Line_105" data-name="Line 105" class="cls-26" x2="1176.697" transform="translate(0 70.04)"/>
                  <line id="Line_106" data-name="Line 106" class="cls-26" x2="1176.697" transform="translate(0 140.079)"/>
                  <line id="Line_107" data-name="Line 107" class="cls-26" x2="1176.697" transform="translate(0 210.119)"/>
                  <line id="Line_108" data-name="Line 108" class="cls-26" x2="1176.697" transform="translate(0 280.159)"/>
                  <line id="Line_109" data-name="Line 109" class="cls-26" x2="1176.697" transform="translate(0 350.198)"/>
                  <line id="Line_110" data-name="Line 110" class="cls-26" x2="1176.697" transform="translate(0 420.238)"/>
                  <line id="Line_111" data-name="Line 111" class="cls-26" x2="1176.697" transform="translate(0 490.277)"/>
                  <line id="Line_112" data-name="Line 112" class="cls-26" x2="1176.697" transform="translate(0 560.317)"/>
                </g>
                <g id="Group_302" data-name="Group 302" transform="translate(0 1098.837) rotate(-90)">
                  <path id="Path_461" data-name="Path 461" class="cls-24" d="M14.061,74.2.484,19.97A16.066,16.066,0,0,1,12.168.485h0A16.066,16.066,0,0,1,31.654,12.168L37.644,36.1"/>
                  <path id="Path_462" data-name="Path 462" class="cls-24" d="M0,0,12.755,50.953A22.6,22.6,0,0,0,40.167,67.389h0A22.6,22.6,0,0,0,56.6,39.977L50.69,17.083" transform="translate(5.823 41.296)"/>
                </g>
              </g>
              <g id="Group_544" data-name="Group 544" transform="translate(190.839 159.868)">
                <g id="Group_412" data-name="Group 412" transform="translate(523.535)">
                  <text id="ראש_מדור_טי_ל" data-name="ראש מדור טי״ל" class="cls-27" transform="translate(313.265 45.974)"><tspan x="-313.355" y="0">ראש מדור טי״ל</tspan></text>
                  <text id="רס_ן_מיגל_לויתן" data-name="רס״ן מיגל לויתן" class="cls-28" transform="translate(317.265 92.974)"><tspan x="-214.776" y="0">רס״ן מיגל לויתן</tspan></text>
                </g>
                <g id="Group_411" data-name="Group 411" transform="translate(22.146)">
                  <text id="מנהל_פרויקטים" data-name="מנהל פרויקטים" class="cls-27" transform="translate(315.654 45.974)"><tspan x="-316.295" y="0">מנהל פרויקטים</tspan></text>
                  <text id="רס_ר_שלומי_אוגרן" data-name="רס״ר שלומי אוגרן" class="cls-28" transform="translate(318.654 92.974)"><tspan x="-249.912" y="0">רס״ר שלומי אוגרן</tspan></text>
                </g>
                <g id="Group_410" data-name="Group 410" transform="translate(507.59 211.717)">
                  <text id="ראש_תחום_מו_פ" data-name="ראש תחום מו״פ" class="cls-27" transform="translate(329.21 46.256)"><tspan x="-329.035" y="0">ראש תחום מו״פ</tspan></text>
                  <text id="סמל_גל_גנסין" data-name="סמל גל גנסין" class="cls-28" transform="translate(333.21 92.256)"><tspan x="-183.78" y="0">סמל גל גנסין</tspan></text>
                </g>
                <g id="Group_409" data-name="Group 409" transform="translate(0 210.831)">
                  <text id="מפתחת_הלומדה_" data-name="מפתחת הלומדה " class="cls-27" transform="translate(337.8 46.142)"><tspan x="-338.051" y="0"> </tspan><tspan y="0">מפתחת הלומדה</tspan></text>
                  <text id="רב_ט_הלה_צביון" data-name="רב״ט הלה צביון" class="cls-28" transform="translate(340.8 93.142)"><tspan x="-219.024" y="0">רב״ט הלה צביון</tspan></text>
                </g>
                <g id="Group_413" data-name="Group 413" transform="translate(527.079 422.549)">
                  <text id="מעצב_UX_UI" data-name="מעצב UX &amp; UI" class="cls-27" transform="translate(309.721 46.425)"><tspan x="-310.415" y="0">UX &amp; UI</tspan><tspan y="0">מעצב </tspan></text>
                  <text id="סמל_דור_סגיב" data-name="סמל דור סגיב" class="cls-28" transform="translate(313.721 93.425)"><tspan x="-194.148" y="0">סמל דור סגיב</tspan></text>
                </g>
              </g>
            </g>
            <g id="Mask_Group_1" data-name="Mask Group 1" class="cls-29" transform="translate(1177.29 86.837) rotate(90)">
              <g id="Group_3-2" data-name="Group 3" class="cls-30" transform="translate(198.52 1300.016) rotate(-90)">
                <path id="Path_6-2" data-name="Path 6" class="cls-31" d="M0,251.062c1.6-7.848,2.937-15.759,4.845-23.53a116.986,116.986,0,0,1,25.132-48.4c19.345-22.78,43.527-38.234,71.877-47.43,2.73-.878,4.336-.42,6.244,1.577,14.372,14.97,28.655,30.055,43.371,44.695,16.456,16.37,33.6,31.989,53.486,44.288A258.376,258.376,0,0,0,259.7,248.3c.588-2.506,1.182-4.833,1.667-7.2,6.726-33.082,32.041-58.037,65.542-63.354,23.529-3.739,44.822,2.773,63.481,17.4,16.533,12.948,25.581,30.539,30.054,50.724a12.961,12.961,0,0,0,.484,1.246c17.172-5.991,33.247-14.042,48.841-23.212,16.944-9.959,31.617-22.589,45.294-36.555,20.488-20.923,41.2-41.655,61.638-62.654,18.275-18.786,36.338-37.8,54.437-56.765q22.32-23.39,44.5-46.9c.8-.852,1.511-1.793,2.709-3.205l-11.13-3.714c12.693-4.07,24.5-7.873,36.31-11.625,2.889-.916,5.827-1.666,8.74-2.493a11.537,11.537,0,0,1-.1,2q-3.776,17.552-7.616,35.092c-.588,2.684-1.238,5.342-2.063,8.916l-4.309-10L600.824,140.533c1.158.6,2.429,1.234,3.7,1.908,16.852,9.031,31.986,20.4,44.5,34.838,17.273,19.931,27.692,43.016,30.59,69.446,2.084,18.951.826,37.521-4.705,55.748-8.636,28.427-25.2,51.347-49.109,68.785a138,138,0,0,1-65.77,26.138c-3.623.433-7.238,1.03-10.864,1.552H535.584c-1.143-.254-2.261-.585-3.416-.763-6.784-1.03-13.662-1.564-20.317-3.091-30.7-7.021-56.6-22.195-77.1-46.272a125.38,125.38,0,0,1-27.829-56.6c-.9-4.337-1.676-8.7-2.529-13.088a259.335,259.335,0,0,1-128.309.738c-.165,1.908-.241,3.46-.448,5a46.789,46.789,0,0,1-.786,4.668c-7.643,33.5-24.459,61.128-52.416,81.542A138.255,138.255,0,0,1,156.711,397.4c-3.483.433-6.96,1.03-10.431,1.552H131.9a25.293,25.293,0,0,0-3-.75c-6.536-.89-13.217-1.157-19.589-2.684-41.732-10.023-73.9-33.006-94.337-71.176C8.152,311.618,3.154,298.161,2.288,283.445,1.959,277.951.786,272.52,0,267.05ZM116.363,176.2c-6.561-6.932-12.616-13.431-18.86-19.727-.637-.636-2.67-.445-3.751.038-21.637,9.527-40.065,23.25-53.739,42.685-17.974,25.527-22.968,53.98-17.73,84.442,5.01,29.216,20.058,52.492,43.5,70.019,29.1,21.788,61.878,29.572,97.695,22.119,29.813-6.207,53.943-21.686,72.118-46.2,11.754-15.835,18.1-33.833,20.82-53.2.116-.827-.445-2.34-1.069-2.582-8.048-3.142-16.164-6.105-24.544-9.221-.472,4.261-.765,8.318-1.387,12.325-3.523,22.678-14.363,41.235-32.233,55.519-23.212,18.557-49.628,24.6-78.554,18.417a88.472,88.472,0,0,1-54.156-34.825c-14.588-19.664-19.79-41.681-16.5-65.834A84.584,84.584,0,0,1,67.69,206.355,90.809,90.809,0,0,1,116.363,176.2Zm307.286,97.479c2.094,8.865,3.623,18.125,6.522,26.914,6.448,19.537,18.038,35.677,33.845,48.93,19.717,16.522,42.381,26.163,67.845,28.491a116.2,116.2,0,0,0,61.245-10.926c28.527-13.533,49.158-34.494,60.376-64.168,6.472-17.107,8.127-34.863,6.168-53.077a103.557,103.557,0,0,0-9.222-33.756c-12.336-25.909-32.611-43.868-57.706-56.867-7.326-3.8-7.366-3.7-13.317,2.213-4.678,4.63-9.386,9.221-14.472,14.207,1.78.56,2.761.89,3.764,1.17,13.954,3.917,26.583,10.531,37.1,20.4,21.853,20.49,32.144,45.649,28.951,75.844-2.188,20.669-10.672,38.564-25.425,52.873-24.078,23.365-53.19,32.167-86.008,24.815-32.943-7.377-55.759-27.448-66.888-59.551-3.154-9.081-4.032-18.952-5.955-28.415Zm-84.725-11.918c5.3-.343,10.645-.369,15.886-1.107q20.716-2.862,41.375-6.3c4.72-.776,5.19-1.806,4.071-6.347-3.776-15.314-10.94-28.656-23.849-38.183-14.195-10.455-30.209-15.39-47.671-11.74-27.625,5.787-44.657,24.751-48.893,52.861-.369,2.417.448,3.587,2.852,4.121A281.361,281.361,0,0,0,338.924,261.759Z" transform="translate(0 27.721)"/>
                <path id="Path_7-2" data-name="Path 7" class="cls-31" d="M17.553,113.88,0,96.29c121.8-123.757,333.125-132.762,465.341-.5l-17.474,17.489c-59.474-57.172-131.062-87.775-214.689-87.8S77.941,55.945,17.553,113.88Z" transform="translate(108.265 0)"/>
                <path id="Path_8-2" data-name="Path 8" class="cls-31" d="M17.678,95.641,0,77.949c101.37-102.122,272-105.632,378.011-.28L360.128,95.323C312.8,49.395,255.449,25.19,188.954,25.216,122.6,25.228,65.4,49.42,17.678,95.641Z" transform="translate(152.235 62.87)"/>
                <path id="Path_9-2" data-name="Path 9" class="cls-31" d="M17.715,76.3C11.69,70.3,5.851,64.472,0,58.646c73.452-76.06,203.4-80.258,282.4-.127L264.658,76.275C196.636,7.884,84.783,8.673,17.715,76.3Z" transform="translate(200.136 131.078)"/>
                <path id="Path_10-2" data-name="Path 10" class="cls-31" d="M37.371,65.91,0,1.208C25.349,3.93,49.932,4.63,75.436,0Z" transform="translate(304.929 360.58)"/>
              </g>
            </g>
          </g>
        </g>
        <g id="Group_546" data-name="Group 546" transform="translate(422 -41)">
          <g id="Group_33-2" data-name="Group 33" transform="translate(-9.095 46.473)">
            <line id="Line_76" data-name="Line 76" class="cls-32" x2="5.643" y2="22.544" transform="translate(444.744 60.459)"/>
            <path id="Path_78" data-name="Path 78" class="cls-33" d="M235.412,81.92l1.336,5.337a6.952,6.952,0,0,1-5.057,8.433h0a6.954,6.954,0,0,1-8.434-5.057L221.921,85.3l-6.594-26.341" transform="translate(214.871 0.658)"/>
            <rect id="Rectangle_7-2" data-name="Rectangle 7" class="cls-8" width="305.357" height="124.787" rx="25" transform="translate(394.262 78.055)"/>
            <text id="אודות" class="cls-9" transform="translate(547.095 163.527)"><tspan x="-82.467" y="0">אודות</tspan></text>
            <g id="Group_32" data-name="Group 32" transform="translate(415.549 32.462)">
              <path id="Path_79" data-name="Path 79" class="cls-33" d="M211.938,90.009l-10.529-42.06a12.459,12.459,0,0,1,9.061-15.111h0A12.459,12.459,0,0,1,225.582,41.9l4.646,18.56" transform="translate(-201.033 -32.462)"/>
              <path id="Path_80" data-name="Path 80" class="cls-33" d="M205.44,63.711l9.892,39.516a17.527,17.527,0,0,0,21.258,12.746h0a17.528,17.528,0,0,0,12.747-21.258L245.23,78.307" transform="translate(-200.924 -31.686)"/>
            </g>
          </g>
        </g>
      </g>
    </g>
  </g>
</svg>
