<svg xmlns="http://www.w3.org/2000/svg" xmlns:xlink="http://www.w3.org/1999/xlink" width="1920" height="1156" viewBox="0 0 1920 1156">
  <defs>
    <style>
      .cls-1, .cls-17, .cls-2, .cls-20, .cls-21, .cls-24, .cls-25, .cls-26, .cls-33, .cls-34, .cls-7 {
        fill: none;
      }

      .cls-1 {
        stroke: #707070;
      }

      .cls-1, .cls-28, .cls-33, .cls-7 {
        stroke-width: 4px;
      }

      .cls-3 {
        clip-path: url(#clip-Practice_3);
      }

      .cls-4 {
        fill: #20c5f2;
      }

      .cls-20, .cls-21, .cls-5 {
        opacity: 0.1;
      }

      .cls-6 {
        clip-path: url(#clip-path);
      }

      .cls-33, .cls-34, .cls-7 {
        stroke: #fff;
      }

      .cls-17, .cls-20, .cls-21, .cls-7 {
        stroke-miterlimit: 10;
      }

      .cls-22, .cls-27, .cls-35, .cls-8 {
        fill: #1c3f55;
      }

      .cls-16, .cls-9 {
        opacity: 0.2;
      }

      .cls-10, .cls-12, .cls-13, .cls-18, .cls-23, .cls-28, .cls-29, .cls-30, .cls-31 {
        fill: #fff;
      }

      .cls-10 {
        font-size: 58px;
      }

      .cls-10, .cls-12, .cls-13, .cls-22, .cls-29, .cls-30, .cls-35 {
        font-family: Rubik-Bold, Rubik;
        font-weight: 700;
      }

      .cls-11 {
        opacity: 0.5;
      }

      .cls-12 {
        font-size: 55px;
      }

      .cls-13 {
        font-size: 57px;
      }

      .cls-14 {
        clip-path: url(#clip-path-2);
      }

      .cls-15 {
        clip-path: url(#clip-path-3);
      }

      .cls-16 {
        fill: #27c5f2;
      }

      .cls-17 {
        stroke: #708fa0;
      }

      .cls-17, .cls-23, .cls-24, .cls-25, .cls-26, .cls-33 {
        stroke-linecap: round;
      }

      .cls-17, .cls-20, .cls-21 {
        stroke-width: 7px;
      }

      .cls-19 {
        fill: #1de8f7;
      }

      .cls-20 {
        stroke: #ef4230;
      }

      .cls-21 {
        stroke: #26a6e0;
      }

      .cls-22 {
        font-size: 56px;
      }

      .cls-23, .cls-28 {
        stroke: #dbdbdb;
      }

      .cls-23, .cls-24, .cls-25, .cls-26, .cls-33 {
        stroke-linejoin: round;
      }

      .cls-23, .cls-24, .cls-25 {
        stroke-width: 6px;
      }

      .cls-24, .cls-26 {
        stroke: #1c3f55;
      }

      .cls-25 {
        stroke: #414042;
      }

      .cls-26 {
        stroke-width: 5px;
      }

      .cls-27 {
        font-size: 40px;
        font-family: Rubik-Regular, Rubik;
      }

      .cls-29 {
        font-size: 41px;
      }

      .cls-30 {
        font-size: 19px;
        opacity: 0;
      }

      .cls-31 {
        font-size: 60px;
        font-family: Rubik-Medium, Rubik;
        font-weight: 500;
        opacity: 0.31;
      }

      .cls-32 {
        opacity: 0.306;
      }

      .cls-35 {
        font-size: 50px;
      }
    </style>
    <clipPath id="clip-path">
      <rect id="Rectangle_2" data-name="Rectangle 2" class="cls-1" width="1080" height="1920" transform="translate(1080.11 -1996.931)"/>
    </clipPath>
    <clipPath id="clip-path-2">
      <path id="Path_534" data-name="Path 534" class="cls-2" d="M108.922,461.361v-10.4a27,27,0,0,1,27-27h49.4a27,27,0,0,1,27,27v10.4h32.221v-10.4a27,27,0,0,1,27-27h49.4a27,27,0,0,1,27,27v10.4h32.22v-10.4a27,27,0,0,1,27-27h49.4a27,27,0,0,1,27,27v10.4h32.221v-10.4a27,27,0,0,1,27-27h49.4a27,27,0,0,1,27,27v10.4l1301.485.2v-462H.653v462Z"/>
    </clipPath>
    <clipPath id="clip-path-3">
      <rect id="Rectangle_92" data-name="Rectangle 92" class="cls-2" width="1920" height="1080" transform="translate(0.213 -0.329)"/>
    </clipPath>
    <clipPath id="clip-Practice_3">
      <rect width="1920" height="1156"/>
    </clipPath>
  </defs>
  <g id="Practice_3" data-name="Practice – 3" class="cls-3">
    <rect class="cls-18" width="1920" height="1156"/>
    <g id="רקע" transform="translate(1920.275 0.165) rotate(90)">
      <path id="Path_32" data-name="Path 32" class="cls-4" d="M0,0H1080V1920H0Z"/>
      <g id="Group_3" data-name="Group 3" class="cls-5" transform="translate(-1080 1997.371)">
        <g id="Group_2" data-name="Group 2" class="cls-6">
          <g id="Group_1" data-name="Group 1">
            <path id="Path_1" data-name="Path 1" class="cls-7" d="M1257.6-450.1c-30.532-116.746-15.984-240.09,2.014-359.412,2.632-17.449,5.574-35.522,15.425-50.162s28.693-24.8,45.368-19.032c20.631,7.143,27.145,32.647,29.93,54.3a1122.165,1122.165,0,0,1-26.2,421.645c-3.425,13.3-9.451,28.853-22.938,31.466-10.827,2.1-21.477-5.992-26.361-15.88s-5.477-21.25-6.688-32.212-3.4-22.454-10.639-30.776"/>
            <path id="Path_2" data-name="Path 2" class="cls-7" d="M1263.765-283.708c-8.964-14.094-49.17-127.112-56.48-194.733s-5.4-135.882-2.16-203.82c4.407-92.332,11.545-185.928,42.883-272.892,8.929-24.78,25.026-52.671,51.349-53.6,24.141-.852,42.027,21.9,52.858,43.491,46.429,92.563,41.859,201.409,36.226,304.81-5.471,100.426-10.971,201.113-27.874,300.257-4.277,25.088-10.016,51.524-27.6,69.926S1272.729-269.614,1263.765-283.708Z"/>
            <path id="Path_3" data-name="Path 3" class="cls-7" d="M1168.568-636.032c3.405-109.235,10.345-218.619,28.244-326.541,7.713-46.5,17.776-93.557,41.167-134.48,12.322-21.557,30.6-42.508,55.161-46.13s48.844,11.784,62.893,32.27,19.9,45.339,25.29,69.589c7.689,34.62,15,69.358,20.255,104.441,2.627,17.522,4.637,35.1,6.144,52.751,1.109,12.974,5.486,25.187,5.728,38.123,1.362,73.022-4.278,144.61,7.057,217.336,8.364,53.666,23.9,106.729,22.893,161.034-.954,51.522-16.779,101.543-34.37,149.978-10.717,29.507-22.145,58.75-33.572,87.99-9.037,23.125-18.565,47.006-36.368,64.311s-46.352,26.182-68.022,14.065c-18.47-10.328-25.954-31.173-33.97-49.463-9.935-22.671-18.353-46.086-26.118-69.583a986.915,986.915,0,0,1-36.765-149.57c-5.46-33.215-11.593-67.715-8.273-101.12C1169.695-558.794,1167.385-598.065,1168.568-636.032Z"/>
            <path id="Path_4" data-name="Path 4" class="cls-7" d="M1336.563-63.338c63.422-102.526,128.185-208.552,147.259-327.59,14.506-90.533,1.568-182.956-11.372-273.726-23.584-165.43-47.251-331.281-89.412-492.977-11.195-42.935-29.585-91.83-72.058-104.668-34.246-10.351-71.971,8.852-93.7,37.272s-30.8,64.29-38.53,99.221c-77.9,351.9-71.451,722.366,20.2,1070.94"/>
            <path id="Path_5" data-name="Path 5" class="cls-7" d="M1440.548-60.076c125.831-179.54,146.322-414.1,119.205-631.663s-96.907-427.48-136.163-643.181c-15.233-83.7-25.741-170.67-5.011-253.182,18.514-73.694,60.658-138.83,92.591-207.778s53.882-148.483,29.308-220.383"/>
            <path id="Path_6" data-name="Path 6" class="cls-7" d="M1558.62-60.766c65.654-141.963,90.308-300.69,86.146-457.044s-36.321-310.856-80.045-461.03c-28.392-97.517-61.763-193.863-80.958-293.6s-23.717-204.392,5.42-301.69c26.057-87.01,77.5-163.795,117.633-245.275s69.529-174.493,47.1-262.509"/>
            <path id="Path_7" data-name="Path 7" class="cls-7" d="M2184.033-395.464c-32.14-91.146-64.545-183.478-73.034-279.75s9.4-198.5,69.05-274.533"/>
            <path id="Path_8" data-name="Path 8" class="cls-7" d="M2166.7-139.508c-151.477-379.231-146.453-818.3,13.66-1193.964"/>
            <path id="Path_9" data-name="Path 9" class="cls-7" d="M2120.036-42.6c-57.412-176.632-115.311-355.826-124.423-541.331-8.2-166.938,23.424-332.89,49.97-497.908,50.7-315.174,81.907-646.339-25.825-946.838"/>
            <path id="Path_10" data-name="Path 10" class="cls-7" d="M2093.03-2018.665c-1.722,111.041,42.765,222.086,120.675,301.225"/>
            <path id="Path_11" data-name="Path 11" class="cls-7" d="M1734.96-2018.852c-12.287,178.86-70.886,353.548-68.1,532.809,1.768,113.981,28.34,225.88,47.534,338.248,64.62,378.317,45.223,770.75-56.39,1140.85"/>
            <path id="Path_12" data-name="Path 12" class="cls-7" d="M1718.292-2009.268c-85,236.3-171.329,482.724-144.526,732.409,16.382,152.609,74.489,297.73,99.982,449.084,45.561,270.5-14.663,546.675-81.237,812.787"/>
            <path id="Path_13" data-name="Path 13" class="cls-7" d="M1745.3-64.817c-7.12-288.268,198.928-559.629,153.036-844.31-32.355-200.705-187.314-374.387-181.832-577.609,5.129-190.133,151.611-358.342,142.313-548.318"/>
            <path id="Path_14" data-name="Path 14" class="cls-7" d="M1818.476-626.02c14.58,6.365,51.629-203.376,20.3-301.713-2.521-7.91-5.442-16.013-11.211-21.983s-15.157-9.225-22.609-5.567c-9.394,4.612-11.313,16.935-11.965,27.38a2265.961,2265.961,0,0,0-2.609,231.159C1791.5-668.609,1803.9-632.386,1818.476-626.02Z"/>
            <path id="Path_15" data-name="Path 15" class="cls-7" d="M1813.417-66.442c26.464-181.286,75.309-358.475,111.167-538.139,48.027-240.642,72.71-485.879,74.8-731.257,2.034-239.4-17.419-478.889-56.008-715.167"/>
            <path id="Path_16" data-name="Path 16" class="cls-7" d="M1857.417-50.912c14.251-53.509,28.549-107.161,48.919-158.652,9.3-23.506,24.881-50.1,50.15-50.829,15.948-.46,30.466,10.522,38.762,24.152s11.538,29.646,14.642,45.3Q2026-109.737,2042.1-28.529"/>
            <path id="Path_17" data-name="Path 17" class="cls-7" d="M1923.532-51.617a512.986,512.986,0,0,1,20.554-139.694c2.36-8.075,6.7-17.587,15.094-18.171,11.164-.777,15.592,14.058,16.092,25.238q3.844,86.108-.691,172.317"/>
            <path id="Path_18" data-name="Path 18" class="cls-7" d="M1911.563-1769.445c58.447.7,19.039,305.237,28.558,457.855,1.465,23.473,2.777,47.914-6.281,69.618s-31.834,39.624-54.894,35.007c-20.035-4.011-33.356-22.694-43.3-40.542a444.744,444.744,0,0,1-51.507-276.076C1797.388-1617.928,1853.115-1770.143,1911.563-1769.445Z"/>
            <path id="Path_19" data-name="Path 19" class="cls-7" d="M1851.473-1319.31a396.34,396.34,0,0,1-33.924-230.583c2.5-16.018,6.175-32.34,15.336-45.715s24.934-23.291,41.028-21.341c17.721,2.147,31.282,18.06,36.27,35.2s3.147,35.426,1.262,53.176q-9.594,90.379-19.19,180.758c-.923,8.694-1.9,17.581-5.653,25.477s-10.882,14.752-19.57,15.736S1851.473-1319.31,1851.473-1319.31Z"/>
            <path id="Path_20" data-name="Path 20" class="cls-7" d="M1060.712-954.877c21.558-112.081,45.07-228.647,114.526-319.217,36.179-47.176,83.276-85.013,120.287-131.539s64.082-107.016,49.842-164.737c-11.433-46.346-46.933-82.161-79.074-117.455-75.092-82.455-139.045-174.847-191.839-273.084"/>
            <path id="Path_21" data-name="Path 21" class="cls-7" d="M1153.026-2042.315c5.409,56.8,25.474,111.426,51.962,161.963s59.369,97.4,92.15,144.1c10.326,14.71,21.4,30.058,37.693,37.632,22.955,10.668,51.141,2.751,70.835-13.152,26.231-21.182,40.109-53.9,50.294-86.044a612.3,612.3,0,0,0,26.256-236.811"/>
          </g>
          <path id="Path_22" data-name="Path 22" class="cls-7" d="M1786.884-1295.337a505.5,505.5,0,0,1-26.37-265.553c11.452-66.817,36.249-130.5,60.9-193.656q28.614-73.323,57.23-146.647c4.393-11.256,10.36-23.965,22.078-26.911,9.978-2.509,20.522,3.632,26.309,12.139s7.843,18.933,9.7,29.051a2298.97,2298.97,0,0,1,8.469,780.276c-3.352,20.756-11.7,46.2-32.586,48.573-20.748,2.358-34.585-20.234-42.888-39.393C1842.037-1161.351,1786.884-1295.337,1786.884-1295.337Z"/>
          <path id="Path_23" data-name="Path 23" class="cls-7" d="M1506.451-67.98C1592.2-275.226,1644.755-503.9,1603-724.268c-21.805-115.068-68.449-223.754-101.15-336.211a1425.442,1425.442,0,0,1-56.6-399.664c.121-74.363,6.333-149.882,32.546-219.473,21.757-57.761,56.581-109.6,82.933-165.417s44.3-119.242,29.235-179.1"/>
          <path id="Path_24" data-name="Path 24" class="cls-7" d="M1056.075-1284.478c19.761-31.374,52.234-52.473,85.369-69.113s68.158-29.966,98.829-50.8,57.371-51.015,63.576-87.571c4.824-28.414-3.336-57.939-17.98-82.762s-35.405-45.465-57.232-64.285c-73.509-63.383-163.594-111.54-215.507-193.552"/>
          <path id="Path_25" data-name="Path 25" class="cls-7" d="M1044.465-1466.812c56.612-1.554,113.625-3.156,168.939-15.309,8.75-1.923,17.591-4.166,25.275-8.773s14.168-11.945,15.762-20.761c1.8-9.969-2.968-20.267-10.212-27.35s-16.678-11.447-26.119-15.121c-57.168-22.246-120.2-23.617-181.473-20.626"/>
          <path id="Path_26" data-name="Path 26" class="cls-7" d="M1236.475-2005.926c2.14,35.07,6.438,70.211,16.57,103.853s26.32,65.869,50.171,91.668c9.619,10.4,21.127,20.063,35.035,22.767,14.613,2.842,30.363-2.87,40.476-13.793s14.6-26.552,12.81-41.329c-3.037-24.995-22.527-46.549-21.963-71.721.8-35.713,41.194-61.541,40.974-97.262"/>
          <path id="Path_27" data-name="Path 27" class="cls-7" d="M1426.489-1950.04a44.52,44.52,0,0,0-17.912,35.285c-.01,9.786,4.7,20.823,14.18,23.263,7.726,1.99,16.02-2.728,20.253-9.49s5.131-15.088,4.965-23.064c-.156-7.472-1.282-15.275-5.653-21.338s-12.769-9.738-19.6-6.7"/>
          <path id="Path_28" data-name="Path 28" class="cls-7" d="M1283.962-2001.935a268.443,268.443,0,0,0-2.857,54.22c.446,9.124,2.053,19.462,9.636,24.555,7.344,4.932,17.634,2.681,24.764-2.556s12.017-12.881,17.507-19.817c7.8-9.86,17.1-18.577,23.813-29.208s10.629-24.06,6.265-35.852"/>
          <path id="Path_29" data-name="Path 29" class="cls-7" d="M1777.012-1078.768a69.518,69.518,0,0,0,1.62,53.871c3.241,7,8.5,14.013,16.1,15.346,5.776,1.012,11.789-1.648,15.815-5.911s6.28-9.932,7.51-15.666a54.887,54.887,0,0,0-7.612-41.008c-4.222-6.466-10.4-12.3-18.042-13.378s-16.387,4.434-16.457,12.155"/>
          <path id="Path_30" data-name="Path 30" class="cls-7" d="M1325.175-1374.136c-8.89,8.079-14.8,19.569-15.4,31.567s4.342,24.318,13.584,31.993c8.73,7.25,20.585,10.158,28.74,18.05,4.98,4.818,8.781,11.583,15.445,13.483,5.24,1.495,11.014-.629,15.06-4.281,7.492-6.761,9.623-17.9,8.219-27.891s-5.8-19.273-9.577-28.63-7.042-19.32-6.005-29.358c.718-6.946,3.381-14.426.028-20.551s-11.552-7.994-18.423-6.709c-13.623,2.548-23.514,14.017-32.253,24.774"/>
          <path id="Path_31" data-name="Path 31" class="cls-7" d="M1933.819-315.24a73.817,73.817,0,0,1-8.392-68.918c4.215-10.6,10.9-20.142,14.468-30.979,2.428-7.385,3.586-15.67,9-21.247a18.382,18.382,0,0,1,22.813-2.293c6.265,4.284,9.18,12.236,9.356,19.824s-1.975,15.01-3.934,22.343-3.758,14.908-2.863,22.445c1.526,12.847,10.662,23.915,11.784,36.8.634,7.283-1.58,14.963-6.722,20.161-6,6.07-15.235,8.08-23.706,7.015s-16.351-4.833-23.818-8.973"/>
        </g>
      </g>
    </g>
    <g id="Group_580" data-name="Group 580" transform="translate(-66.285 -1276.825)">
      <g id="Group_386" data-name="Group 386" transform="translate(-1045.719 1691.394)">
        <g id="Group_347" data-name="Group 347" transform="translate(1627.398)">
          <rect id="Rectangle_39" data-name="Rectangle 39" class="cls-8" width="103.396" height="103.396" rx="27" transform="translate(0 0)"/>
          <g id="Group_379" data-name="Group 379" class="cls-9" transform="translate(35.795 16.406)">
            <text id="_1" data-name="1" class="cls-10" transform="translate(28.81 54.026)"><tspan x="-29.232" y="0">1</tspan></text>
          </g>
        </g>
        <g id="Group_382" data-name="Group 382" class="cls-11" transform="translate(1220.548)">
          <rect id="Rectangle_39-2" data-name="Rectangle 39" class="cls-8" width="103.396" height="103.396" rx="27" transform="translate(0 0)"/>
          <g id="Group_379-2" data-name="Group 379" transform="translate(31.808 16.406)">
            <text id="_4" data-name="4" class="cls-12" transform="translate(37.647 51.026)"><tspan x="-37.84" y="0">4</tspan></text>
          </g>
        </g>
        <g id="Group_389" data-name="Group 389" class="cls-11" transform="translate(1490.85 294)">
          <rect id="Rectangle_39-3" data-name="Rectangle 39" class="cls-8" width="103.396" height="103.396" rx="27" transform="translate(0 0)"/>
          <g id="Group_379-3" data-name="Group 379" transform="translate(31.363 16.406)">
            <text id="_4-2" data-name="4" class="cls-12" transform="translate(37.79 51.026)"><tspan x="-37.84" y="0">4</tspan></text>
          </g>
        </g>
        <g id="Group_584" data-name="Group 584" class="cls-11" transform="translate(1490.85 441)">
          <rect id="Rectangle_39-4" data-name="Rectangle 39" class="cls-8" width="103.396" height="103.396" rx="27" transform="translate(0 0)"/>
          <g id="Group_379-4" data-name="Group 379" transform="translate(31.363 16.406)">
            <text id="_8" data-name="8" class="cls-12" transform="translate(37.79 51.026)"><tspan x="-37.455" y="0">8</tspan></text>
          </g>
        </g>
        <g id="Group_589" data-name="Group 589" class="cls-11" transform="translate(1490.85 588)">
          <rect id="Rectangle_39-5" data-name="Rectangle 39" class="cls-8" width="103.396" height="103.396" rx="27" transform="translate(0 0)"/>
          <g id="Group_379-5" data-name="Group 379" transform="translate(46.363 16.406)">
            <text id="_12" data-name="12" class="cls-12" transform="translate(37.79 51.026)"><tspan x="-63.8" y="0">12</tspan></text>
          </g>
        </g>
        <g id="Group_385" data-name="Group 385" class="cls-11" transform="translate(1355.698 147)">
          <rect id="Rectangle_39-6" data-name="Rectangle 39" class="cls-8" width="103.396" height="103.396" rx="27" transform="translate(0 0)"/>
          <g id="Group_379-6" data-name="Group 379" transform="translate(34.515 16.406)">
            <text id="_7" data-name="7" class="cls-13" transform="translate(32.79 53.026)"><tspan x="-33.003" y="0">7</tspan></text>
          </g>
        </g>
        <g id="Group_392" data-name="Group 392" class="cls-11" transform="translate(1626 441)">
          <rect id="Rectangle_39-7" data-name="Rectangle 39" class="cls-8" width="103.396" height="103.396" rx="27" transform="translate(0 0)"/>
          <g id="Group_379-7" data-name="Group 379" transform="translate(34.907 16.406)">
            <text id="_7-2" data-name="7" class="cls-13" transform="translate(33.096 53.026)"><tspan x="-33.003" y="0">7</tspan></text>
          </g>
        </g>
        <g id="Group_590" data-name="Group 590" class="cls-11" transform="translate(1626 588)">
          <rect id="Rectangle_39-8" data-name="Rectangle 39" class="cls-8" width="103.396" height="103.396" rx="27" transform="translate(0 0)"/>
          <g id="Group_379-8" data-name="Group 379" transform="translate(34.907 16.406)">
            <text id="_11" data-name="11" class="cls-13" transform="translate(33.096 53.026)"><tspan x="-57.456" y="0">11</tspan></text>
          </g>
        </g>
        <g id="Group_380" data-name="Group 380" transform="translate(1491.781)">
          <rect id="Rectangle_39-9" data-name="Rectangle 39" class="cls-8" width="103.396" height="103.396" rx="27" transform="translate(0 0)"/>
          <g id="Group_379-9" data-name="Group 379" transform="translate(32.514 16.406)">
            <text id="_2" data-name="2" class="cls-10" transform="translate(37.708 54.026)"><tspan x="-38.048" y="0">2</tspan></text>
          </g>
        </g>
        <g id="Group_387" data-name="Group 387" class="cls-11" transform="translate(1220.083 147)">
          <rect id="Rectangle_39-10" data-name="Rectangle 39" class="cls-8" width="103.396" height="103.396" rx="27" transform="translate(0 0)"/>
          <g id="Group_379-10" data-name="Group 379" transform="translate(32.069 16.406)">
            <text id="_2-2" data-name="2" class="cls-10" transform="translate(37.851 54.026)"><tspan x="-38.048" y="0">2</tspan></text>
          </g>
        </g>
        <g id="Group_383" data-name="Group 383" class="cls-11" transform="translate(1626.931 147)">
          <rect id="Rectangle_39-11" data-name="Rectangle 39" class="cls-8" width="103.396" height="103.396" rx="27" transform="translate(0 0)"/>
          <g id="Group_379-11" data-name="Group 379" transform="translate(32.711 16.406)">
            <text id="_5" data-name="5" class="cls-10" transform="translate(38.361 54.026)"><tspan x="-37.758" y="0">5</tspan></text>
          </g>
        </g>
        <g id="Group_390" data-name="Group 390" class="cls-11" transform="translate(1355.233 294)">
          <rect id="Rectangle_39-12" data-name="Rectangle 39" class="cls-8" width="103.396" height="103.396" rx="27" transform="translate(0 0)"/>
          <g id="Group_379-12" data-name="Group 379" transform="translate(32.266 16.406)">
            <text id="_5-2" data-name="5" class="cls-10" transform="translate(37.504 54.026)"><tspan x="-37.758" y="0">5</tspan></text>
          </g>
        </g>
        <g id="Group_585" data-name="Group 585" class="cls-11" transform="translate(1355.233 441)">
          <rect id="Rectangle_39-13" data-name="Rectangle 39" class="cls-8" width="103.396" height="103.396" rx="27" transform="translate(0 0)"/>
          <g id="Group_379-13" data-name="Group 379" transform="translate(32.266 16.406)">
            <text id="_9" data-name="9" class="cls-10" transform="translate(37.504 54.026)"><tspan x="-37.468" y="0">9</tspan></text>
          </g>
        </g>
        <g id="Group_588" data-name="Group 588" class="cls-11" transform="translate(1355.233 588)">
          <rect id="Rectangle_39-14" data-name="Rectangle 39" class="cls-8" width="103.396" height="103.396" rx="27" transform="translate(0 0)"/>
          <g id="Group_379-14" data-name="Group 379" transform="translate(48.266 16.406)">
            <text id="_13" data-name="13" class="cls-10" transform="translate(37.504 54.026)"><tspan x="-67.802" y="0">13</tspan></text>
          </g>
        </g>
        <g id="Group_381" data-name="Group 381" class="cls-11" transform="translate(1356.165)">
          <rect id="Rectangle_39-15" data-name="Rectangle 39" class="cls-8" width="103.396" height="103.396" rx="27" transform="translate(0 0)"/>
          <g id="Group_379-15" data-name="Group 379" transform="translate(31.743 16.406)">
            <text id="_3" data-name="3" class="cls-13" transform="translate(38.096 53.026)"><tspan x="-37.905" y="0">3</tspan></text>
          </g>
        </g>
        <g id="Group_388" data-name="Group 388" class="cls-11" transform="translate(1626.467 294)">
          <rect id="Rectangle_39-16" data-name="Rectangle 39" class="cls-8" width="103.396" height="103.396" rx="27" transform="translate(0 0)"/>
          <g id="Group_379-16" data-name="Group 379" transform="translate(32.134 16.406)">
            <text id="_3-2" data-name="3" class="cls-13" transform="translate(38.402 53.026)"><tspan x="-37.905" y="0">3</tspan></text>
          </g>
        </g>
        <g id="Group_384" data-name="Group 384" class="cls-11" transform="translate(1491.315 147)">
          <rect id="Rectangle_39-17" data-name="Rectangle 39" class="cls-8" width="103.396" height="103.396" rx="27" transform="translate(0 0)"/>
          <g id="Group_379-17" data-name="Group 379" transform="translate(31.939 16.406)">
            <text id="_6" data-name="6" class="cls-10" transform="translate(37.749 54.026)"><tspan x="-37.99" y="0">6</tspan></text>
          </g>
        </g>
        <g id="Group_391" data-name="Group 391" class="cls-11" transform="translate(1219.617 294)">
          <rect id="Rectangle_39-18" data-name="Rectangle 39" class="cls-8" width="103.396" height="103.396" rx="27" transform="translate(0 0)"/>
          <g id="Group_379-18" data-name="Group 379" transform="translate(32.331 16.406)">
            <text id="_6-2" data-name="6" class="cls-10" transform="translate(38.055 54.026)"><tspan x="-37.99" y="0">6</tspan></text>
          </g>
        </g>
        <g id="Group_586" data-name="Group 586" class="cls-11" transform="translate(1219.617 441)">
          <rect id="Rectangle_39-19" data-name="Rectangle 39" class="cls-8" width="103.396" height="103.396" rx="27" transform="translate(0 0)"/>
          <g id="Group_379-19" data-name="Group 379" transform="translate(48.331 16.406)">
            <text id="_10" data-name="10" class="cls-10" transform="translate(38.055 54.026)"><tspan x="-68.904" y="0">10</tspan></text>
          </g>
        </g>
        <g id="Group_587" data-name="Group 587" class="cls-11" transform="translate(1219.617 588)">
          <rect id="Rectangle_39-20" data-name="Rectangle 39" class="cls-8" width="103.396" height="103.396" rx="27" transform="translate(0 0)"/>
          <g id="Group_379-20" data-name="Group 379" transform="translate(48.331 16.406)">
            <text id="_14" data-name="14" class="cls-10" transform="translate(38.055 54.026)"><tspan x="-69.136" y="0">14</tspan></text>
          </g>
        </g>
      </g>
    </g>
    <g id="Group_594" data-name="Group 594" transform="translate(-0.653 0.439)">
      <g id="Group_593" data-name="Group 593" class="cls-14">
        <g id="רקע-2" data-name="רקע">
          <path id="Path_32-2" data-name="Path 32" class="cls-4" d="M1920.653-.439v1080H.653V-.439Z"/>
          <g id="Group_3-2" data-name="Group 3" class="cls-5">
            <g id="Group_592" data-name="Group 592">
              <g id="Group_591" data-name="Group 591" class="cls-15">
                <g id="Group_2-2" data-name="Group 2">
                  <g id="Group_1-2" data-name="Group 1">
                    <path id="Path_1-2" data-name="Path 1" class="cls-7" d="M373.382,177.161c116.746-30.532,240.09-15.984,359.412,2.014,17.449,2.632,35.522,5.574,50.162,15.425s24.8,28.693,19.032,45.368c-7.143,20.631-32.647,27.145-54.3,29.93a1122.165,1122.165,0,0,1-421.645-26.2c-13.3-3.425-28.853-9.451-31.466-22.938-2.1-10.827,5.992-21.477,15.88-26.361s21.25-5.477,32.212-6.688,22.454-3.4,30.776-10.639"/>
                    <path id="Path_2-2" data-name="Path 2" class="cls-7" d="M206.99,183.326c14.094-8.964,127.112-49.17,194.733-56.48s135.882-5.4,203.82-2.16c92.332,4.407,185.928,11.545,272.892,42.883,24.78,8.929,52.671,25.026,53.6,51.349.852,24.141-21.9,42.027-43.491,52.858C795.981,318.2,687.135,313.635,583.734,308c-100.426-5.471-201.113-10.971-300.257-27.874-25.088-4.277-51.524-10.016-69.926-27.6S192.9,192.29,206.99,183.326Z"/>
                    <path id="Path_3-2" data-name="Path 3" class="cls-7" d="M559.314,88.129c109.235,3.4,218.619,10.345,326.541,28.244,46.5,7.713,93.557,17.776,134.48,41.167,21.557,12.322,42.508,30.6,46.13,55.161s-11.784,48.844-32.27,62.893-45.339,19.9-69.589,25.29c-34.62,7.689-69.358,15-104.441,20.255-17.522,2.627-35.1,4.637-52.751,6.144-12.974,1.109-25.187,5.486-38.123,5.728-73.022,1.362-144.61-4.278-217.336,7.057-53.666,8.364-106.729,23.9-161.034,22.893-51.522-.954-101.543-16.779-149.978-34.37-29.507-10.717-58.75-22.145-87.99-33.572-23.125-9.037-47.006-18.565-64.311-36.368S62.46,212.3,74.577,190.629c10.328-18.47,31.173-25.954,49.463-33.97,22.671-9.935,46.086-18.353,69.583-26.118a986.9,986.9,0,0,1,149.57-36.765c33.215-5.46,67.715-11.593,101.12-8.273C482.076,89.256,521.347,86.946,559.314,88.129Z"/>
                    <path id="Path_4-2" data-name="Path 4" class="cls-7" d="M-13.38,256.124C89.146,319.546,195.172,384.309,314.21,403.383c90.533,14.506,182.956,1.568,273.726-11.372,165.43-23.584,331.281-47.251,492.977-89.412,42.935-11.2,91.83-29.585,104.668-72.058,10.351-34.246-8.852-71.971-37.272-93.7s-64.29-30.8-99.221-38.53c-351.9-77.9-722.366-71.451-1070.94,20.2"/>
                    <path id="Path_5-2" data-name="Path 5" class="cls-7" d="M-16.642,360.109c179.54,125.831,414.1,146.322,631.663,119.2S1042.5,382.407,1258.2,343.151c83.7-15.233,170.67-25.741,253.182-5.011,73.694,18.514,138.83,60.658,207.778,92.591s148.483,53.882,220.383,29.308"/>
                    <path id="Path_6-2" data-name="Path 6" class="cls-7" d="M-15.952,478.181c141.963,65.654,300.69,90.308,457.044,86.146s310.856-36.321,461.03-80.045c97.517-28.392,193.863-61.763,293.6-80.958s204.392-23.717,301.69,5.42c87.01,26.057,163.8,77.5,245.275,117.633s174.493,69.529,262.509,47.1"/>
                    <path id="Path_7-2" data-name="Path 7" class="cls-7" d="M318.746,1103.594c91.146-32.14,183.478-64.545,279.75-73.034s198.5,9.4,274.533,69.05"/>
                    <path id="Path_8-2" data-name="Path 8" class="cls-7" d="M62.79,1086.261c379.231-151.477,818.3-146.453,1193.964,13.66"/>
                    <path id="Path_9-2" data-name="Path 9" class="cls-7" d="M-34.118,1039.6c176.632-57.412,355.826-115.311,541.331-124.423,166.938-8.2,332.89,23.424,497.908,49.97,315.174,50.7,646.339,81.907,946.838-25.825"/>
                    <path id="Path_10-2" data-name="Path 10" class="cls-7" d="M1941.947,1012.591c-111.041-1.722-222.086,42.765-301.225,120.675"/>
                    <path id="Path_11-2" data-name="Path 11" class="cls-7" d="M1942.134,654.521c-178.86-12.287-353.548-70.886-532.809-68.1-113.981,1.768-225.88,28.34-338.248,47.534-378.317,64.62-770.75,45.223-1140.85-56.39"/>
                    <path id="Path_12-2" data-name="Path 12" class="cls-7" d="M1932.55,637.853c-236.3-85-482.724-171.329-732.409-144.526-152.609,16.382-297.73,74.489-449.084,99.982-270.5,45.561-546.675-14.663-812.787-81.237"/>
                    <path id="Path_13-2" data-name="Path 13" class="cls-7" d="M-11.9,664.861c288.268-7.12,559.629,198.928,844.31,153.036,200.705-32.355,374.387-187.314,577.609-181.832,190.133,5.129,358.342,151.611,548.318,142.313"/>
                    <path id="Path_14-2" data-name="Path 14" class="cls-7" d="M549.3,738.037c-6.365,14.58,203.376,51.629,301.713,20.3,7.91-2.521,16.013-5.442,21.983-11.211s9.225-15.157,5.567-22.609c-4.612-9.394-16.935-11.313-27.38-11.965a2265.993,2265.993,0,0,0-231.159-2.609C591.891,711.061,555.668,723.461,549.3,738.037Z"/>
                    <path id="Path_15-2" data-name="Path 15" class="cls-7" d="M-10.276,732.978C171.01,759.442,348.2,808.287,527.863,844.145c240.642,48.027,485.879,72.71,731.257,74.8,239.4,2.034,478.889-17.419,715.167-56.008"/>
                    <path id="Path_16-2" data-name="Path 16" class="cls-7" d="M-25.806,776.978C27.7,791.229,81.355,805.527,132.846,825.9c23.506,9.3,50.1,24.881,50.829,50.15.46,15.948-10.522,30.466-24.152,38.762s-29.646,11.538-45.3,14.642q-81.2,16.11-162.412,32.21"/>
                    <path id="Path_17-2" data-name="Path 17" class="cls-7" d="M-25.1,843.093a512.988,512.988,0,0,1,139.694,20.554c8.075,2.36,17.587,6.7,18.171,15.094.777,11.164-14.058,15.592-25.238,16.092q-86.108,3.844-172.317-.691"/>
                    <path id="Path_18-2" data-name="Path 18" class="cls-7" d="M1692.727,831.124c-.7,58.447-305.237,19.039-457.855,28.558-23.473,1.465-47.914,2.777-69.618-6.281s-39.624-31.834-35.007-54.894c4.011-20.035,22.694-33.356,40.542-43.3A444.744,444.744,0,0,1,1446.865,703.7C1541.21,716.949,1693.425,772.676,1692.727,831.124Z"/>
                    <path id="Path_19-2" data-name="Path 19" class="cls-7" d="M1242.592,771.034a396.34,396.34,0,0,1,230.583-33.924c16.018,2.5,32.34,6.175,45.715,15.336s23.291,24.934,21.341,41.028c-2.147,17.721-18.06,31.282-35.2,36.27s-35.426,3.147-53.176,1.262L1271.1,811.816c-8.694-.923-17.581-1.9-25.477-5.653s-14.752-10.882-15.736-19.57S1242.592,771.034,1242.592,771.034Z"/>
                    <path id="Path_20-2" data-name="Path 20" class="cls-7" d="M878.159-19.727C990.24,1.831,1106.806,25.343,1197.376,94.8c47.176,36.179,85.013,83.276,131.539,120.287s107.016,64.082,164.737,49.842c46.346-11.433,82.161-46.933,117.455-79.074,82.455-75.092,174.847-139.045,273.084-191.839"/>
                    <path id="Path_21-2" data-name="Path 21" class="cls-7" d="M1965.6,72.587c-56.8,5.409-111.426,25.474-161.963,51.962s-97.4,59.369-144.1,92.15c-14.71,10.326-30.058,21.4-37.632,37.693-10.668,22.955-2.751,51.141,13.152,70.835,21.182,26.231,53.9,40.109,86.044,50.294a612.3,612.3,0,0,0,236.811,26.256"/>
                  </g>
                  <path id="Path_22-2" data-name="Path 22" class="cls-7" d="M1218.619,706.445a505.5,505.5,0,0,1,265.553-26.37c66.817,11.452,130.5,36.249,193.656,60.9l146.647,57.23c11.256,4.393,23.965,10.36,26.911,22.078,2.509,9.978-3.632,20.522-12.139,26.309s-18.933,7.843-29.051,9.7a2298.971,2298.971,0,0,1-780.276,8.469c-20.756-3.352-46.2-11.7-48.573-32.586-2.358-20.748,20.234-34.585,39.393-42.888C1084.633,761.6,1218.619,706.445,1218.619,706.445Z"/>
                  <path id="Path_23-2" data-name="Path 23" class="cls-7" d="M-8.738,426.012c207.246,85.749,435.92,138.3,656.288,96.549,115.068-21.8,223.754-68.449,336.211-101.15a1425.446,1425.446,0,0,1,399.664-56.6c74.363.121,149.882,6.333,219.473,32.546,57.761,21.757,109.6,56.581,165.417,82.933s119.242,44.3,179.1,29.235"/>
                  <path id="Path_24-2" data-name="Path 24" class="cls-7" d="M1207.76-24.364c31.374,19.761,52.473,52.234,69.113,85.369s29.966,68.158,50.8,98.829,51.015,57.371,87.571,63.576c28.414,4.824,57.939-3.336,82.762-17.98s45.465-35.4,64.285-57.232c63.383-73.509,111.54-163.594,193.552-215.507"/>
                  <path id="Path_25-2" data-name="Path 25" class="cls-7" d="M1390.094-35.974c1.554,56.612,3.156,113.625,15.309,168.939,1.923,8.75,4.166,17.591,8.773,25.275s11.945,14.168,20.761,15.762c9.969,1.8,20.267-2.968,27.35-10.212s11.447-16.678,15.121-26.119c22.246-57.168,23.617-120.2,20.626-181.473"/>
                  <path id="Path_26-2" data-name="Path 26" class="cls-7" d="M1929.208,156.036c-35.07,2.14-70.211,6.438-103.853,16.57s-65.869,26.32-91.668,50.171c-10.4,9.619-20.063,21.127-22.767,35.035-2.842,14.613,2.87,30.363,13.793,40.476s26.552,14.6,41.329,12.81c24.995-3.037,46.549-22.527,71.721-21.963,35.713.8,61.541,41.194,97.262,40.974"/>
                  <path id="Path_27-2" data-name="Path 27" class="cls-7" d="M1873.322,346.05a44.519,44.519,0,0,0-35.285-17.912c-9.786-.01-20.823,4.7-23.263,14.18-1.99,7.726,2.728,16.02,9.49,20.253s15.088,5.131,23.064,4.965c7.472-.156,15.275-1.282,21.338-5.653s9.738-12.769,6.7-19.6"/>
                  <path id="Path_28-2" data-name="Path 28" class="cls-7" d="M1925.217,203.523a268.506,268.506,0,0,0-54.22-2.857c-9.124.446-19.462,2.053-24.555,9.636-4.932,7.344-2.681,17.634,2.556,24.764s12.881,12.017,19.817,17.507c9.86,7.8,18.577,17.1,29.208,23.813s24.06,10.629,35.852,6.265"/>
                  <path id="Path_29-2" data-name="Path 29" class="cls-7" d="M1002.05,696.573a69.518,69.518,0,0,0-53.871,1.62c-7,3.241-14.013,8.5-15.346,16.1-1.012,5.776,1.648,11.789,5.911,15.815s9.932,6.28,15.666,7.51a54.891,54.891,0,0,0,41.008-7.612c6.466-4.222,12.3-10.4,13.378-18.042s-4.434-16.387-12.155-16.457"/>
                  <path id="Path_30-2" data-name="Path 30" class="cls-7" d="M1297.418,244.736c-8.079-8.89-19.569-14.8-31.567-15.4s-24.318,4.342-31.993,13.584c-7.25,8.73-10.158,20.585-18.05,28.74-4.818,4.98-11.583,8.781-13.483,15.445-1.495,5.24.629,11.014,4.281,15.06,6.761,7.492,17.9,9.623,27.891,8.219s19.273-5.8,28.63-9.577,19.32-7.042,29.358-6.005c6.946.718,14.426,3.381,20.551.028s7.994-11.552,6.709-18.423c-2.548-13.623-14.017-23.514-24.774-32.253"/>
                  <path id="Path_31-2" data-name="Path 31" class="cls-7" d="M238.522,853.38a73.817,73.817,0,0,1,68.918-8.392c10.6,4.215,20.142,10.9,30.979,14.468,7.385,2.428,15.67,3.586,21.247,9a18.382,18.382,0,0,1,2.293,22.813c-4.284,6.265-12.236,9.18-19.824,9.356s-15.01-1.975-22.343-3.934-14.908-3.758-22.445-2.863c-12.847,1.526-23.915,10.662-36.8,11.784-7.283.634-14.963-1.58-20.161-6.722-6.07-6-8.08-15.235-7.015-23.706s4.833-16.351,8.973-23.818"/>
                </g>
              </g>
            </g>
          </g>
        </g>
      </g>
    </g>
    <g id="Group_577" data-name="Group 577" transform="translate(522.731 11.294)">
      <g id="Group_576" data-name="Group 576" transform="translate(161.807 230.894)">
        <g id="Group_543" data-name="Group 543" transform="translate(0 0)">
          <g id="Group_542" data-name="Group 542" transform="translate(0 0)">
            <g id="Group_303" data-name="Group 303" transform="translate(1053.534 0) rotate(90)">
              <rect id="Rectangle_91" data-name="Rectangle 91" class="cls-16" width="663.978" height="1053.534" rx="37.326" transform="translate(18.744 0)"/>
              <line id="Line_103" data-name="Line 103" class="cls-17" x2="6.239" y2="24.925" transform="translate(30.954 932.202) rotate(-90)"/>
              <path id="Path_459" data-name="Path 459" class="cls-17" d="M22.206,25.389l1.477,5.9a7.689,7.689,0,0,1-5.591,9.325h0a7.689,7.689,0,0,1-9.325-5.591l-1.477-5.9L0,0" transform="translate(27.289 948.97) rotate(-90)"/>
              <rect id="Rectangle_27" data-name="Rectangle 27" class="cls-18" width="619.391" height="1008.947" rx="37.326" transform="translate(41.037 22.293)"/>
              <path id="Rectangle_28" data-name="Rectangle 28" class="cls-19" d="M33.865,0h0a0,0,0,0,1,0,0V1008.947a0,0,0,0,1,0,0h0A33.865,33.865,0,0,1,0,975.081V33.865A33.865,33.865,0,0,1,33.865,0Z" transform="translate(41.037 22.293)"/>
              <g id="Group_301" data-name="Group 301" transform="translate(124.713 1031.24) rotate(-90)">
                <line id="Line_104" data-name="Line 104" class="cls-20" x2="1008.947" transform="translate(0 0)"/>
                <line id="Line_105" data-name="Line 105" class="cls-21" x2="1008.947" transform="translate(0 60.055)"/>
                <line id="Line_106" data-name="Line 106" class="cls-21" x2="1008.947" transform="translate(0 120.11)"/>
                <line id="Line_107" data-name="Line 107" class="cls-21" x2="1008.947" transform="translate(0 180.164)"/>
                <line id="Line_108" data-name="Line 108" class="cls-21" x2="1008.947" transform="translate(0 240.219)"/>
                <line id="Line_109" data-name="Line 109" class="cls-21" x2="1008.947" transform="translate(0 300.274)"/>
                <line id="Line_110" data-name="Line 110" class="cls-21" x2="1008.947" transform="translate(0 360.329)"/>
                <line id="Line_111" data-name="Line 111" class="cls-21" x2="1008.947" transform="translate(0 420.383)"/>
                <line id="Line_112" data-name="Line 112" class="cls-21" x2="1008.947" transform="translate(0 480.438)"/>
              </g>
              <g id="Group_302" data-name="Group 302" transform="translate(0 964.48) rotate(-90)">
                <path id="Path_461" data-name="Path 461" class="cls-17" d="M12.056,63.626.415,17.123A13.776,13.776,0,0,1,10.434.416h0A13.776,13.776,0,0,1,27.141,10.433l5.136,20.521" transform="translate(0)"/>
                <path id="Path_462" data-name="Path 462" class="cls-17" d="M0,0,10.937,43.689a19.379,19.379,0,0,0,23.5,14.093h0a19.379,19.379,0,0,0,14.092-23.5l-5.07-19.63" transform="translate(4.992 35.409)"/>
              </g>
            </g>
          </g>
        </g>
        <g id="Group_573" data-name="Group 573" transform="translate(69.732 105.224)">
          <text id="לסכום_בשרי_אין_חורים_בקצה" data-name="לסכום בשרי אין חורים בקצה" class="cls-22" transform="translate(883.061 185.008)"><tspan x="-658.84" y="0">לסכום בשרי אין חורים בקצה</tspan></text>
          <g id="Group_362" data-name="Group 362" transform="translate(592.288 274.813)">
            <g id="Group_369" data-name="Group 369" transform="translate(0 0)">
              <rect id="Rectangle_47" data-name="Rectangle 47" class="cls-23" width="126.901" height="70.761" rx="27" transform="translate(0)"/>
              <g id="Group_368" data-name="Group 368" transform="translate(55.511 27.84)">
                <line id="Line_119" data-name="Line 119" class="cls-24" x1="15.808" y1="15.808" transform="translate(0 0)"/>
                <line id="Line_120" data-name="Line 120" class="cls-24" x1="15.808" y2="15.808" transform="translate(0 0)"/>
              </g>
            </g>
            <g id="Group_370" data-name="Group 370" transform="translate(180.92 0)">
              <rect id="Rectangle_48" data-name="Rectangle 48" class="cls-23" width="126.901" height="70.761" rx="27"/>
              <g id="Group_367" data-name="Group 367" transform="translate(48.542 23.725)">
                <g id="Group_365" data-name="Group 365" transform="translate(0 0)">
                  <path id="Path_474" data-name="Path 474" class="cls-25" d="M29.734,0,7.013,22.721,0,15.709"/>
                </g>
              </g>
            </g>
          </g>
          <g id="Group_361" data-name="Group 361" transform="translate(0.416 444.193)">
            <rect id="Rectangle_47-2" data-name="Rectangle 47" class="cls-23" width="83.761" height="70.536" rx="27" transform="translate(0 0)"/>
            <g id="Group_353" data-name="Group 353" transform="translate(38.216 27.123)">
              <g id="Group_354" data-name="Group 354" transform="translate(0 0)">
                <path id="Path_468" data-name="Path 468" class="cls-26" d="M8.641,16.763.52,8.642,8.641.52" transform="translate(-0.52 -0.52)"/>
              </g>
            </g>
          </g>
          <g id="Group_361-2" data-name="Group 361" transform="translate(202.979 514.729) rotate(180)">
            <rect id="Rectangle_47-3" data-name="Rectangle 47" class="cls-23" width="83.761" height="70.536" rx="27"/>
            <g id="Group_353-2" data-name="Group 353" transform="translate(38.216 27.123)">
              <g id="Group_354-2" data-name="Group 354" transform="translate(0 0)">
                <path id="Path_468-2" data-name="Path 468" class="cls-26" d="M8.121,16.242,0,8.121,8.121,0"/>
              </g>
            </g>
          </g>
        </g>
      </g>
      <g id="Group_575" data-name="Group 575" transform="translate(1489.269 231.158)">
        <g id="Group_543-2" data-name="Group 543" transform="translate(0 0)">
          <g id="Group_542-2" data-name="Group 542" transform="translate(0 0)">
            <g id="Group_303-2" data-name="Group 303" transform="translate(1053.534) rotate(90)">
              <rect id="Rectangle_91-2" data-name="Rectangle 91" class="cls-16" width="663.978" height="1053.534" rx="37.326" transform="translate(18.744 0)"/>
              <line id="Line_103-2" data-name="Line 103" class="cls-17" x2="6.239" y2="24.925" transform="translate(30.954 932.202) rotate(-90)"/>
              <path id="Path_459-2" data-name="Path 459" class="cls-17" d="M22.206,25.389l1.477,5.9a7.689,7.689,0,0,1-5.591,9.325h0a7.689,7.689,0,0,1-9.325-5.591l-1.477-5.9L0,0" transform="translate(27.289 948.97) rotate(-90)"/>
              <rect id="Rectangle_27-2" data-name="Rectangle 27" class="cls-18" width="619.391" height="1008.947" rx="37.326" transform="translate(41.037 22.293)"/>
              <path id="Rectangle_28-2" data-name="Rectangle 28" class="cls-19" d="M33.865,0h0a0,0,0,0,1,0,0V1008.947a0,0,0,0,1,0,0h0A33.865,33.865,0,0,1,0,975.081V33.865A33.865,33.865,0,0,1,33.865,0Z" transform="translate(41.037 22.293)"/>
              <g id="Group_301-2" data-name="Group 301" transform="translate(124.713 1031.24) rotate(-90)">
                <line id="Line_104-2" data-name="Line 104" class="cls-20" x2="1008.947"/>
                <line id="Line_105-2" data-name="Line 105" class="cls-21" x2="1008.947" transform="translate(0 60.055)"/>
                <line id="Line_106-2" data-name="Line 106" class="cls-21" x2="1008.947" transform="translate(0 120.11)"/>
                <line id="Line_107-2" data-name="Line 107" class="cls-21" x2="1008.947" transform="translate(0 180.164)"/>
                <line id="Line_108-2" data-name="Line 108" class="cls-21" x2="1008.947" transform="translate(0 240.219)"/>
                <line id="Line_109-2" data-name="Line 109" class="cls-21" x2="1008.947" transform="translate(0 300.274)"/>
                <line id="Line_110-2" data-name="Line 110" class="cls-21" x2="1008.947" transform="translate(0 360.329)"/>
                <line id="Line_111-2" data-name="Line 111" class="cls-21" x2="1008.947" transform="translate(0 420.383)"/>
                <line id="Line_112-2" data-name="Line 112" class="cls-21" x2="1008.947" transform="translate(0 480.438)"/>
              </g>
              <g id="Group_302-2" data-name="Group 302" transform="translate(0 964.48) rotate(-90)">
                <path id="Path_461-2" data-name="Path 461" class="cls-17" d="M12.056,63.626.415,17.123A13.776,13.776,0,0,1,10.434.416h0A13.776,13.776,0,0,1,27.141,10.433l5.136,20.521" transform="translate(0)"/>
                <path id="Path_462-2" data-name="Path 462" class="cls-17" d="M0,0,10.937,43.689a19.379,19.379,0,0,0,23.5,14.093h0a19.379,19.379,0,0,0,14.092-23.5l-5.07-19.63" transform="translate(4.992 35.409)"/>
              </g>
            </g>
          </g>
        </g>
        <g id="Group_573-2" data-name="Group 573" transform="translate(69.732 105.224)">
          <text id="איך_מסמנים_סכו_ם_חלבי_" data-name="איך מסמנים סכו״ם חלבי?" class="cls-22" transform="translate(885.177 127.323)"><tspan x="-598.864" y="0">איך מסמנים סכו״ם חלבי?</tspan></text>
          <g id="Group_360" data-name="Group 360" transform="translate(63.013 202.373)">
            <g id="Group_348" data-name="Group 348" transform="translate(525.093 0)">
              <text id="צבע_כחול_בקצה" data-name="צבע כחול בקצה" class="cls-27" transform="translate(255.071 36.951)"><tspan x="-254.76" y="0">צבע כחול בקצה</tspan></text>
            </g>
            <g id="Group_349" data-name="Group 349" transform="translate(71.507 0)">
              <text id="סכו_ם_ללא_חורים" data-name="סכו״ם ללא חורים" class="cls-27" transform="translate(272.657 36.951)"><tspan x="-272.56" y="0">סכו״ם ללא חורים</tspan></text>
            </g>
            <g id="Group_350" data-name="Group 350" transform="translate(455.721 68.304)">
              <text id="סכו_ם_עם_חור_בקצה" data-name="סכו״ם עם חור בקצה" class="cls-27" transform="translate(322.443 36.647)"><tspan x="-322.04" y="0">סכו״ם עם חור בקצה</tspan></text>
            </g>
            <g id="Group_351" data-name="Group 351" transform="translate(0 68.305)">
              <text id="סכו_ם_עם_כוכב_בקצה" data-name="סכו״ם עם כוכב בקצה" class="cls-27" transform="translate(343.164 36.646)"><tspan x="-343.08" y="0">סכו״ם עם כוכב בקצה</tspan></text>
            </g>
            <g id="Group_571" data-name="Group 571" transform="translate(373.994 14.956)">
              <rect id="Rectangle_88" data-name="Rectangle 88" class="cls-28" width="24.237" height="24.237" rx="12.118"/>
            </g>
            <g id="Group_570" data-name="Group 570" transform="translate(373.994 83.334)">
              <rect id="Rectangle_89" data-name="Rectangle 89" class="cls-28" width="24.237" height="24.237" rx="12.118"/>
            </g>
            <g id="Group_569" data-name="Group 569" transform="translate(812.679 83.334)">
              <rect id="Rectangle_90" data-name="Rectangle 90" class="cls-28" width="24.237" height="24.237" rx="12.118"/>
            </g>
            <g id="Group_568" data-name="Group 568" transform="translate(812.679 14.956)">
              <rect id="Rectangle_65" data-name="Rectangle 65" class="cls-28" width="24.237" height="24.237" rx="12.118"/>
            </g>
          </g>
          <g id="Group_361-3" data-name="Group 361" transform="translate(-0.046 443.929)">
            <rect id="Rectangle_47-4" data-name="Rectangle 47" class="cls-23" width="83.761" height="70.536" rx="27" transform="translate(0 0)"/>
            <g id="Group_353-3" data-name="Group 353" transform="translate(38.216 27.123)">
              <g id="Group_354-3" data-name="Group 354" transform="translate(0 0)">
                <path id="Path_468-3" data-name="Path 468" class="cls-26" d="M8.641,16.763.52,8.642,8.641.52" transform="translate(-0.52 -0.52)"/>
              </g>
            </g>
          </g>
          <g id="Group_361-4" data-name="Group 361" class="cls-11" transform="translate(202.518 514.465) rotate(180)">
            <rect id="Rectangle_47-5" data-name="Rectangle 47" class="cls-23" width="83.761" height="70.536" rx="27"/>
            <g id="Group_353-4" data-name="Group 353" transform="translate(38.216 27.123)">
              <g id="Group_354-4" data-name="Group 354" transform="translate(0 0)">
                <path id="Path_468-4" data-name="Path 468" class="cls-26" d="M8.121,16.242,0,8.121,8.121,0"/>
              </g>
            </g>
          </g>
        </g>
      </g>
    </g>
    <g id="Group_582" data-name="Group 582" transform="translate(23 -729)">
      <rect id="Rectangle_42" data-name="Rectangle 42" class="cls-8" width="237.851" height="69.459" rx="19" transform="translate(358.151 1015.877)"/>
      <g id="Group_358" data-name="Group 358" transform="translate(-14)">
        <text id="_12_22" data-name="12/22" class="cls-29" transform="translate(587 1065)"><tspan x="-122.508" y="0">12/22</tspan></text>
        <text id="_13_22" data-name="13/22" class="cls-30" transform="translate(555 1098)"><tspan x="-56.658" y="0">13/22</tspan></text>
        <text id="_" data-name="#" class="cls-31" transform="translate(418 1072)"><tspan x="-20.73" y="0">#</tspan></text>
      </g>
    </g>
    <g id="Group_583" data-name="Group 583" transform="translate(-262.534 -729)">
      <rect id="Rectangle_42-2" data-name="Rectangle 42" class="cls-8" width="237.851" height="69.46" rx="19" transform="translate(374.686 1015.877)"/>
      <g id="Group_358-2" data-name="Group 358" transform="translate(419.767 1027)">
        <g id="Group_356" data-name="Group 356" class="cls-32" transform="translate(0 1.5)">
          <g id="Group_357" data-name="Group 357">
            <path id="Path_470" data-name="Path 470" class="cls-33" d="M38.271,27.757A18.385,18.385,0,1,1,19.885,9.372,18.386,18.386,0,0,1,38.271,27.757Z" transform="translate(-1.5 -1.5)"/>
            <path id="Path_471" data-name="Path 471" class="cls-33" d="M19.885,18.427v9.33l4.872,4.211" transform="translate(-1.5 -1.5)"/>
            <rect id="Rectangle_43" data-name="Rectangle 43" class="cls-34" width="1.156" height="3.887" transform="translate(17.807 2.974)"/>
            <rect id="Rectangle_44" data-name="Rectangle 44" class="cls-33" width="1.156" height="3.887" transform="translate(17.807 2.974)"/>
            <rect id="Rectangle_45" data-name="Rectangle 45" class="cls-34" width="5.985" height="2.024" transform="translate(15.393)"/>
            <rect id="Rectangle_46" data-name="Rectangle 46" class="cls-33" width="5.985" height="2.024" transform="translate(15.393)"/>
          </g>
        </g>
        <text id="_9:29" data-name="9:29" class="cls-29" transform="translate(147.768 38)"><tspan x="-91.963" y="0">9:29</tspan></text>
      </g>
    </g>
    <g id="Group_303-3" data-name="Group 303" transform="translate(3089.944 1194.732)">
      <g id="Group_330" data-name="Group 330" transform="translate(-2276.096 -1130.343)">
        <path id="Path_459-3" data-name="Path 459" class="cls-17" d="M-2331.6-1111.393l1.075,4.3a5.6,5.6,0,0,1-4.071,6.789h0a5.6,5.6,0,0,1-6.789-4.071l-1.075-4.3-5.308-21.2" transform="translate(2585.115 1149.744)"/>
        <line id="Line_118" data-name="Line 118" class="cls-17" x2="4.542" y2="18.146" transform="translate(249.522 22.535)"/>
        <rect id="Rectangle_27-3" data-name="Rectangle 27" class="cls-18" width="292.99" height="100.527" rx="27" transform="translate(0 26.186)"/>
        <g id="Group_331" data-name="Group 331" transform="translate(226.081)">
          <path id="Path_461-3" data-name="Path 461" class="cls-17" d="M-2362.005-1124.05l-8.475-33.855a10.029,10.029,0,0,1,7.293-12.164h0a10.029,10.029,0,0,1,12.164,7.293l3.74,14.94" transform="translate(2370.783 1170.372)"/>
          <path id="Path_462-3" data-name="Path 462" class="cls-17" d="M-2363.374-1117.828l7.962,31.807a14.109,14.109,0,0,0,17.112,10.26h0a14.108,14.108,0,0,0,10.26-17.112l-3.69-14.291" transform="translate(2367.009 1143.606)"/>
        </g>
      </g>
      <text id="מבחן" class="cls-35" transform="translate(-2130.944 -1036.732)"><tspan x="-54.925" y="0">מבחן</tspan></text>
    </g>
  </g>
</svg>
