<svg xmlns="http://www.w3.org/2000/svg" xmlns:xlink="http://www.w3.org/1999/xlink" width="1920" height="1080" viewBox="0 0 1920 1080">
  <defs>
    <style>
      .cls-1 {
        clip-path: url(#clip-skipQuestion_popup);
      }

      .cls-11, .cls-2, .cls-4 {
        fill: none;
      }

      .cls-2 {
        stroke: #708fa0;
      }

      .cls-11, .cls-2, .cls-7, .cls-9 {
        stroke-linecap: round;
      }

      .cls-2, .cls-4 {
        stroke-miterlimit: 10;
      }

      .cls-11, .cls-2 {
        stroke-width: 7px;
      }

      .cls-10, .cls-3, .cls-7 {
        fill: #fff;
      }

      .cls-4 {
        stroke: #b3b3b3;
        stroke-width: 8px;
      }

      .cls-5, .cls-6, .cls-8 {
        fill: #1c3f55;
      }

      .cls-5 {
        font-size: 48px;
      }

      .cls-10, .cls-5, .cls-8 {
        font-family: Rubik-Bold, Rubik;
        font-weight: 700;
      }

      .cls-6 {
        font-size: 29px;
        font-family: Rubik-Regular, Rubik;
      }

      .cls-7 {
        stroke: #dbdbdb;
      }

      .cls-7, .cls-9 {
        stroke-linejoin: round;
        stroke-width: 6px;
      }

      .cls-10, .cls-8 {
        font-size: 26px;
      }

      .cls-9 {
        fill: #2be8f7;
        stroke: #2be8f7;
      }

      .cls-11 {
        stroke: #1c3f55;
      }
    </style>
    <clipPath id="clip-skipQuestion_popup">
      <rect width="1920" height="1080"/>
    </clipPath>
  </defs>
  <g id="skipQuestion_popup" class="cls-1">
    <rect id="Rectangle_59" data-name="Rectangle 59" width="1920" height="1080"/>
    <g id="Group_579" data-name="Group 579" transform="translate(523 -54)">
      <g id="Group_303" data-name="Group 303" transform="translate(156.707 377.956)">
        <line id="Line_103" data-name="Line 103" class="cls-2" x2="5.64" y2="22.532" transform="translate(104.768 28.038)"/>
        <path id="Path_459" data-name="Path 459" class="cls-2" d="M-2327.693-1106.925l1.335,5.334a6.95,6.95,0,0,1-5.054,8.43h0a6.95,6.95,0,0,1-8.43-5.055l-1.335-5.334-6.591-26.328" transform="translate(2437.376 1154.602)"/>
        <rect id="Rectangle_27" data-name="Rectangle 27" class="cls-3" width="559.934" height="395.625" rx="37.326" transform="translate(0 35.701)"/>
        <path id="Path_460" data-name="Path 460" class="cls-4" d="M-2328.244-1161.541" transform="translate(2444.194 1161.541)"/>
        <g id="Group_302" data-name="Group 302" transform="translate(75.588 0.056)">
          <path id="Path_461" data-name="Path 461" class="cls-2" d="M-2359.883-1112.854l-10.524-42.039a12.453,12.453,0,0,1,9.056-15.1h0a12.453,12.453,0,0,1,15.1,9.056l4.643,18.551" transform="translate(2370.782 1170.371)"/>
          <path id="Path_462" data-name="Path 462" class="cls-2" d="M-2363.374-1117.828l9.886,39.495a17.519,17.519,0,0,0,21.249,12.74h0a17.519,17.519,0,0,0,12.739-21.248l-4.583-17.746" transform="translate(2367.887 1149.838)"/>
        </g>
      </g>
      <text id="אופס_" data-name="אופס!" class="cls-5" transform="translate(437 528)"><tspan x="-59.088" y="0">אופס!</tspan></text>
      <text id="לא_ענית_על_ההשאלה_לחזור_" data-name="לא ענית על ההשאלה… לחזור?" class="cls-6" transform="translate(431 585)"><tspan x="-175.914" y="0">לא ענית על ההשאלה… לחזור?</tspan></text>
      <g id="Group_362" data-name="Group 362" transform="translate(223.286 664.982)">
        <g id="Group_503" data-name="Group 503" transform="translate(0 0)">
          <rect id="Rectangle_48" data-name="Rectangle 48" class="cls-7" width="192.659" height="69.863" rx="23" transform="translate(0)"/>
          <text id="שאלה_הבאה" data-name="שאלה הבאה" class="cls-8" transform="translate(161.714 43.018)"><tspan x="-137.462" y="0">שאלה הבאה</tspan></text>
        </g>
        <g id="Group_533" data-name="Group 533" transform="translate(233.527 0)">
          <rect id="Rectangle_76" data-name="Rectangle 76" class="cls-9" width="192.659" height="69.863" rx="23" transform="translate(0)"/>
          <text id="תחזור_תחזור" data-name="תחזור תחזור" class="cls-10" transform="translate(164.187 43.018)"><tspan x="-141.674" y="0">תחזור תחזור</tspan></text>
        </g>
      </g>
      <g id="Group_515" data-name="Group 515" transform="translate(654.906 458.528)">
        <g id="Group_440" data-name="Group 440" transform="translate(0 0)">
          <g id="Group_372" data-name="Group 372" transform="translate(0 0) rotate(45)">
            <path id="Path_490" data-name="Path 490" class="cls-11" d="M30.772,0H0" transform="translate(0)"/>
          </g>
          <g id="Group_468" data-name="Group 468" transform="translate(0 0) rotate(45)">
            <path id="Path_490-2" data-name="Path 490" class="cls-11" d="M30.772,0H0" transform="translate(0)"/>
          </g>
        </g>
        <g id="Group_469" data-name="Group 469" transform="translate(21.759 0) rotate(90)">
          <g id="Group_372-2" data-name="Group 372" transform="translate(0 0) rotate(45)">
            <path id="Path_490-3" data-name="Path 490" class="cls-11" d="M30.772,0H0" transform="translate(0 0)"/>
          </g>
          <g id="Group_468-2" data-name="Group 468" transform="translate(0 0) rotate(45)">
            <path id="Path_490-4" data-name="Path 490" class="cls-11" d="M30.772,0H0" transform="translate(0 0)"/>
          </g>
        </g>
      </g>
    </g>
  </g>
</svg>
