<svg xmlns="http://www.w3.org/2000/svg" xmlns:xlink="http://www.w3.org/1999/xlink" width="1080" height="1920" viewBox="0 0 1080 1920">
  <defs>
    <style>
      .cls-1, .cls-10, .cls-12, .cls-13, .cls-16, .cls-17, .cls-18, .cls-20, .cls-6, .cls-7 {
        fill: none;
      }

      .cls-1 {
        stroke: #707070;
      }

      .cls-1, .cls-10, .cls-12, .cls-13, .cls-20, .cls-6 {
        stroke-width: 4px;
      }

      .cls-2 {
        clip-path: url(#clip-Opening);
      }

      .cls-19, .cls-21, .cls-3 {
        fill: #20c5f2;
      }

      .cls-16, .cls-17, .cls-4 {
        opacity: 0.1;
      }

      .cls-5 {
        clip-path: url(#clip-path);
      }

      .cls-10, .cls-6, .cls-7 {
        stroke: #fff;
      }

      .cls-12, .cls-16, .cls-17, .cls-18, .cls-20, .cls-6 {
        stroke-miterlimit: 10;
      }

      .cls-10, .cls-13, .cls-20, .cls-7 {
        stroke-linecap: round;
      }

      .cls-10, .cls-13, .cls-7 {
        stroke-linejoin: round;
      }

      .cls-16, .cls-17, .cls-7 {
        stroke-width: 5px;
      }

      .cls-14, .cls-23, .cls-24, .cls-8, .cls-9 {
        fill: #fff;
      }

      .cls-8 {
        font-size: 81px;
        font-family: Rubik-Bold, Rubik;
        font-weight: 700;
      }

      .cls-9 {
        font-size: 49px;
      }

      .cls-23, .cls-24, .cls-9 {
        font-family: Rubik-Regular, Rubik;
      }

      .cls-11 {
        fill: #0facd1;
      }

      .cls-12, .cls-13, .cls-20 {
        stroke: #708fa0;
      }

      .cls-15 {
        fill: #1de8f7;
      }

      .cls-16 {
        stroke: #ef4230;
      }

      .cls-17 {
        stroke: #26a6e0;
      }

      .cls-18 {
        stroke: #b3b3b3;
        stroke-width: 8px;
      }

      .cls-19 {
        opacity: 0.15;
      }

      .cls-21 {
        opacity: 0.2;
      }

      .cls-22 {
        fill: #ed2e45;
      }

      .cls-23, .cls-24 {
        font-size: 52px;
      }

      .cls-23 {
        text-decoration: underline;
      }
    </style>
    <clipPath id="clip-path">
      <rect id="Rectangle_2" data-name="Rectangle 2" class="cls-1" width="1080" height="1920" transform="translate(1080.11 -1996.931)"/>
    </clipPath>
    <clipPath id="clip-Opening">
      <rect width="1080" height="1920"/>
    </clipPath>
  </defs>
  <g id="Opening" class="cls-2">
    <rect class="cls-14" width="1080" height="1920"/>
    <g id="רקע">
      <path id="Path_32" data-name="Path 32" class="cls-3" d="M0,0H1080V1920H0Z"/>
      <g id="Group_3" data-name="Group 3" class="cls-4" transform="translate(-1080 1997.371)">
        <g id="Group_2" data-name="Group 2" class="cls-5">
          <g id="Group_1" data-name="Group 1">
            <path id="Path_1" data-name="Path 1" class="cls-6" d="M1257.6-450.1c-30.532-116.746-15.984-240.09,2.014-359.412,2.632-17.449,5.574-35.522,15.425-50.162s28.693-24.8,45.368-19.032c20.631,7.143,27.145,32.647,29.93,54.3a1122.165,1122.165,0,0,1-26.2,421.645c-3.425,13.3-9.451,28.853-22.938,31.466-10.827,2.1-21.477-5.992-26.361-15.88s-5.477-21.25-6.688-32.212-3.4-22.454-10.639-30.776"/>
            <path id="Path_2" data-name="Path 2" class="cls-6" d="M1263.765-283.708c-8.964-14.094-49.17-127.112-56.48-194.733s-5.4-135.882-2.16-203.82c4.407-92.332,11.545-185.928,42.883-272.892,8.929-24.78,25.026-52.671,51.349-53.6,24.141-.852,42.027,21.9,52.858,43.491,46.429,92.563,41.859,201.409,36.226,304.81-5.471,100.426-10.971,201.113-27.874,300.257-4.277,25.088-10.016,51.524-27.6,69.926S1272.729-269.614,1263.765-283.708Z"/>
            <path id="Path_3" data-name="Path 3" class="cls-6" d="M1168.568-636.032c3.405-109.235,10.345-218.619,28.244-326.541,7.713-46.5,17.776-93.557,41.167-134.48,12.322-21.557,30.6-42.508,55.161-46.13s48.844,11.784,62.893,32.27,19.9,45.339,25.29,69.589c7.689,34.62,15,69.358,20.255,104.441,2.627,17.522,4.637,35.1,6.144,52.751,1.109,12.974,5.486,25.187,5.728,38.123,1.362,73.022-4.278,144.61,7.057,217.336,8.364,53.666,23.9,106.729,22.893,161.034-.954,51.522-16.779,101.543-34.37,149.978-10.717,29.507-22.145,58.75-33.572,87.99-9.037,23.125-18.565,47.006-36.368,64.311s-46.352,26.182-68.022,14.065c-18.47-10.328-25.954-31.173-33.97-49.463-9.935-22.671-18.353-46.086-26.118-69.583a986.915,986.915,0,0,1-36.765-149.57c-5.46-33.215-11.593-67.715-8.273-101.12C1169.695-558.794,1167.385-598.065,1168.568-636.032Z"/>
            <path id="Path_4" data-name="Path 4" class="cls-6" d="M1336.563-63.338c63.422-102.526,128.185-208.552,147.259-327.59,14.506-90.533,1.568-182.956-11.372-273.726-23.584-165.43-47.251-331.281-89.412-492.977-11.195-42.935-29.585-91.83-72.058-104.668-34.246-10.351-71.971,8.852-93.7,37.272s-30.8,64.29-38.53,99.221c-77.9,351.9-71.451,722.366,20.2,1070.94"/>
            <path id="Path_5" data-name="Path 5" class="cls-6" d="M1440.548-60.076c125.831-179.54,146.322-414.1,119.205-631.663s-96.907-427.48-136.163-643.181c-15.233-83.7-25.741-170.67-5.011-253.182,18.514-73.694,60.658-138.83,92.591-207.778s53.882-148.483,29.308-220.383"/>
            <path id="Path_6" data-name="Path 6" class="cls-6" d="M1558.62-60.766c65.654-141.963,90.308-300.69,86.146-457.044s-36.321-310.856-80.045-461.03c-28.392-97.517-61.763-193.863-80.958-293.6s-23.717-204.392,5.42-301.69c26.057-87.01,77.5-163.795,117.633-245.275s69.529-174.493,47.1-262.509"/>
            <path id="Path_7" data-name="Path 7" class="cls-6" d="M2184.033-395.464c-32.14-91.146-64.545-183.478-73.034-279.75s9.4-198.5,69.05-274.533"/>
            <path id="Path_8" data-name="Path 8" class="cls-6" d="M2166.7-139.508c-151.477-379.231-146.453-818.3,13.66-1193.964"/>
            <path id="Path_9" data-name="Path 9" class="cls-6" d="M2120.036-42.6c-57.412-176.632-115.311-355.826-124.423-541.331-8.2-166.938,23.424-332.89,49.97-497.908,50.7-315.174,81.907-646.339-25.825-946.838"/>
            <path id="Path_10" data-name="Path 10" class="cls-6" d="M2093.03-2018.665c-1.722,111.041,42.765,222.086,120.675,301.225"/>
            <path id="Path_11" data-name="Path 11" class="cls-6" d="M1734.96-2018.852c-12.287,178.86-70.886,353.548-68.1,532.809,1.768,113.981,28.34,225.88,47.534,338.248,64.62,378.317,45.223,770.75-56.39,1140.85"/>
            <path id="Path_12" data-name="Path 12" class="cls-6" d="M1718.292-2009.268c-85,236.3-171.329,482.724-144.526,732.409,16.382,152.609,74.489,297.73,99.982,449.084,45.561,270.5-14.663,546.675-81.237,812.787"/>
            <path id="Path_13" data-name="Path 13" class="cls-6" d="M1745.3-64.817c-7.12-288.268,198.928-559.629,153.036-844.31-32.355-200.705-187.314-374.387-181.832-577.609,5.129-190.133,151.611-358.342,142.313-548.318"/>
            <path id="Path_14" data-name="Path 14" class="cls-6" d="M1818.476-626.02c14.58,6.365,51.629-203.376,20.3-301.713-2.521-7.91-5.442-16.013-11.211-21.983s-15.157-9.225-22.609-5.567c-9.394,4.612-11.313,16.935-11.965,27.38a2265.961,2265.961,0,0,0-2.609,231.159C1791.5-668.609,1803.9-632.386,1818.476-626.02Z"/>
            <path id="Path_15" data-name="Path 15" class="cls-6" d="M1813.417-66.442c26.464-181.286,75.309-358.475,111.167-538.139,48.027-240.642,72.71-485.879,74.8-731.257,2.034-239.4-17.419-478.889-56.008-715.167"/>
            <path id="Path_16" data-name="Path 16" class="cls-6" d="M1857.417-50.912c14.251-53.509,28.549-107.161,48.919-158.652,9.3-23.506,24.881-50.1,50.15-50.829,15.948-.46,30.466,10.522,38.762,24.152s11.538,29.646,14.642,45.3Q2026-109.737,2042.1-28.529"/>
            <path id="Path_17" data-name="Path 17" class="cls-6" d="M1923.532-51.617a512.986,512.986,0,0,1,20.554-139.694c2.36-8.075,6.7-17.587,15.094-18.171,11.164-.777,15.592,14.058,16.092,25.238q3.844,86.108-.691,172.317"/>
            <path id="Path_18" data-name="Path 18" class="cls-6" d="M1911.563-1769.445c58.447.7,19.039,305.237,28.558,457.855,1.465,23.473,2.777,47.914-6.281,69.618s-31.834,39.624-54.894,35.007c-20.035-4.011-33.356-22.694-43.3-40.542a444.744,444.744,0,0,1-51.507-276.076C1797.388-1617.928,1853.115-1770.143,1911.563-1769.445Z"/>
            <path id="Path_19" data-name="Path 19" class="cls-6" d="M1851.473-1319.31a396.34,396.34,0,0,1-33.924-230.583c2.5-16.018,6.175-32.34,15.336-45.715s24.934-23.291,41.028-21.341c17.721,2.147,31.282,18.06,36.27,35.2s3.147,35.426,1.262,53.176q-9.594,90.379-19.19,180.758c-.923,8.694-1.9,17.581-5.653,25.477s-10.882,14.752-19.57,15.736S1851.473-1319.31,1851.473-1319.31Z"/>
            <path id="Path_20" data-name="Path 20" class="cls-6" d="M1060.712-954.877c21.558-112.081,45.07-228.647,114.526-319.217,36.179-47.176,83.276-85.013,120.287-131.539s64.082-107.016,49.842-164.737c-11.433-46.346-46.933-82.161-79.074-117.455-75.092-82.455-139.045-174.847-191.839-273.084"/>
            <path id="Path_21" data-name="Path 21" class="cls-6" d="M1153.026-2042.315c5.409,56.8,25.474,111.426,51.962,161.963s59.369,97.4,92.15,144.1c10.326,14.71,21.4,30.058,37.693,37.632,22.955,10.668,51.141,2.751,70.835-13.152,26.231-21.182,40.109-53.9,50.294-86.044a612.3,612.3,0,0,0,26.256-236.811"/>
          </g>
          <path id="Path_22" data-name="Path 22" class="cls-6" d="M1786.884-1295.337a505.5,505.5,0,0,1-26.37-265.553c11.452-66.817,36.249-130.5,60.9-193.656q28.614-73.323,57.23-146.647c4.393-11.256,10.36-23.965,22.078-26.911,9.978-2.509,20.522,3.632,26.309,12.139s7.843,18.933,9.7,29.051a2298.97,2298.97,0,0,1,8.469,780.276c-3.352,20.756-11.7,46.2-32.586,48.573-20.748,2.358-34.585-20.234-42.888-39.393C1842.037-1161.351,1786.884-1295.337,1786.884-1295.337Z"/>
          <path id="Path_23" data-name="Path 23" class="cls-6" d="M1506.451-67.98C1592.2-275.226,1644.755-503.9,1603-724.268c-21.805-115.068-68.449-223.754-101.15-336.211a1425.442,1425.442,0,0,1-56.6-399.664c.121-74.363,6.333-149.882,32.546-219.473,21.757-57.761,56.581-109.6,82.933-165.417s44.3-119.242,29.235-179.1"/>
          <path id="Path_24" data-name="Path 24" class="cls-6" d="M1056.075-1284.478c19.761-31.374,52.234-52.473,85.369-69.113s68.158-29.966,98.829-50.8,57.371-51.015,63.576-87.571c4.824-28.414-3.336-57.939-17.98-82.762s-35.405-45.465-57.232-64.285c-73.509-63.383-163.594-111.54-215.507-193.552"/>
          <path id="Path_25" data-name="Path 25" class="cls-6" d="M1044.465-1466.812c56.612-1.554,113.625-3.156,168.939-15.309,8.75-1.923,17.591-4.166,25.275-8.773s14.168-11.945,15.762-20.761c1.8-9.969-2.968-20.267-10.212-27.35s-16.678-11.447-26.119-15.121c-57.168-22.246-120.2-23.617-181.473-20.626"/>
          <path id="Path_26" data-name="Path 26" class="cls-6" d="M1236.475-2005.926c2.14,35.07,6.438,70.211,16.57,103.853s26.32,65.869,50.171,91.668c9.619,10.4,21.127,20.063,35.035,22.767,14.613,2.842,30.363-2.87,40.476-13.793s14.6-26.552,12.81-41.329c-3.037-24.995-22.527-46.549-21.963-71.721.8-35.713,41.194-61.541,40.974-97.262"/>
          <path id="Path_27" data-name="Path 27" class="cls-6" d="M1426.489-1950.04a44.52,44.52,0,0,0-17.912,35.285c-.01,9.786,4.7,20.823,14.18,23.263,7.726,1.99,16.02-2.728,20.253-9.49s5.131-15.088,4.965-23.064c-.156-7.472-1.282-15.275-5.653-21.338s-12.769-9.738-19.6-6.7"/>
          <path id="Path_28" data-name="Path 28" class="cls-6" d="M1283.962-2001.935a268.443,268.443,0,0,0-2.857,54.22c.446,9.124,2.053,19.462,9.636,24.555,7.344,4.932,17.634,2.681,24.764-2.556s12.017-12.881,17.507-19.817c7.8-9.86,17.1-18.577,23.813-29.208s10.629-24.06,6.265-35.852"/>
          <path id="Path_29" data-name="Path 29" class="cls-6" d="M1777.012-1078.768a69.518,69.518,0,0,0,1.62,53.871c3.241,7,8.5,14.013,16.1,15.346,5.776,1.012,11.789-1.648,15.815-5.911s6.28-9.932,7.51-15.666a54.887,54.887,0,0,0-7.612-41.008c-4.222-6.466-10.4-12.3-18.042-13.378s-16.387,4.434-16.457,12.155"/>
          <path id="Path_30" data-name="Path 30" class="cls-6" d="M1325.175-1374.136c-8.89,8.079-14.8,19.569-15.4,31.567s4.342,24.318,13.584,31.993c8.73,7.25,20.585,10.158,28.74,18.05,4.98,4.818,8.781,11.583,15.445,13.483,5.24,1.495,11.014-.629,15.06-4.281,7.492-6.761,9.623-17.9,8.219-27.891s-5.8-19.273-9.577-28.63-7.042-19.32-6.005-29.358c.718-6.946,3.381-14.426.028-20.551s-11.552-7.994-18.423-6.709c-13.623,2.548-23.514,14.017-32.253,24.774"/>
          <path id="Path_31" data-name="Path 31" class="cls-6" d="M1933.819-315.24a73.817,73.817,0,0,1-8.392-68.918c4.215-10.6,10.9-20.142,14.468-30.979,2.428-7.385,3.586-15.67,9-21.247a18.382,18.382,0,0,1,22.813-2.293c6.265,4.284,9.18,12.236,9.356,19.824s-1.975,15.01-3.934,22.343-3.758,14.908-2.863,22.445c1.526,12.847,10.662,23.915,11.784,36.8.634,7.283-1.58,14.963-6.722,20.161-6,6.07-15.235,8.08-23.706,7.015s-16.351-4.833-23.818-8.973"/>
        </g>
      </g>
    </g>
    <g id="Group_506" data-name="Group 506">
      <g id="גלילה" transform="translate(500.329 1318.335)">
        <g id="Group_28" data-name="Group 28">
          <path id="Path_73" data-name="Path 73" class="cls-7" d="M497.555,1741.558l11.091-10.883,11.091,10.883" transform="translate(-497.555 -1730.675)"/>
          <line id="Line_71" data-name="Line 71" class="cls-7" x1="11.091" y1="10.883" transform="translate(0 34.576)"/>
          <line id="Line_72" data-name="Line 72" class="cls-7" x1="11.091" y2="10.883" transform="translate(11.091 34.576)"/>
          <line id="Line_73" data-name="Line 73" class="cls-7" y2="43.7" transform="translate(11.091)"/>
        </g>
        <g id="Group_31" data-name="Group 31" transform="translate(15.317 30.03)">
          <g id="Group_30" data-name="Group 30">
            <g id="Group_29" data-name="Group 29">
              <line id="Line_74" data-name="Line 74" class="cls-7" y2="7.137" transform="translate(29.719 26.241)"/>
              <path id="Path_74" data-name="Path 74" class="cls-7" d="M517.7,1789.419v-34.894a5.621,5.621,0,0,1,5.679-5.556,5.766,5.766,0,0,1,4.007,1.625,5.484,5.484,0,0,1,1.658,3.931v14.084" transform="translate(-499.32 -1748.969)"/>
              <line id="Line_75" data-name="Line 75" class="cls-7" y2="7.216" transform="translate(52.39 30.156)"/>
              <path id="Path_75" data-name="Path 75" class="cls-7" d="M525.087,1780.182l-8.705-8.667a5.726,5.726,0,0,0-8.013,0,5.49,5.49,0,0,0,0,7.863l14.287,14.02,8.11,7.343h39.678v-31.8a5.625,5.625,0,0,0-5.679-5.573,5.7,5.7,0,0,0-4.006,1.625,5.561,5.561,0,0,0-1.658,3.948" transform="translate(-506.711 -1739.732)"/>
              <path id="Path_76" data-name="Path 76" class="cls-7" d="M535.82,1768.142v-5.036a5.624,5.624,0,0,0-5.681-5.558,5.768,5.768,0,0,0-4.006,1.627,5.49,5.49,0,0,0-1.656,3.932v6.6" transform="translate(-494.758 -1743.465)"/>
              <path id="Path_77" data-name="Path 77" class="cls-7" d="M531.258,1777.479v-11.305a5.608,5.608,0,0,1,5.663-5.556,5.7,5.7,0,0,1,4.006,1.625,5.553,5.553,0,0,1,1.658,3.931v5.479" transform="translate(-490.195 -1741.497)"/>
            </g>
          </g>
        </g>
      </g>
      <g id="טקסט" transform="translate(0 657)">
        <g id="כותרת" transform="translate(0.001 -59.541)">
          <text id="הכשרות_במטבחי_צה_ל" data-name="הכשרות במטבחי צה״ל" class="cls-8" transform="translate(539.999 384.541)"><tspan x="-388.8" y="0">הכשרות במטבחי צה״ל</tspan></text>
          <g id="Group_544" data-name="Group 544">
            <text id="בלמ_ס" data-name="בלמ״ס" class="cls-9" transform="translate(539.999 221.541)"><tspan x="-65.881" y="0">בלמ״ס</tspan></text>
            <line id="Line_1" data-name="Line 1" class="cls-10" x2="55.104" transform="translate(512.448 248.91)"/>
          </g>
        </g>
      </g>
      <g id="גרפיקה" transform="translate(0.352 1546.961)">
        <g id="Group_10" data-name="Group 10">
          <g id="Group_6" data-name="Group 6">
            <path id="Path_33" data-name="Path 33" class="cls-11" d="M852.314,1243.838l146.562-67.625c6.338-2.924,11.476-12,11.476-20.261V836.137c-.672-15.373-14.269-24.092-22.959-19.349l-135.079,77.3c-6.338,2.925-11.476,12-11.476,20.262l-10.169,311.261C830.59,1234.5,844.8,1247.137,852.314,1243.838Z"/>
            <line id="Line_2" data-name="Line 2" class="cls-12" x1="2.642" y2="14.987" transform="translate(959.738 824.82)"/>
            <path id="Path_34" data-name="Path 34" class="cls-13" d="M959.2,838.29l-.626,3.548c-.437,2.477.624,4.294,2.368,4.058h0c1.745-.235,3.513-2.434,3.949-4.91l.626-3.548,3.088-17.511"/>
            <path id="Path_35" data-name="Path 35" class="cls-14" d="M842.066,1233.59l146.562-67.625c6.338-2.924,11.476-12,11.476-20.261V825.889c0-8.266-5.138-12.6-11.476-9.671L842.066,883.842c-6.338,2.925-11.476,12-11.476,20.262v319.814C830.59,1232.184,835.728,1236.514,842.066,1233.59Z"/>
            <path id="Path_36" data-name="Path 36" class="cls-15" d="M988.628,1165.965h0c6.338-2.924,11.476-12,11.476-20.261V825.889c0-8.266-5.138-12.6-11.476-9.671h0Z"/>
            <g id="Group_4" data-name="Group 4">
              <line id="Line_3" data-name="Line 3" class="cls-16" x1="158.038" y2="72.92" transform="translate(830.59 839.962)"/>
              <line id="Line_4" data-name="Line 4" class="cls-17" x1="158.038" y2="72.92" transform="translate(830.59 867.322)"/>
              <line id="Line_5" data-name="Line 5" class="cls-17" x1="158.038" y2="72.92" transform="translate(830.59 894.683)"/>
              <line id="Line_6" data-name="Line 6" class="cls-17" x1="158.038" y2="72.92" transform="translate(830.59 922.044)"/>
              <line id="Line_7" data-name="Line 7" class="cls-17" x1="158.038" y2="72.92" transform="translate(830.59 949.404)"/>
              <line id="Line_8" data-name="Line 8" class="cls-17" x1="158.038" y2="72.92" transform="translate(830.59 976.765)"/>
              <line id="Line_9" data-name="Line 9" class="cls-17" x1="158.038" y2="72.92" transform="translate(830.59 1004.126)"/>
              <line id="Line_10" data-name="Line 10" class="cls-17" x1="158.038" y2="72.92" transform="translate(830.59 1031.486)"/>
              <line id="Line_11" data-name="Line 11" class="cls-17" x1="158.038" y2="72.92" transform="translate(830.59 1058.847)"/>
              <line id="Line_12" data-name="Line 12" class="cls-17" x1="158.038" y2="72.92" transform="translate(830.59 1086.208)"/>
              <line id="Line_13" data-name="Line 13" class="cls-17" x1="158.038" y2="72.92" transform="translate(830.59 1113.568)"/>
              <line id="Line_14" data-name="Line 14" class="cls-17" x1="158.038" y2="72.92" transform="translate(830.59 1140.929)"/>
            </g>
            <path id="Path_37" data-name="Path 37" class="cls-18" d="M965,813.023"/>
            <g id="Group_5" data-name="Group 5">
              <path id="Path_38" data-name="Path 38" class="cls-12" d="M970.945,838.915l4.93-27.961c.783-4.437-1.117-7.692-4.242-7.271h0c-3.126.422-6.294,4.361-7.077,8.8l-2.175,12.338"/>
              <path id="Path_39" data-name="Path 39" class="cls-13" d="M973.937,821.949,969.3,848.218c-1.1,6.242-5.558,11.784-9.955,12.377h0c-4.4.594-7.069-3.986-5.969-10.228l2.785-15.8"/>
            </g>
          </g>
          <g id="Group_9" data-name="Group 9">
            <path id="Path_40" data-name="Path 40" class="cls-11" d="M227.686,1099.95,81.124,1032.325c-6.338-2.924-11.476-12-11.476-20.261V692.249c0-10.856,13.226-24.9,22.959-19.349l135.079,77.3c6.338,2.925,11.476,12,11.476,20.262l5.822,314.908C244.984,1093.638,235.2,1103.249,227.686,1099.95Z"/>
            <line id="Line_15" data-name="Line 15" class="cls-13" x2="2.642" y2="14.987" transform="translate(117.619 680.932)"/>
            <path id="Path_41" data-name="Path 41" class="cls-13" d="M120.805,694.4l.626,3.548c.437,2.477-.624,4.294-2.368,4.058h0c-1.745-.235-3.513-2.434-3.949-4.91l-.626-3.548L111.4,676.039"/>
            <path id="Path_42" data-name="Path 42" class="cls-14" d="M237.934,1089.7,91.372,1022.077c-6.338-2.924-11.476-12-11.476-20.261V682c0-8.266,5.138-12.6,11.476-9.671l146.562,67.624c6.338,2.925,11.476,12,11.476,20.262V1080.03C249.41,1088.3,244.272,1092.626,237.934,1089.7Z"/>
            <path id="Path_43" data-name="Path 43" class="cls-15" d="M91.372,1022.077h0c-6.338-2.924-11.476-12-11.476-20.261V682c0-8.266,5.138-12.6,11.476-9.671h0Z"/>
            <g id="Group_7" data-name="Group 7">
              <line id="Line_16" data-name="Line 16" class="cls-16" x2="158.038" y2="72.92" transform="translate(91.372 696.074)"/>
              <line id="Line_17" data-name="Line 17" class="cls-17" x2="158.038" y2="72.92" transform="translate(91.372 723.434)"/>
              <line id="Line_18" data-name="Line 18" class="cls-17" x2="158.038" y2="72.92" transform="translate(91.372 750.795)"/>
              <line id="Line_19" data-name="Line 19" class="cls-17" x2="158.038" y2="72.92" transform="translate(91.372 778.156)"/>
              <line id="Line_20" data-name="Line 20" class="cls-17" x2="158.038" y2="72.92" transform="translate(91.372 805.516)"/>
              <line id="Line_21" data-name="Line 21" class="cls-17" x2="158.038" y2="72.92" transform="translate(91.372 832.877)"/>
              <line id="Line_22" data-name="Line 22" class="cls-17" x2="158.038" y2="72.92" transform="translate(91.372 860.238)"/>
              <line id="Line_23" data-name="Line 23" class="cls-17" x2="158.038" y2="72.92" transform="translate(91.372 887.598)"/>
              <line id="Line_24" data-name="Line 24" class="cls-17" x2="158.038" y2="72.92" transform="translate(91.372 914.959)"/>
              <line id="Line_25" data-name="Line 25" class="cls-17" x2="158.038" y2="72.92" transform="translate(91.372 942.32)"/>
              <line id="Line_26" data-name="Line 26" class="cls-17" x2="158.038" y2="72.92" transform="translate(91.372 969.68)"/>
              <line id="Line_27" data-name="Line 27" class="cls-17" x2="158.038" y2="72.92" transform="translate(91.372 997.041)"/>
            </g>
            <path id="Path_44" data-name="Path 44" class="cls-18" d="M115,669.135"/>
            <g id="Group_8" data-name="Group 8">
              <path id="Path_45" data-name="Path 45" class="cls-13" d="M109.055,695.027l-4.93-27.961c-.783-4.437,1.117-7.692,4.242-7.27h0c3.126.421,6.294,4.36,7.077,8.8l2.175,12.338"/>
              <path id="Path_46" data-name="Path 46" class="cls-13" d="M106.063,678.061l4.632,26.269c1.1,6.242,5.558,11.784,9.955,12.377h0c4.4.594,7.069-3.986,5.969-10.228l-2.785-15.8"/>
            </g>
          </g>
        </g>
        <g id="Group_17" data-name="Group 17">
          <g id="Group_13" data-name="Group 13">
            <path id="Path_47" data-name="Path 47" class="cls-11" d="M676.421,1001.616l205.12-37.04c8.87-1.6,16.061-10.893,16.061-20.752V562.346c0-12.949-13.7-27.144-25.86-24.074L676.421,584.434c-8.87,1.6-16.061,10.893-16.061,20.752l-8.744,373.337C651.616,988.383,665.908,1003.315,676.421,1001.616Z"/>
            <path id="Path_48" data-name="Path 48" class="cls-19" d="M679.236,1013.088,889.43,975.132c9.09-1.641,16.459-11.162,16.459-21.266V562.952c0-13.27-14.036-27.815-26.5-24.67l-200.153,47.3c-9.089,1.641-16.458,11.163-16.458,21.266l-8.961,382.572C653.817,999.528,668.464,1014.829,679.236,1013.088Z"/>
            <line id="Line_28" data-name="Line 28" class="cls-12" x1="3.698" y2="17.09" transform="translate(832.364 540.531)"/>
            <path id="Path_49" data-name="Path 49" class="cls-20" d="M831.6,555.649l-.876,4.046c-.611,2.824.873,5.307,3.315,5.545h0c2.441.239,4.916-1.857,5.527-4.682l.875-4.045,4.322-19.969"/>
            <path id="Path_50" data-name="Path 50" class="cls-14" d="M667.677,992.3,872.8,955.264c8.871-1.6,16.061-10.893,16.061-20.753V553.034c0-9.86-7.19-16.554-16.061-14.952L667.677,575.121c-8.871,1.6-16.061,10.893-16.061,20.753V977.352C651.616,987.211,658.806,993.906,667.677,992.3Z"/>
            <path id="Path_51" data-name="Path 51" class="cls-15" d="M872.8,955.264h0c8.871-1.6,16.061-10.893,16.061-20.753V553.034c0-9.86-7.19-16.554-16.061-14.952h0Z"/>
            <g id="Group_11" data-name="Group 11">
              <line id="Line_29" data-name="Line 29" class="cls-16" x1="221.181" y2="39.94" transform="translate(651.616 566.404)"/>
              <line id="Line_30" data-name="Line 30" class="cls-17" x1="221.181" y2="39.94" transform="translate(651.616 599.04)"/>
              <line id="Line_31" data-name="Line 31" class="cls-17" x1="221.181" y2="39.94" transform="translate(651.616 631.676)"/>
              <line id="Line_32" data-name="Line 32" class="cls-17" x1="221.181" y2="39.94" transform="translate(651.616 664.312)"/>
              <line id="Line_33" data-name="Line 33" class="cls-17" x1="221.181" y2="39.94" transform="translate(651.616 696.948)"/>
              <line id="Line_34" data-name="Line 34" class="cls-17" x1="221.181" y2="39.94" transform="translate(651.616 729.584)"/>
              <line id="Line_35" data-name="Line 35" class="cls-17" x1="221.181" y2="39.94" transform="translate(651.616 762.22)"/>
              <line id="Line_36" data-name="Line 36" class="cls-17" x1="221.181" y2="39.94" transform="translate(651.616 794.856)"/>
              <line id="Line_37" data-name="Line 37" class="cls-17" x1="221.181" y2="39.94" transform="translate(651.616 827.492)"/>
              <line id="Line_38" data-name="Line 38" class="cls-17" x1="221.181" y2="39.94" transform="translate(651.616 860.128)"/>
              <line id="Line_39" data-name="Line 39" class="cls-17" x1="221.181" y2="39.94" transform="translate(651.616 892.764)"/>
              <line id="Line_40" data-name="Line 40" class="cls-17" x1="221.181" y2="39.94" transform="translate(651.616 925.401)"/>
            </g>
            <path id="Path_52" data-name="Path 52" class="cls-18" d="M839.73,527.239"/>
            <g id="Group_12" data-name="Group 12">
              <path id="Path_53" data-name="Path 53" class="cls-12" d="M848.048,559.892l6.9-31.884c1.1-5.06-1.563-9.509-5.938-9.936h0c-4.374-.427-8.808,3.329-9.9,8.389l-3.045,14.07"/>
              <path id="Path_54" data-name="Path 54" class="cls-20" d="M852.235,540.545,845.753,570.5c-1.541,7.119-7.778,12.4-13.932,11.8h0c-6.154-.6-9.894-6.859-8.354-13.977l3.9-18.012"/>
            </g>
          </g>
          <g id="Group_16" data-name="Group 16">
            <path id="Path_55" data-name="Path 55" class="cls-11" d="M393.275,1401.828l-205.12-37.04c-8.87-1.6-16.061-10.893-16.061-20.753V962.558c0-12.95,13.7-27.144,25.86-24.074l195.321,46.161c8.87,1.6,16.061,10.893,16.061,20.753l8.744,373.337C418.08,1388.595,403.788,1403.527,393.275,1401.828Z"/>
            <path id="Path_56" data-name="Path 56" class="cls-19" d="M390.892,1401.825l-209.811-37.887c-9.073-1.638-16.428-11.142-16.428-21.227v-390.2c0-13.246,14.01-27.765,26.451-24.625L390.892,975.1c9.073,1.639,16.428,11.142,16.428,21.227l8.945,381.876C416.265,1388.289,401.645,1403.562,390.892,1401.825Z"/>
            <line id="Line_41" data-name="Line 41" class="cls-12" x2="3.698" y2="17.09" transform="translate(233.634 940.742)"/>
            <path id="Path_57" data-name="Path 57" class="cls-13" d="M238.093,955.861l.876,4.046c.611,2.824-.873,5.306-3.315,5.545h0c-2.441.238-4.916-1.858-5.527-4.682l-.875-4.046-4.322-19.968"/>
            <path id="Path_58" data-name="Path 58" class="cls-14" d="M402.019,1392.515,196.9,1355.476c-8.871-1.6-16.061-10.893-16.061-20.753V953.245c0-9.859,7.19-16.554,16.061-14.952l205.119,37.04c8.871,1.6,16.061,10.893,16.061,20.753v381.477C418.08,1387.423,410.89,1394.117,402.019,1392.515Z"/>
            <path id="Path_59" data-name="Path 59" class="cls-15" d="M196.9,1355.476h0c-8.871-1.6-16.061-10.893-16.061-20.753V953.245c0-9.859,7.19-16.554,16.061-14.952h0Z"/>
            <g id="Group_14" data-name="Group 14">
              <line id="Line_42" data-name="Line 42" class="cls-16" x2="221.181" y2="39.94" transform="translate(196.9 966.615)"/>
              <line id="Line_43" data-name="Line 43" class="cls-17" x2="221.181" y2="39.94" transform="translate(196.9 999.251)"/>
              <line id="Line_44" data-name="Line 44" class="cls-17" x2="221.181" y2="39.94" transform="translate(196.9 1031.887)"/>
              <line id="Line_45" data-name="Line 45" class="cls-17" x2="221.181" y2="39.94" transform="translate(196.9 1064.524)"/>
              <line id="Line_46" data-name="Line 46" class="cls-17" x2="221.181" y2="39.94" transform="translate(196.9 1097.16)"/>
              <line id="Line_47" data-name="Line 47" class="cls-17" x2="221.181" y2="39.94" transform="translate(196.9 1129.796)"/>
              <line id="Line_48" data-name="Line 48" class="cls-17" x2="221.181" y2="39.94" transform="translate(196.9 1162.432)"/>
              <line id="Line_49" data-name="Line 49" class="cls-17" x2="221.181" y2="39.94" transform="translate(196.9 1195.068)"/>
              <line id="Line_50" data-name="Line 50" class="cls-17" x2="221.181" y2="39.94" transform="translate(196.9 1227.704)"/>
              <line id="Line_51" data-name="Line 51" class="cls-17" x2="221.181" y2="39.94" transform="translate(196.9 1260.34)"/>
              <line id="Line_52" data-name="Line 52" class="cls-17" x2="221.181" y2="39.94" transform="translate(196.9 1292.976)"/>
              <line id="Line_53" data-name="Line 53" class="cls-17" x2="221.181" y2="39.94" transform="translate(196.9 1325.612)"/>
            </g>
            <path id="Path_60" data-name="Path 60" class="cls-18" d="M229.966,927.451"/>
            <g id="Group_15" data-name="Group 15">
              <path id="Path_61" data-name="Path 61" class="cls-13" d="M221.648,960.1l-6.9-31.885c-1.1-5.06,1.563-9.508,5.938-9.935h0c4.374-.427,8.808,3.328,9.9,8.388l3.045,14.07"/>
              <path id="Path_62" data-name="Path 62" class="cls-13" d="M217.461,940.757l6.482,29.955c1.541,7.118,7.778,12.4,13.932,11.8h0c6.154-.6,9.894-6.859,8.354-13.978l-3.9-18.011"/>
            </g>
          </g>
        </g>
        <g id="Group_20" data-name="Group 20">
          <rect id="Rectangle_3" data-name="Rectangle 3" class="cls-21" width="353.946" height="547.122" rx="15" transform="translate(363.027 606.328)"/>
          <rect id="Rectangle_4" data-name="Rectangle 4" class="cls-11" width="324.475" height="516.013" rx="15" transform="translate(377.762 626.275)"/>
          <line id="Line_54" data-name="Line 54" class="cls-12" x2="5.085" y2="20.312" transform="translate(449.5 609.315)"/>
          <path id="Path_63" data-name="Path 63" class="cls-13" d="M455.63,627.019l1.2,4.809a6.265,6.265,0,0,1-4.557,7.6h0a6.266,6.266,0,0,1-7.6-4.556l-1.2-4.809-5.941-23.734"/>
          <rect id="Rectangle_5" data-name="Rectangle 5" class="cls-14" width="326.173" height="516.013" rx="15" transform="translate(376.914 614.49)"/>
          <path id="Rectangle_6" data-name="Rectangle 6" class="cls-15" d="M15,0h7.082a0,0,0,0,1,0,0V516.013a0,0,0,0,1,0,0H15a15,15,0,0,1-15-15V15A15,15,0,0,1,15,0Z" transform="translate(376.914 614.49)"/>
          <g id="Group_18" data-name="Group 18">
            <line id="Line_55" data-name="Line 55" class="cls-16" x2="304.091" transform="translate(398.995 649.522)"/>
            <line id="Line_56" data-name="Line 56" class="cls-17" x2="304.091" transform="translate(398.995 689.89)"/>
            <line id="Line_57" data-name="Line 57" class="cls-17" x2="304.091" transform="translate(398.995 730.257)"/>
            <line id="Line_58" data-name="Line 58" class="cls-17" x2="304.091" transform="translate(398.995 770.625)"/>
            <line id="Line_59" data-name="Line 59" class="cls-17" x2="304.091" transform="translate(398.995 810.992)"/>
            <line id="Line_60" data-name="Line 60" class="cls-17" x2="304.091" transform="translate(398.995 851.36)"/>
            <line id="Line_61" data-name="Line 61" class="cls-17" x2="304.091" transform="translate(398.995 891.727)"/>
            <line id="Line_62" data-name="Line 62" class="cls-17" x2="304.091" transform="translate(398.995 932.095)"/>
            <line id="Line_63" data-name="Line 63" class="cls-17" x2="304.091" transform="translate(398.995 972.463)"/>
            <line id="Line_64" data-name="Line 64" class="cls-17" x2="304.091" transform="translate(398.995 1012.83)"/>
            <line id="Line_65" data-name="Line 65" class="cls-17" x2="304.091" transform="translate(398.995 1053.198)"/>
            <line id="Line_66" data-name="Line 66" class="cls-17" x2="304.091" transform="translate(398.995 1093.565)"/>
          </g>
          <path id="Path_64" data-name="Path 64" class="cls-18" d="M444.457,593.694"/>
          <g id="Group_19" data-name="Group 19">
            <path id="Path_65" data-name="Path 65" class="cls-13" d="M433.02,635.941l-9.486-37.9a11.226,11.226,0,0,1,8.164-13.616h0a11.226,11.226,0,0,1,13.615,8.164l4.187,16.723"/>
            <path id="Path_66" data-name="Path 66" class="cls-13" d="M427.264,612.945l8.912,35.6a15.793,15.793,0,0,0,19.155,11.485h0a15.793,15.793,0,0,0,11.485-19.155l-5.359-21.408"/>
          </g>
        </g>
        <circle id="Ellipse_1" data-name="Ellipse 1" class="cls-22" cx="11.53" cy="11.53" r="11.53" transform="translate(369.167 606.998)"/>
        <ellipse id="Ellipse_2" data-name="Ellipse 2" class="cls-22" cx="9.365" cy="6.65" rx="9.365" ry="6.65" transform="matrix(0.503, -0.864, 0.864, 0.503, 874.662, 546.726)"/>
        <ellipse id="Ellipse_3" data-name="Ellipse 3" class="cls-22" cx="4.916" cy="7.04" rx="4.916" ry="7.04" transform="translate(75.403 668.45) rotate(-18.251)"/>
      </g>
      <text id="אודות" class="cls-23" transform="translate(540 2029)"><tspan x="-59.566" y="0">אודות</tspan></text>
      <text id="למדו_את_נושאי_השיעור_השונים_וברגע_שתרגישו_מוכנים_-_בחנו_את_עצמכם" data-name="למדו את נושאי השיעור השונים
וברגע שתרגישו מוכנים - בחנו את עצמכם" class="cls-24" transform="translate(540 3118)"><tspan x="-313.144" y="0"></tspan><tspan y="0">למדו את נושאי השיעור השונים</tspan><tspan x="-425.152" y="62">וברגע שתרגישו מוכנים - בחנו את עצמכם</tspan></text>
    </g>
  </g>
</svg>
