<?xml version="1.0" encoding="utf-8"?>
<!-- Generator: Adobe Illustrator 25.0.1, SVG Export Plug-In . SVG Version: 6.00 Build 0)  -->
<svg version="1.1" id="Group_342" xmlns="http://www.w3.org/2000/svg" xmlns:xlink="http://www.w3.org/1999/xlink" x="0px" y="0px"
	 viewBox="0 0 367.2 110.9" style="enable-background:new 0 0 367.2 110.9;" xml:space="preserve">
<style type="text/css">
	.st0{opacity:0.2;fill:#27C5F2;enable-background:new    ;}
	.st1{fill:#FFFFFF;}
	.st2{enable-background:new    ;}
	.st3{fill:#1C3F55;}
</style>
<path id="Rectangle_23" class="st0" d="M23,13h321.2c12.7,0,23,10.3,23,23v51.9c0,12.7-10.3,23-23,23H23c-12.7,0-23-10.3-23-23V36
	C0,23.3,10.3,13,23,13z"/>
<path id="Rectangle_19" class="st1" d="M23,0h321.2c12.7,0,23,10.3,23,23v51.9c0,12.7-10.3,23-23,23H23c-12.7,0-23-10.3-23-23V23
	C0,10.3,10.3,0,23,0z"/>
<g id="Group_293" transform="translate(79.269 17)">
	<g class="st2">
		<path class="st3" d="M-15.7,37.4c-0.3-0.2-0.4-0.6-0.4-1V21.4c0-0.4,0.1-0.7,0.4-1s0.6-0.4,1-0.4h6.6c0.4,0,0.7,0.1,1,0.4
			c0.2,0.2,0.4,0.6,0.4,1v15.1c0,0.4-0.1,0.7-0.4,0.9c-0.2,0.3-0.6,0.4-1,0.4h-6.6C-15.2,37.8-15.5,37.6-15.7,37.4z"/>
		<path class="st3" d="M23.2,32.5c-1.1,1.9-2.6,3.5-4.7,4.8l4.1,5.7c0.2,0.3,0.4,0.5,0.5,0.8c0.1,0.2,0.2,0.6,0.2,1V49
			c0,0.4-0.1,0.7-0.4,0.9c-0.2,0.3-0.6,0.4-1,0.4H0.6c-0.4,0-0.7-0.1-0.9-0.4s-0.4-0.6-0.4-0.9v-4.7c0-0.4,0.1-0.7,0.4-1
			c0.3-0.2,0.6-0.4,0.9-0.4H13L-2.4,22c-0.2-0.4-0.3-0.6-0.3-0.8c0-0.3,0.1-0.6,0.3-0.8c0.2-0.2,0.5-0.3,0.8-0.3H5
			c0.7,0,1.3,0.3,1.7,1l7.4,10.2c1.6-1.4,2.4-3.6,2.4-6.7v-3c0-0.4,0.1-0.8,0.4-1c0.3-0.3,0.6-0.4,1-0.4h5.6c0.4,0,0.7,0.1,0.9,0.4
			c0.3,0.3,0.4,0.6,0.4,1V26C24.8,28.4,24.3,30.6,23.2,32.5z"/>
		<path class="st3" d="M30.9,50c-0.3-0.2-0.4-0.6-0.4-1V21.4c0-0.4,0.1-0.7,0.4-1s0.6-0.4,1-0.4h12.5c5,0,8.7,1,11.1,3.1
			c2.4,2.1,3.6,5.5,3.6,10.2V49c0,0.4-0.1,0.7-0.4,0.9c-0.2,0.3-0.6,0.4-1,0.4h-6.3c-0.4,0-0.7-0.1-1-0.4c-0.3-0.2-0.4-0.6-0.4-1
			V33.3c0-4-2-6-6-6h-4.7V49c0,0.4-0.1,0.7-0.4,0.9c-0.2,0.3-0.6,0.4-1,0.4h-6.3C31.5,50.3,31.2,50.2,30.9,50z"/>
		<path class="st3" d="M76.4,37.4c-0.3-0.2-0.4-0.6-0.4-1V21.4c0-0.4,0.1-0.7,0.4-1s0.6-0.4,1-0.4H84c0.4,0,0.7,0.1,1,0.4
			c0.2,0.2,0.4,0.6,0.4,1v15.1c0,0.4-0.1,0.7-0.4,0.9c-0.2,0.3-0.6,0.4-1,0.4h-6.6C77,37.8,76.6,37.6,76.4,37.4z"/>
		<path class="st3" d="M115.4,32.5c-1.1,1.9-2.6,3.5-4.7,4.8l4.1,5.7c0.2,0.3,0.4,0.5,0.5,0.8c0.1,0.2,0.2,0.6,0.2,1V49
			c0,0.4-0.1,0.7-0.4,0.9s-0.6,0.4-1,0.4H92.7c-0.4,0-0.7-0.1-0.9-0.4s-0.4-0.6-0.4-0.9v-4.7c0-0.4,0.1-0.7,0.4-1
			c0.3-0.2,0.6-0.4,0.9-0.4h12.5L89.7,22c-0.2-0.4-0.3-0.6-0.3-0.8c0-0.3,0.1-0.6,0.3-0.8c0.2-0.2,0.5-0.3,0.8-0.3h6.6
			c0.7,0,1.3,0.3,1.7,1l7.4,10.2c1.6-1.4,2.4-3.6,2.4-6.7v-3c0-0.4,0.1-0.8,0.4-1c0.3-0.3,0.6-0.4,1-0.4h5.6c0.4,0,0.7,0.1,0.9,0.4
			c0.3,0.3,0.4,0.6,0.4,1V26C116.9,28.4,116.4,30.6,115.4,32.5z"/>
		<path class="st3" d="M123,50c-0.3-0.2-0.4-0.6-0.4-1V21.4c0-0.4,0.1-0.7,0.4-1c0.3-0.2,0.6-0.4,1-0.4h12.5c5,0,8.7,1,11.1,3.1
			c2.4,2.1,3.6,5.5,3.6,10.2V49c0,0.4-0.1,0.7-0.4,0.9c-0.2,0.3-0.6,0.4-1,0.4h-6.3c-0.4,0-0.7-0.1-1-0.4c-0.3-0.2-0.4-0.6-0.4-1
			V33.3c0-4-2-6-6-6h-4.7V49c0,0.4-0.1,0.7-0.4,0.9c-0.2,0.3-0.6,0.4-1,0.4H124C123.6,50.3,123.3,50.2,123,50z"/>
	</g>
	<g id="Group_337" transform="translate(170.033 4.864)">
		<g id="Group_336">
			<g id="Group_338">
				<path id="Path_465" class="st3" d="M54.1,27.1C54.1,42,42,54.1,27.1,54.1S0,42,0,27.1S12.1,0,27.1,0c0,0,0,0,0,0
					C42,0,54.1,12.1,54.1,27.1C54.1,27.1,54.1,27.1,54.1,27.1"/>
			</g>
		</g>
		<g id="Group_339" transform="translate(0 2)">
			<g class="st2">
				<path class="st1" d="M12.9,25.4c-0.1-0.1-0.1-0.2-0.1-0.3v-1.4c0-0.4,0.2-0.7,0.5-0.9l1.8-1.7c1.2-0.9,2.1-1.6,2.7-2.1
					c0.6-0.5,1.1-1,1.4-1.4c0.3-0.4,0.5-0.8,0.5-1.2c0-0.9-0.5-1.4-1.4-1.4c-0.5,0-0.9,0.1-1.1,0.4c-0.3,0.3-0.4,0.7-0.5,1.1
					c-0.1,0.3-0.3,0.4-0.6,0.4h-2.5c-0.1,0-0.2,0-0.3-0.1c-0.1-0.1-0.1-0.2-0.1-0.3c0-0.8,0.3-1.6,0.7-2.3c0.4-0.7,1-1.2,1.8-1.6
					c0.8-0.4,1.7-0.6,2.7-0.6c1.1,0,2,0.2,2.8,0.5s1.4,0.8,1.8,1.4s0.6,1.3,0.6,2.2c0,0.9-0.3,1.7-0.8,2.5c-0.6,0.7-1.4,1.5-2.6,2.4
					l-1.6,1.6h4.8c0.1,0,0.3,0,0.3,0.1c0.1,0.1,0.1,0.2,0.1,0.3v2c0,0.1,0,0.2-0.1,0.3c-0.1,0.1-0.2,0.1-0.3,0.1h-9.9
					C13.1,25.6,12.9,25.5,12.9,25.4z"/>
			</g>
			<g class="st2">
				<path class="st1" d="M30.8,37.8c-0.1-0.1-0.1-0.2-0.1-0.3V36c0-0.4,0.2-0.7,0.5-0.9l1.8-1.7c1.2-0.9,2.1-1.6,2.7-2.1
					s1.1-1,1.4-1.4c0.3-0.4,0.5-0.8,0.5-1.2c0-0.9-0.5-1.4-1.4-1.4c-0.5,0-0.9,0.1-1.1,0.4c-0.3,0.3-0.4,0.7-0.5,1.1
					c-0.1,0.3-0.3,0.4-0.6,0.4h-2.5c-0.1,0-0.2,0-0.3-0.1c-0.1-0.1-0.1-0.2-0.1-0.3c0-0.8,0.3-1.6,0.7-2.3c0.4-0.7,1-1.2,1.8-1.6
					c0.8-0.4,1.7-0.6,2.7-0.6c1.1,0,2,0.2,2.8,0.5s1.4,0.8,1.8,1.4s0.6,1.3,0.6,2.2c0,0.9-0.3,1.7-0.8,2.5c-0.6,0.7-1.4,1.5-2.6,2.4
					L36.2,35H41c0.1,0,0.3,0,0.3,0.1c0.1,0.1,0.1,0.2,0.1,0.3v2c0,0.1,0,0.2-0.1,0.3c-0.1,0.1-0.2,0.1-0.3,0.1h-9.9
					C31,37.9,30.9,37.9,30.8,37.8z"/>
			</g>
			<g class="st2">
				<path class="st1" d="M22.8,34c-0.1-0.1-0.1-0.2-0.1-0.3c0-0.1,0-0.1,0-0.2L29.2,18c0.1-0.1,0.1-0.2,0.2-0.3
					c0.1-0.1,0.2-0.1,0.4-0.1H31c0.1,0,0.2,0,0.3,0.1c0.1,0.1,0.1,0.2,0.1,0.3c0,0.1,0,0.1,0,0.2l-6.5,15.5c0,0.1-0.1,0.2-0.2,0.3
					c-0.1,0.1-0.2,0.1-0.4,0.1h-1.2C22.9,34.1,22.9,34.1,22.8,34z"/>
			</g>
		</g>
	</g>
</g>
</svg>
