<?xml version="1.0" encoding="utf-8"?>
<!-- Generator: Adobe Illustrator 25.0.1, SVG Export Plug-In . SVG Version: 6.00 Build 0)  -->
<svg version="1.1" id="Layer_1" xmlns="http://www.w3.org/2000/svg" xmlns:xlink="http://www.w3.org/1999/xlink" x="0px" y="0px"
	 viewBox="0 0 367 110.9" style="enable-background:new 0 0 367 110.9;" xml:space="preserve">
<style type="text/css">
	.st0{opacity:0.2;fill:#27C5F2;enable-background:new    ;}
	.st1{fill:#FFFFFF;}
	.st2{enable-background:new    ;}
	.st3{fill:#1C3F55;}
</style>
<g id="Group_341" transform="translate(474.239)">
	<path id="Rectangle_25" class="st0" d="M-451.2,13h321c12.7,0,23,10.3,23,23v51.9c0,12.7-10.3,23-23,23h-321c-12.7,0-23-10.3-23-23
		V36C-474.2,23.3-463.9,13-451.2,13z"/>
	<path id="Rectangle_24" class="st1" d="M-451.2,0h321c12.7,0,23,10.3,23,23v51.9c0,12.7-10.3,23-23,23h-321c-12.7,0-23-10.3-23-23
		V23C-474.2,10.3-463.9,0-451.2,0z"/>
	<g id="Group_340" transform="translate(-398.625 17.323)">
		<g class="st2">
			<path class="st3" d="M3.3,37.1c-0.3-0.2-0.4-0.6-0.4-1V21.1c0-0.4,0.1-0.7,0.4-1s0.6-0.4,1-0.4h6.6c0.4,0,0.7,0.1,1,0.4
				c0.2,0.2,0.4,0.6,0.4,1v15.1c0,0.4-0.1,0.7-0.4,0.9c-0.2,0.3-0.6,0.4-1,0.4H4.3C3.9,37.4,3.6,37.3,3.3,37.1z"/>
			<path class="st3" d="M38.6,23.1c2,2.2,3,5.5,3,10c0,4.5-1.3,8.2-4,11c-2.6,2.9-6,4.9-10,6l-2.2,0.6c-0.4,0.1-0.7-0.1-1-0.4
				C24.2,50,24,49.6,24,49.3v-5.4c0-0.4,0.1-0.7,0.4-1c0.2-0.3,0.6-0.5,1-0.7l1.7-0.7c1.6-0.6,2.9-1.6,3.8-2.8
				c0.9-1.3,1.4-3,1.4-5.4c0-2.2-0.4-3.8-1.2-4.7c-0.8-0.9-2.2-1.3-4.3-1.3h-1.2h-0.2l-7.1-0.1c-0.4,0-0.7-0.1-1-0.4
				c-0.2-0.2-0.4-0.6-0.4-1V13.7c0-0.4,0.1-0.7,0.4-1c0.3-0.2,0.6-0.4,0.9-0.4H24c0.4,0,0.7,0.1,1,0.4c0.2,0.2,0.4,0.6,0.4,1v6h3.3
				C33.2,19.7,36.5,20.8,38.6,23.1z"/>
			<path class="st3" d="M77.7,49.6c-0.2-0.2-0.4-0.6-0.4-1V33c0-4-2-6-6-6H59.2c-0.4,0-0.7-0.1-1-0.4s-0.4-0.6-0.4-1v-4.6
				c0-0.4,0.1-0.7,0.4-1s0.6-0.4,1-0.4h12.3c4.9,0,8.5,1.1,11,3.2c2.5,2.2,3.7,5.5,3.7,10.1v15.6c0,0.4-0.1,0.7-0.4,1
				c-0.3,0.2-0.6,0.4-1,0.4h-6.3C78.2,50,77.9,49.9,77.7,49.6z M58.2,49.6c-0.3-0.2-0.4-0.6-0.4-1V33.2c0-0.4,0.1-0.7,0.4-1
				c0.3-0.2,0.6-0.4,1-0.4h6.3c0.4,0,0.7,0.1,1,0.4c0.2,0.2,0.4,0.6,0.4,1v15.5c0,0.4-0.1,0.7-0.4,0.9c-0.2,0.3-0.6,0.4-1,0.4h-6.3
				C58.8,50,58.5,49.9,58.2,49.6z"/>
			<path class="st3" d="M111.8,23.1c2,2.2,3,5.5,3,10c0,4.5-1.3,8.2-4,11c-2.6,2.9-6,4.9-10,6l-2.2,0.6c-0.4,0.1-0.7-0.1-1-0.4
				c-0.3-0.3-0.5-0.7-0.5-1.1v-5.4c0-0.4,0.1-0.7,0.4-1c0.2-0.3,0.6-0.5,1-0.7l1.7-0.7c1.6-0.6,2.9-1.6,3.8-2.8
				c0.9-1.3,1.4-3,1.4-5.4c0-2.2-0.4-3.8-1.2-4.7c-0.8-0.9-2.2-1.3-4.3-1.3h-1.2h-0.2l-7.1-0.1c-0.4,0-0.7-0.1-1-0.4
				c-0.2-0.2-0.4-0.6-0.4-1V13.7c0-0.4,0.1-0.7,0.4-1c0.3-0.2,0.6-0.4,0.9-0.4h5.7c0.4,0,0.7,0.1,1,0.4c0.2,0.2,0.4,0.6,0.4,1v6h3.3
				C106.5,19.7,109.8,20.8,111.8,23.1z"/>
			<path class="st3" d="M140.6,49.6c-0.3,0.3-0.6,0.4-1,0.4H133c-0.4,0-0.7-0.1-0.9-0.4c-0.2-0.2-0.4-0.6-0.4-1l-0.8-3.9
				c-0.9,1.1-1.9,1.9-3.1,2.6c-1.4,0.8-2.7,1.5-3.8,2c-1.1,0.5-2.3,0.8-3.6,1.1l-0.4,0.1c-0.6,0-0.9-0.3-0.9-0.8v-5.7
				c0-0.6,0.4-1,1.1-1.3c0.2-0.1,1.1-0.4,2.4-0.8c1.4-0.4,2.5-0.8,3.3-1.2c1.4-0.7,2.5-1.7,3.5-2.9l-1-4.9c-0.4-2.1-1-3.6-1.6-4.5
				c-0.7-0.9-1.8-1.3-3.3-1.3h-1.9c-0.4,0-0.7-0.1-0.9-0.4c-0.3-0.3-0.4-0.6-0.4-0.9v-4.9c0-0.4,0.1-0.7,0.4-1
				c0.2-0.3,0.6-0.4,1-0.4h2c3,0,5.4,0.5,7.2,1.4c1.8,0.9,3.3,2.3,4.3,4.2c1.1,1.9,1.9,4.4,2.5,7.6l3.2,16.2
				C141,49,140.9,49.3,140.6,49.6z"/>
		</g>
		<g id="Group_340-2" transform="translate(161.541 5.54)">
			<g id="Group_338">
				<path id="Path_465" class="st3" d="M54.1,27.1C54.1,42,42,54.1,27.1,54.1S0,42,0,27.1S12.1,0,27.1,0c0,0,0,0,0,0
					C42,0,54.1,12.1,54.1,27.1C54.1,27.1,54.1,27.1,54.1,27.1"/>
			</g>
			<g class="st2">
				<path class="st1" d="M24.1,31.1c-0.1-0.1-0.2-0.3-0.2-0.5c0-0.3,0-0.5,0-0.7c0.2-0.9,0.5-1.7,1-2.4c0.5-0.7,1.3-1.5,2.2-2.4
					c0.7-0.7,1.2-1.2,1.6-1.7c0.4-0.5,0.5-0.9,0.6-1.3c0.1-0.6-0.1-1.2-0.6-1.6c-0.5-0.4-1.1-0.6-1.8-0.6c-1.6,0-2.6,0.8-3,2.3
					c-0.1,0.3-0.2,0.5-0.4,0.6s-0.4,0.2-0.7,0.2h-4.3c-0.2,0-0.4-0.1-0.5-0.2c-0.1-0.2-0.2-0.4-0.2-0.6c0-1.2,0.4-2.3,1.2-3.4
					c0.7-1.1,1.8-2,3.2-2.7c1.4-0.7,3.1-1,5.1-1c2,0,3.7,0.3,4.9,0.9c1.3,0.6,2.2,1.4,2.7,2.3c0.5,0.9,0.8,1.8,0.8,2.7
					c0,1.1-0.3,2.1-0.8,2.9c-0.5,0.8-1.2,1.8-2.2,2.8c-0.6,0.7-1,1.2-1.4,1.6c-0.3,0.4-0.6,0.8-0.8,1.3c-0.1,0.2-0.2,0.5-0.2,0.8
					c-0.2,0.3-0.3,0.6-0.5,0.7s-0.3,0.2-0.6,0.2h-4.9C24.4,31.3,24.2,31.3,24.1,31.1z M24,38.2c-0.2-0.2-0.2-0.4-0.2-0.6v-3.9
					c0-0.2,0.1-0.4,0.2-0.6c0.2-0.2,0.4-0.2,0.6-0.2h4.4c0.2,0,0.4,0.1,0.6,0.2s0.2,0.4,0.2,0.6v3.9c0,0.2-0.1,0.4-0.2,0.6
					c-0.2,0.2-0.4,0.2-0.6,0.2h-4.4C24.4,38.5,24.2,38.4,24,38.2z"/>
			</g>
		</g>
	</g>
</g>
</svg>
