<svg xmlns="http://www.w3.org/2000/svg" width="391.166" height="110.901" viewBox="0 0 391.166 110.901">
  <defs>
    <style>
      .cls-1 {
        fill: #27c5f2;
        opacity: 0.2;
        mix-blend-mode: multiply;
        isolation: isolate;
      }

      .cls-2 {
        fill: #fff;
      }

      .cls-3 {
        fill: #1c3f55;
        font-size: 53px;
        font-family: Rubik-Bold, Rubik;
        font-weight: 700;
      }

      .cls-4 {
        fill: none;
        stroke: #1c3f55;
        stroke-linecap: round;
        stroke-linejoin: round;
        stroke-width: 4px;
      }
    </style>
  </defs>
  <g id="exam_btn" transform="translate(474.239)">
    <rect id="Rectangle_25" data-name="Rectangle 25" class="cls-1" width="391.166" height="97.901" rx="23" transform="translate(-474.239 13)"/>
    <rect id="Rectangle_24" data-name="Rectangle 24" class="cls-2" width="391.166" height="97.901" rx="23" transform="translate(-474.239)"/>
    <g id="Group_541" data-name="Group 541" transform="translate(-474.314)">
      <text id="מבחן" class="cls-3" transform="translate(163.075 67.323)"><tspan x="-58.221" y="0">מבחן</tspan></text>
      <g id="Group_296" data-name="Group 296" transform="translate(244.565 23.363)">
        <path id="Path_457" data-name="Path 457" class="cls-4" d="M442.759,1792.38l-22.035-3.979a2.987,2.987,0,0,1-2.456-2.939v-32.852a2.988,2.988,0,0,1,3.518-2.94l22.035,3.979a2.986,2.986,0,0,1,2.456,2.94v32.852A2.987,2.987,0,0,1,442.759,1792.38Z" transform="translate(-418.268 -1741.41)"/>
        <path id="Path_458" data-name="Path 458" class="cls-4" d="M424.543,1742.757l25.554,4.615a2.987,2.987,0,0,1,2.456,2.939v36.428" transform="translate(-416.919 -1742.757)"/>
        <g id="Group_295" data-name="Group 295" transform="translate(7.03 15.235)">
          <g id="Group_294" data-name="Group 294">
            <line id="Line_99" data-name="Line 99" class="cls-4" x2="13.95" y2="2.582"/>
            <line id="Line_100" data-name="Line 100" class="cls-4" x2="13.95" y2="2.582" transform="translate(0 8.53)"/>
            <line id="Line_101" data-name="Line 101" class="cls-4" x2="13.95" y2="2.582" transform="translate(0 17.06)"/>
            <line id="Line_102" data-name="Line 102" class="cls-4" x2="13.95" y2="2.582" transform="translate(0 25.591)"/>
          </g>
        </g>
      </g>
    </g>
  </g>
</svg>
