<svg id="practice_btn" xmlns="http://www.w3.org/2000/svg" width="391.166" height="110.901" viewBox="0 0 391.166 110.901">
  <defs>
    <style>
      .cls-1 {
        fill: #27c5f2;
        opacity: 0.2;
        mix-blend-mode: multiply;
        isolation: isolate;
      }

      .cls-2 {
        fill: #fff;
      }

      .cls-3, .cls-4 {
        fill: #1c3f55;
      }

      .cls-3 {
        font-size: 53px;
        font-family: Rubik-Bold, Rubik;
        font-weight: 700;
      }

      .cls-5 {
        fill: none;
        stroke: #1c3f55;
        stroke-linecap: round;
        stroke-linejoin: round;
        stroke-width: 4px;
      }
    </style>
  </defs>
  <rect id="Rectangle_23" data-name="Rectangle 23" class="cls-1" width="391.166" height="97.901" rx="23" transform="translate(0 13)"/>
  <rect id="Rectangle_19" data-name="Rectangle 19" class="cls-2" width="391.166" height="97.901" rx="23"/>
  <g id="Group_293" data-name="Group 293" transform="translate(99.269 17)">
    <text id="תרגול" class="cls-3" transform="translate(67.492 50.324)"><tspan x="-66.912" y="0">תרגול</tspan></text>
    <g id="Group_285" data-name="Group 285" transform="translate(156.742 7.111)">
      <g id="Group_292" data-name="Group 292">
        <g id="Group_290" data-name="Group 290" transform="translate(0 23.438)">
          <path id="Path_453" data-name="Path 453" class="cls-4" d="M838.112,441.872a4.682,4.682,0,0,1,0,6.619l-6.409,2.022a1.79,1.79,0,0,1-2.243-2.243l2.022-6.4A4.682,4.682,0,0,1,838.112,441.872Z" transform="translate(-829.375 -440.496)"/>
        </g>
        <g id="Group_291" data-name="Group 291">
          <path id="Path_454" data-name="Path 454" class="cls-5" d="M831.231,444.285l.055-.055,24.8-24.809a4.688,4.688,0,0,1,6.63,6.63l-24.8,24.8-.066.066" transform="translate(-829.18 -418.053)"/>
          <path id="Path_455" data-name="Path 455" class="cls-5" d="M831.481,441.872a4.685,4.685,0,1,1,6.63,6.619l-6.409,2.022a1.79,1.79,0,0,1-2.243-2.243Z" transform="translate(-829.375 -415.695)"/>
        </g>
      </g>
      <path id="Path_456" data-name="Path 456" class="cls-5" d="M825.367,453.81l-4.223-3.553c-3.208-2.7-6.987-2.011-9.24,1.684h0c-2.313,3.795-6.227,4.407-9.473,1.482l-4.473-4.034" transform="translate(-790.683 -406.001)"/>
    </g>
  </g>
</svg>
