<svg xmlns="http://www.w3.org/2000/svg" width="1053.534" height="686.259" viewBox="0 0 1053.534 686.259">
  <defs>
    <style>
      .cls-1 {
        fill: #27c5f2;
        opacity: 0.2;
      }

      .cls-2, .cls-5, .cls-6 {
        fill: none;
        stroke-miterlimit: 10;
        stroke-width: 7px;
      }

      .cls-2 {
        stroke: #708fa0;
        stroke-linecap: round;
      }

      .cls-3 {
        fill: #fff;
      }

      .cls-4 {
        fill: #1de8f7;
      }

      .cls-5 {
        stroke: #ef4230;
      }

      .cls-5, .cls-6 {
        opacity: 0.1;
      }

      .cls-6 {
        stroke: #26a6e0;
      }
    </style>
  </defs>
  <g id="Group_543" data-name="Group 543" transform="translate(0 3.537)">
    <g id="Group_542" data-name="Group 542" transform="translate(0 0)">
      <g id="Group_303" data-name="Group 303" transform="translate(1053.534) rotate(90)">
        <rect id="Rectangle_91" data-name="Rectangle 91" class="cls-1" width="663.978" height="1053.534" rx="37.326" transform="translate(18.744 0)"/>
        <line id="Line_103" data-name="Line 103" class="cls-2" x2="6.239" y2="24.925" transform="translate(30.954 932.202) rotate(-90)"/>
        <path id="Path_459" data-name="Path 459" class="cls-2" d="M22.206,25.389l1.477,5.9a7.689,7.689,0,0,1-5.591,9.325h0a7.689,7.689,0,0,1-9.325-5.591l-1.477-5.9L0,0" transform="translate(27.289 948.97) rotate(-90)"/>
        <rect id="Rectangle_27" data-name="Rectangle 27" class="cls-3" width="619.391" height="1008.947" rx="37.326" transform="translate(41.037 22.293)"/>
        <path id="Rectangle_28" data-name="Rectangle 28" class="cls-4" d="M33.865,0h0a0,0,0,0,1,0,0V1008.947a0,0,0,0,1,0,0h0A33.865,33.865,0,0,1,0,975.081V33.865A33.865,33.865,0,0,1,33.865,0Z" transform="translate(41.037 22.293)"/>
        <g id="Group_301" data-name="Group 301" transform="translate(124.713 1031.24) rotate(-90)">
          <line id="Line_104" data-name="Line 104" class="cls-5" x2="1008.947"/>
          <line id="Line_105" data-name="Line 105" class="cls-6" x2="1008.947" transform="translate(0 60.055)"/>
          <line id="Line_106" data-name="Line 106" class="cls-6" x2="1008.947" transform="translate(0 120.11)"/>
          <line id="Line_107" data-name="Line 107" class="cls-6" x2="1008.947" transform="translate(0 180.164)"/>
          <line id="Line_108" data-name="Line 108" class="cls-6" x2="1008.947" transform="translate(0 240.219)"/>
          <line id="Line_109" data-name="Line 109" class="cls-6" x2="1008.947" transform="translate(0 300.274)"/>
          <line id="Line_110" data-name="Line 110" class="cls-6" x2="1008.947" transform="translate(0 360.329)"/>
          <line id="Line_111" data-name="Line 111" class="cls-6" x2="1008.947" transform="translate(0 420.383)"/>
          <line id="Line_112" data-name="Line 112" class="cls-6" x2="1008.947" transform="translate(0 480.438)"/>
        </g>
        <g id="Group_302" data-name="Group 302" transform="translate(0 964.48) rotate(-90)">
          <path id="Path_461" data-name="Path 461" class="cls-2" d="M12.056,63.626.415,17.123A13.776,13.776,0,0,1,10.434.416h0A13.776,13.776,0,0,1,27.141,10.433l5.136,20.521" transform="translate(0)"/>
          <path id="Path_462" data-name="Path 462" class="cls-2" d="M0,0,10.937,43.689a19.379,19.379,0,0,0,23.5,14.093h0a19.379,19.379,0,0,0,14.092-23.5l-5.07-19.63" transform="translate(4.992 35.409)"/>
        </g>
      </g>
    </g>
  </g>
</svg>
