<svg xmlns="http://www.w3.org/2000/svg" width="559.934" height="434.805" viewBox="0 0 559.934 434.805">
  <defs>
    <style>
      .cls-1, .cls-3 {
        fill: none;
        stroke-miterlimit: 10;
      }

      .cls-1 {
        stroke: #708fa0;
        stroke-linecap: round;
        stroke-width: 7px;
      }

      .cls-2 {
        fill: #fff;
      }

      .cls-3 {
        stroke: #b3b3b3;
        stroke-width: 8px;
      }
    </style>
  </defs>
  <g id="Group_579" data-name="Group 579" transform="translate(-156.707 -374.478)">
    <g id="Group_303" data-name="Group 303" transform="translate(156.707 377.956)">
      <line id="Line_103" data-name="Line 103" class="cls-1" x2="5.64" y2="22.532" transform="translate(104.768 28.038)"/>
      <path id="Path_459" data-name="Path 459" class="cls-1" d="M-2327.693-1106.925l1.335,5.334a6.95,6.95,0,0,1-5.054,8.43h0a6.95,6.95,0,0,1-8.43-5.055l-1.335-5.334-6.591-26.328" transform="translate(2437.376 1154.602)"/>
      <rect id="Rectangle_27" data-name="Rectangle 27" class="cls-2" width="559.934" height="395.625" rx="37.326" transform="translate(0 35.701)"/>
      <path id="Path_460" data-name="Path 460" class="cls-3" d="M-2328.244-1161.541" transform="translate(2444.194 1161.541)"/>
      <g id="Group_302" data-name="Group 302" transform="translate(75.588 0.056)">
        <path id="Path_461" data-name="Path 461" class="cls-1" d="M-2359.883-1112.854l-10.524-42.039a12.453,12.453,0,0,1,9.056-15.1h0a12.453,12.453,0,0,1,15.1,9.056l4.643,18.551" transform="translate(2370.782 1170.371)"/>
        <path id="Path_462" data-name="Path 462" class="cls-1" d="M-2363.374-1117.828l9.886,39.495a17.519,17.519,0,0,0,21.249,12.74h0a17.519,17.519,0,0,0,12.739-21.248l-4.583-17.746" transform="translate(2367.887 1149.838)"/>
      </g>
    </g>
  </g>
</svg>
