<svg xmlns="http://www.w3.org/2000/svg" width="40.616" height="54.454" viewBox="0 0 40.616 54.454">
  <defs>
    <style>
      .cls-1 {
        fill: #2be8f7;
      }

      .cls-2 {
        fill: none;
        stroke: #2be8f7;
        stroke-linecap: round;
        stroke-linejoin: round;
        stroke-width: 4.5px;
      }
    </style>
  </defs>
  <g id="Group_552" data-name="Group 552" transform="translate(2.28 2.25)">
    <g id="Group_292" data-name="Group 292">
      <g id="Group_290" data-name="Group 290" transform="translate(0 25.357)">
        <path id="Path_453" data-name="Path 453" class="cls-1" d="M838.233,441.891a4.748,4.748,0,0,1,0,6.711l-6.5,2.05a1.814,1.814,0,0,1-2.274-2.274l2.05-6.487A4.747,4.747,0,0,1,838.233,441.891Z" transform="translate(-829.375 -440.496)"/>
      </g>
      <g id="Group_291" data-name="Group 291">
        <path id="Path_454" data-name="Path 454" class="cls-2" d="M831.231,444.65l.056-.056,25.142-25.154a4.754,4.754,0,0,1,6.723,6.723L838.01,451.3l-.067.067" transform="translate(-829.151 -418.053)"/>
        <path id="Path_455" data-name="Path 455" class="cls-2" d="M831.511,441.891a4.75,4.75,0,1,1,6.723,6.711l-6.5,2.05a1.814,1.814,0,0,1-2.274-2.274Z" transform="translate(-829.375 -415.351)"/>
      </g>
    </g>
    <path id="Path_456" data-name="Path 456" class="cls-2" d="M825.748,453.882l-4.281-3.6c-3.253-2.737-7.084-2.039-9.368,1.708h0c-2.345,3.848-6.314,4.468-9.6,1.5l-4.536-4.089" transform="translate(-790.582 -405.409)"/>
  </g>
</svg>
