<svg xmlns="http://www.w3.org/2000/svg" xmlns:xlink="http://www.w3.org/1999/xlink" width="1177.29" height="774.276" viewBox="0 0 1177.29 774.276">
  <defs>
    <style>
      .cls-1, .cls-3 {
        fill: #fff;
      }

      .cls-1 {
        stroke: #707070;
      }

      .cls-2, .cls-5, .cls-6 {
        fill: none;
        stroke-miterlimit: 10;
      }

      .cls-2 {
        stroke: #708fa0;
        stroke-linecap: round;
        stroke-width: 8px;
      }

      .cls-4 {
        fill: #1de8f7;
      }

      .cls-5 {
        stroke: #ef4230;
      }

      .cls-5, .cls-6 {
        stroke-width: 7px;
        opacity: 0.1;
      }

      .cls-6 {
        stroke: #26a6e0;
      }

      .cls-7 {
        clip-path: url(#clip-path);
      }

      .cls-8 {
        opacity: 0.05;
      }

      .cls-9 {
        fill: #282828;
      }
    </style>
    <clipPath id="clip-path">
      <rect id="Rectangle_54" data-name="Rectangle 54" class="cls-1" width="655.526" height="1177.29" transform="translate(0 0)"/>
    </clipPath>
  </defs>
  <g id="Group_508" data-name="Group 508" transform="translate(-269.019 -140.488)">
    <g id="Group_543" data-name="Group 543" transform="translate(269.019 144.531)">
      <g id="Group_542" data-name="Group 542" transform="translate(0.487)">
        <g id="Group_303" data-name="Group 303" transform="translate(1176.697) rotate(90)">
          <line id="Line_103" data-name="Line 103" class="cls-2" x2="7.277" y2="29.069" transform="translate(36.101 1061.193) rotate(-90)"/>
          <path id="Path_459" data-name="Path 459" class="cls-2" d="M25.9,29.611l1.723,6.882A8.967,8.967,0,0,1,21.1,47.368h0a8.967,8.967,0,0,1-10.875-6.521L8.5,33.966,0,0" transform="translate(31.826 1080.749) rotate(-90)"/>
          <rect id="Rectangle_27" data-name="Rectangle 27" class="cls-3" width="722.373" height="1176.697" rx="37.326" transform="translate(47.86 0)"/>
          <path id="Rectangle_28" data-name="Rectangle 28" class="cls-4" d="M37.326,0H39.5a0,0,0,0,1,0,0V1176.7a0,0,0,0,1,0,0h-2.17A37.326,37.326,0,0,1,0,1139.371V37.326A37.326,37.326,0,0,1,37.326,0Z" transform="translate(47.86 0)"/>
          <g id="Group_301" data-name="Group 301" transform="translate(145.449 1176.697) rotate(-90)">
            <line id="Line_104" data-name="Line 104" class="cls-5" x2="1176.697"/>
            <line id="Line_105" data-name="Line 105" class="cls-6" x2="1176.697" transform="translate(0 70.04)"/>
            <line id="Line_106" data-name="Line 106" class="cls-6" x2="1176.697" transform="translate(0 140.079)"/>
            <line id="Line_107" data-name="Line 107" class="cls-6" x2="1176.697" transform="translate(0 210.119)"/>
            <line id="Line_108" data-name="Line 108" class="cls-6" x2="1176.697" transform="translate(0 280.159)"/>
            <line id="Line_109" data-name="Line 109" class="cls-6" x2="1176.697" transform="translate(0 350.198)"/>
            <line id="Line_110" data-name="Line 110" class="cls-6" x2="1176.697" transform="translate(0 420.238)"/>
            <line id="Line_111" data-name="Line 111" class="cls-6" x2="1176.697" transform="translate(0 490.277)"/>
            <line id="Line_112" data-name="Line 112" class="cls-6" x2="1176.697" transform="translate(0 560.317)"/>
          </g>
          <g id="Group_302" data-name="Group 302" transform="translate(0 1098.837) rotate(-90)">
            <path id="Path_461" data-name="Path 461" class="cls-2" d="M14.061,74.2.484,19.97A16.066,16.066,0,0,1,12.168.485h0A16.066,16.066,0,0,1,31.654,12.168L37.644,36.1"/>
            <path id="Path_462" data-name="Path 462" class="cls-2" d="M0,0,12.755,50.953A22.6,22.6,0,0,0,40.167,67.389h0A22.6,22.6,0,0,0,56.6,39.977L50.69,17.083" transform="translate(5.823 41.296)"/>
          </g>
        </g>
      </g>
      <g id="Mask_Group_1" data-name="Mask Group 1" class="cls-7" transform="translate(1177.29 86.837) rotate(90)">
        <g id="Group_3" data-name="Group 3" class="cls-8" transform="translate(198.52 1300.016) rotate(-90)">
          <path id="Path_6" data-name="Path 6" class="cls-9" d="M0,251.062c1.6-7.848,2.937-15.759,4.845-23.53a116.986,116.986,0,0,1,25.132-48.4c19.345-22.78,43.527-38.234,71.877-47.43,2.73-.878,4.336-.42,6.244,1.577,14.372,14.97,28.655,30.055,43.371,44.695,16.456,16.37,33.6,31.989,53.486,44.288A258.376,258.376,0,0,0,259.7,248.3c.588-2.506,1.182-4.833,1.667-7.2,6.726-33.082,32.041-58.037,65.542-63.354,23.529-3.739,44.822,2.773,63.481,17.4,16.533,12.948,25.581,30.539,30.054,50.724a12.961,12.961,0,0,0,.484,1.246c17.172-5.991,33.247-14.042,48.841-23.212,16.944-9.959,31.617-22.589,45.294-36.555,20.488-20.923,41.2-41.655,61.638-62.654,18.275-18.786,36.338-37.8,54.437-56.765q22.32-23.39,44.5-46.9c.8-.852,1.511-1.793,2.709-3.205l-11.13-3.714c12.693-4.07,24.5-7.873,36.31-11.625,2.889-.916,5.827-1.666,8.74-2.493a11.537,11.537,0,0,1-.1,2q-3.776,17.552-7.616,35.092c-.588,2.684-1.238,5.342-2.063,8.916l-4.309-10L600.824,140.533c1.158.6,2.429,1.234,3.7,1.908,16.852,9.031,31.986,20.4,44.5,34.838,17.273,19.931,27.692,43.016,30.59,69.446,2.084,18.951.826,37.521-4.705,55.748-8.636,28.427-25.2,51.347-49.109,68.785a138,138,0,0,1-65.77,26.138c-3.623.433-7.238,1.03-10.864,1.552H535.584c-1.143-.254-2.261-.585-3.416-.763-6.784-1.03-13.662-1.564-20.317-3.091-30.7-7.021-56.6-22.195-77.1-46.272a125.38,125.38,0,0,1-27.829-56.6c-.9-4.337-1.676-8.7-2.529-13.088a259.335,259.335,0,0,1-128.309.738c-.165,1.908-.241,3.46-.448,5a46.789,46.789,0,0,1-.786,4.668c-7.643,33.5-24.459,61.128-52.416,81.542A138.255,138.255,0,0,1,156.711,397.4c-3.483.433-6.96,1.03-10.431,1.552H131.9a25.293,25.293,0,0,0-3-.75c-6.536-.89-13.217-1.157-19.589-2.684-41.732-10.023-73.9-33.006-94.337-71.176C8.152,311.618,3.154,298.161,2.288,283.445,1.959,277.951.786,272.52,0,267.05ZM116.363,176.2c-6.561-6.932-12.616-13.431-18.86-19.727-.637-.636-2.67-.445-3.751.038-21.637,9.527-40.065,23.25-53.739,42.685-17.974,25.527-22.968,53.98-17.73,84.442,5.01,29.216,20.058,52.492,43.5,70.019,29.1,21.788,61.878,29.572,97.695,22.119,29.813-6.207,53.943-21.686,72.118-46.2,11.754-15.835,18.1-33.833,20.82-53.2.116-.827-.445-2.34-1.069-2.582-8.048-3.142-16.164-6.105-24.544-9.221-.472,4.261-.765,8.318-1.387,12.325-3.523,22.678-14.363,41.235-32.233,55.519-23.212,18.557-49.628,24.6-78.554,18.417a88.472,88.472,0,0,1-54.156-34.825c-14.588-19.664-19.79-41.681-16.5-65.834A84.584,84.584,0,0,1,67.69,206.355,90.809,90.809,0,0,1,116.363,176.2Zm307.286,97.479c2.094,8.865,3.623,18.125,6.522,26.914,6.448,19.537,18.038,35.677,33.845,48.93,19.717,16.522,42.381,26.163,67.845,28.491a116.2,116.2,0,0,0,61.245-10.926c28.527-13.533,49.158-34.494,60.376-64.168,6.472-17.107,8.127-34.863,6.168-53.077a103.557,103.557,0,0,0-9.222-33.756c-12.336-25.909-32.611-43.868-57.706-56.867-7.326-3.8-7.366-3.7-13.317,2.213-4.678,4.63-9.386,9.221-14.472,14.207,1.78.56,2.761.89,3.764,1.17,13.954,3.917,26.583,10.531,37.1,20.4,21.853,20.49,32.144,45.649,28.951,75.844-2.188,20.669-10.672,38.564-25.425,52.873-24.078,23.365-53.19,32.167-86.008,24.815-32.943-7.377-55.759-27.448-66.888-59.551-3.154-9.081-4.032-18.952-5.955-28.415Zm-84.725-11.918c5.3-.343,10.645-.369,15.886-1.107q20.716-2.862,41.375-6.3c4.72-.776,5.19-1.806,4.071-6.347-3.776-15.314-10.94-28.656-23.849-38.183-14.195-10.455-30.209-15.39-47.671-11.74-27.625,5.787-44.657,24.751-48.893,52.861-.369,2.417.448,3.587,2.852,4.121A281.361,281.361,0,0,0,338.924,261.759Z" transform="translate(0 27.721)"/>
          <path id="Path_7" data-name="Path 7" class="cls-9" d="M17.553,113.88,0,96.29c121.8-123.757,333.125-132.762,465.341-.5l-17.474,17.489c-59.474-57.172-131.062-87.775-214.689-87.8S77.941,55.945,17.553,113.88Z" transform="translate(108.265 0)"/>
          <path id="Path_8" data-name="Path 8" class="cls-9" d="M17.678,95.641,0,77.949c101.37-102.122,272-105.632,378.011-.28L360.128,95.323C312.8,49.395,255.449,25.19,188.954,25.216,122.6,25.228,65.4,49.42,17.678,95.641Z" transform="translate(152.235 62.87)"/>
          <path id="Path_9" data-name="Path 9" class="cls-9" d="M17.715,76.3C11.69,70.3,5.851,64.472,0,58.646c73.452-76.06,203.4-80.258,282.4-.127L264.658,76.275C196.636,7.884,84.783,8.673,17.715,76.3Z" transform="translate(200.136 131.078)"/>
          <path id="Path_10" data-name="Path 10" class="cls-9" d="M37.371,65.91,0,1.208C25.349,3.93,49.932,4.63,75.436,0Z" transform="translate(304.929 360.58)"/>
        </g>
      </g>
    </g>
  </g>
</svg>
