<svg xmlns="http://www.w3.org/2000/svg" width="377.317" height="166.718" viewBox="0 0 377.317 166.718">
  <defs>
    <style>
      .cls-1 {
        fill: none;
        stroke: #708fa0;
        stroke-linecap: round;
        stroke-miterlimit: 10;
        stroke-width: 7px;
      }

      .cls-2 {
        fill: #fff;
      }

      .cls-3 {
        fill: #1c3f55;
        font-size: 65px;
        font-family: Rubik-Bold, Rubik;
        font-weight: 700;
      }
    </style>
  </defs>
  <g id="Group_303" data-name="Group 303" transform="translate(2276.096 1133.878)">
    <g id="Group_330" data-name="Group 330" transform="translate(234.518)">
      <path id="Path_459" data-name="Path 459" class="cls-1" d="M-2326.948-1106.073l1.385,5.532a7.209,7.209,0,0,1-5.242,8.743h0a7.208,7.208,0,0,1-8.743-5.242l-1.385-5.532-6.835-27.305" transform="translate(142.813 25.119)"/>
      <line id="Line_118" data-name="Line 118" class="cls-1" x2="5.85" y2="23.369" transform="translate(-2189.276 -1101.321)"/>
      <rect id="Rectangle_27" data-name="Rectangle 27" class="cls-2" width="377.317" height="129.46" rx="27" transform="translate(-2510.614 -1096.62)"/>
      <g id="Group_331" data-name="Group 331" transform="translate(-2219.463 -1130.343)">
        <path id="Path_461" data-name="Path 461" class="cls-1" d="M-2359.479-1110.718l-10.915-43.6a12.916,12.916,0,0,1,9.393-15.665h0a12.915,12.915,0,0,1,15.665,9.393l4.816,19.24" transform="translate(2370.783 1170.372)"/>
        <path id="Path_462" data-name="Path 462" class="cls-1" d="M-2363.374-1117.828l10.254,40.961a18.169,18.169,0,0,0,22.037,13.213h0a18.169,18.169,0,0,0,13.212-22.037l-4.753-18.4" transform="translate(2368.055 1151.026)"/>
      </g>
    </g>
    <text id="מבחן" class="cls-3" transform="translate(-2087.781 -1009.497)"><tspan x="-71.402" y="0">מבחן</tspan></text>
  </g>
</svg>
